#
# Compatibility version : brain5.0i
# File ID : FJ3861
# Representation ID : BP58351
# Build-up logic : FMA 3.2.1-inference is_a
# Concept ID : FMA61975
# English name : Lamina terminalis
# Bounds(mm): (-2.059100,-109.645300,1539.528300)-(-0.650400,-102.332800,1551.422700)
# Volume(cm3): 0.041400
#
v -1.9853 -109.631 1539.55
v -1.99723 -109.021 1539.88
v -2.05417 -108.634 1540.13
v -1.98639 -108.55 1540.05
v -2.05909 -109.466 1539.71
v -2.02068 -109.555 1539.73
v -2.05909 -109.44 1539.8
v -1.96562 -109.612 1539.65
v -1.9853 -109.538 1539.8
v -1.96558 -109.575 1539.73
v -1.9853 -109.286 1540.27
v -1.54387 -109.609 1539.71
v -2.05097 -106.331 1540.93
v -1.9853 -106.528 1540.75
v -1.9853 -108.677 1541.36
v -1.9853 -105.472 1541.44
v -2.05483 -105.951 1541.23
v -1.9853 -105.949 1541.08
v -1.93987 -108.13 1542.42
v -2.05089 -104.825 1542.05
v -2.01745 -104.707 1542.11
v -2.05909 -104.891 1542.16
v -1.9853 -104.783 1542.19
v -1.9853 -104.867 1542.25
v -2.05909 -105.021 1542.4
v -2.00031 -104.935 1542.68
v -2.05909 -105.008 1542.79
v -1.9853 -104.932 1542.37
v -2.05909 -107.681 1543.16
v -1.9853 -104.867 1543.05
v -1.9853 -106.365 1546.02
v -2.00464 -105.856 1547.11
v -2.05197 -105.779 1546.82
v -1.89943 -103.253 1547.17
v -2.03637 -103.327 1547.09
v -2.03092 -105.286 1548.33
v -1.8801 -105.441 1548.37
v -2.04061 -102.512 1549.84
v -2.03269 -104.802 1550.41
v -1.91887 -105.036 1550.14
v -1.9853 -104.833 1550.67
v -1.9853 -104.709 1550.85
v -2.03774 -104.297 1551.13
v -2.05406 -103.975 1551.22
v -2.04268 -103.661 1551.33
v -1.92077 -104.458 1551.06
v -1.9308 -104.088 1551.26
v -2.05169 -104.451 1550.9
v -2.05455 -102.534 1551.05
v -2.03097 -102.379 1551.27
v -1.9853 -102.333 1551.08
v -1.9853 -102.369 1551.3
v -1.95064 -102.521 1551.34
v -2.05286 -103.263 1551.3
v -1.92287 -103.509 1551.39
v -1.80455 -102.862 1551.4
v -0.8405 -109.616 1539.53
v -0.904697 -109.638 1539.57
v -0.7451 -109.63 1539.55
v -0.662344 -109.245 1539.82
v -0.820156 -108.922 1539.91
v -0.654917 -108.994 1539.97
v -0.892217 -109.551 1539.81
v -0.658062 -109.235 1540.04
v -0.801154 -106.771 1540.66
v -0.667444 -106.829 1540.71
v -0.892585 -108.549 1541.61
v -0.658873 -108.2 1541.53
v -0.747202 -108.648 1541.32
v -0.655 -105.468 1541.54
v -0.824446 -105.923 1541.12
v -0.7451 -104.685 1542.11
v -0.850124 -104.955 1542.29
v -0.653277 -104.825 1542.05
v -0.672059 -104.799 1542.14
v -0.755985 -104.792 1542.17
v -0.752749 -104.882 1542.21
v -0.655 -104.982 1542.19
v -0.744867 -108.067 1542.43
v -1.13921 -104.944 1542.47
v -1.18799 -104.943 1542.68
v -1.07522 -104.868 1542.26
v -0.933899 -104.999 1542.58
v -0.745764 -104.961 1542.28
v -0.7451 -105.002 1542.4
v -0.654917 -105.113 1542.43
v -0.659264 -105.252 1542.96
v -0.739535 -105.008 1542.79
v -0.659261 -104.824 1544.01
v -0.7451 -104.592 1544.06
v -0.657794 -106.836 1544.45
v -0.707327 -107.007 1544.56
v -1.11486 -104.366 1544.64
v -0.661108 -104.235 1545.34
v -0.7451 -104.05 1545.4
v -0.677103 -104.004 1545.61
v -0.6707 -106.266 1545.8
v -0.735539 -103.793 1546.02
v -0.658566 -103.902 1546.15
v -0.670269 -103.7 1546.33
v -0.907778 -105.995 1546.85
v -0.740618 -105.788 1547.17
v -0.796371 -103.494 1546.72
v -0.659809 -103.583 1546.99
v -0.656064 -105.455 1547.01
v -0.662024 -105.413 1547.69
v -0.7451 -105.595 1547.73
v -0.660314 -103.331 1547.87
v -0.675725 -105.161 1548.55
v -0.8405 -105.232 1549.21
v -0.773852 -102.658 1549.32
v -0.898469 -105.107 1549.95
v -0.656625 -104.817 1549.99
v -0.699972 -104.978 1550.12
v -0.659897 -102.712 1550.18
v -0.903602 -104.983 1550.42
v -0.906399 -104.803 1550.77
v -0.749878 -104.861 1550.6
v -0.664839 -104.563 1550.77
v -0.751652 -104.68 1550.86
v -0.817843 -102.379 1550.47
v -0.904124 -104.453 1551.09
v -0.904313 -103.945 1551.32
v -0.890215 -103.711 1551.38
v -0.65362 -104.366 1550.86
v -0.669082 -104.421 1550.98
v -0.661892 -103.825 1551.17
v -0.745088 -104.085 1551.24
v -0.7512 -103.673 1551.34
v -0.90541 -104.647 1550.94
v -0.748183 -104.529 1551
v -0.934169 -102.505 1551.35
v -0.832534 -102.341 1551.14
v -0.654286 -102.405 1551.18
v -0.716167 -102.379 1551.27
v -0.901645 -103.226 1551.41
v -0.686028 -103.223 1551.31
v -0.752034 -103.034 1551.37
v -1.9853 -109.631 1539.55
v -1.9853 -109.631 1539.55
v -1.9853 -109.631 1539.55
v -1.9853 -109.631 1539.55
v -1.99723 -109.021 1539.88
v -2.05417 -108.634 1540.13
v -1.98639 -108.55 1540.05
v -2.05909 -109.466 1539.71
v -2.05909 -109.44 1539.8
v -1.9853 -109.286 1540.27
v -1.9853 -106.528 1540.75
v -1.9853 -108.677 1541.36
v -1.9853 -105.472 1541.44
v -1.9853 -105.949 1541.08
v -1.93987 -108.13 1542.42
v -1.93987 -108.13 1542.42
v -1.93987 -108.13 1542.42
v -2.01745 -104.707 1542.11
v -2.01745 -104.707 1542.11
v -2.01745 -104.707 1542.11
v -2.01745 -104.707 1542.11
v -2.05909 -104.891 1542.16
v -1.9853 -104.783 1542.19
v -1.9853 -104.867 1542.25
v -2.05909 -105.021 1542.4
v -2.00031 -104.935 1542.68
v -2.05909 -105.008 1542.79
v -2.05909 -105.008 1542.79
v -1.9853 -104.932 1542.37
v -2.05909 -107.681 1543.16
v -1.9853 -104.867 1543.05
v -1.9853 -106.365 1546.02
v -2.00464 -105.856 1547.11
v -2.05197 -105.779 1546.82
v -2.03637 -103.327 1547.09
v -1.8801 -105.441 1548.37
v -2.04061 -102.512 1549.84
v -1.91887 -105.036 1550.14
v -1.9853 -104.833 1550.67
v -1.9853 -104.709 1550.85
v -2.03774 -104.297 1551.13
v -2.03774 -104.297 1551.13
v -2.05406 -103.975 1551.22
v -2.04268 -103.661 1551.33
v -1.92077 -104.458 1551.06
v -2.03097 -102.379 1551.27
v -2.03097 -102.379 1551.27
v -1.9853 -102.333 1551.08
v -1.9853 -102.369 1551.3
v -1.9853 -102.369 1551.3
v -2.05286 -103.263 1551.3
v -0.8405 -109.616 1539.53
v -0.904697 -109.638 1539.57
v -0.7451 -109.63 1539.55
v -0.7451 -109.63 1539.55
v -0.662344 -109.245 1539.82
v -0.654917 -108.994 1539.97
v -0.667444 -106.829 1540.71
v -0.655 -105.468 1541.54
v -0.7451 -104.685 1542.11
v -0.7451 -104.685 1542.11
v -0.653277 -104.825 1542.05
v -0.672059 -104.799 1542.14
v -0.655 -104.982 1542.19
v -0.744867 -108.067 1542.43
v -0.739535 -105.008 1542.79
v -0.7451 -104.592 1544.06
v -0.735539 -103.793 1546.02
v -0.670269 -103.7 1546.33
v -0.740618 -105.788 1547.17
v -0.659809 -103.583 1546.99
v -0.7451 -105.595 1547.73
v -0.7451 -105.595 1547.73
v -0.8405 -105.232 1549.21
v -0.773852 -102.658 1549.32
v -0.699972 -104.978 1550.12
v -0.749878 -104.861 1550.6
v -0.751652 -104.68 1550.86
v -0.817843 -102.379 1550.47
v -0.654286 -102.405 1551.18
v -0.654286 -102.405 1551.18
v -0.716167 -102.379 1551.27
v -0.716167 -102.379 1551.27
vn -0.0208086 0.472153 -0.881271
vn -0.725205 0.300917 -0.619295
vn -0.810008 0.224338 -0.541812
vn -0.851122 0.185022 -0.491283
vn -0.648441 0.348108 -0.677012
vn -0.670794 -0.685716 0.282541
vn -0.946047 -0.278533 0.165572
vn -0.236399 -0.915497 0.325545
vn -0.411389 -0.795511 0.444884
vn -0.199343 -0.886393 0.417816
vn -0.775631 -0.553579 0.303229
vn -0.0212972 -0.924064 0.381645
vn -0.88395 0.224463 -0.410181
vn -0.794622 0.242125 -0.556732
vn -0.911465 -0.351359 0.21396
vn -0.793585 0.375325 -0.478909
vn -0.972153 0.13983 -0.188061
vn -0.811961 0.327061 -0.483477
vn -0.983626 -0.139438 0.114183
vn -0.918291 0.291024 -0.268414
vn -0.0152768 0.660693 -0.750501
vn -0.995741 0.0920473 0.00515685
vn -0.737869 0.351292 0.576319
vn -0.706866 0.530226 0.46819
vn -0.999957 0.00399764 -0.00839434
vn -0.800879 0.597471 -0.0402612
vn -0.811751 0.582273 -0.0449209
vn -0.703048 0.669525 0.239708
vn -1 8.35542e-05 0.000604407
vn -0.827094 0.557812 -0.0689972
vn -0.959138 -0.260424 0.110609
vn -0.909214 -0.38399 0.160876
vn -0.429892 -0.800816 0.416996
vn -0.0944728 0.944128 -0.31575
vn -0.356523 0.880206 -0.313254
vn -0.943368 -0.316957 0.0979596
vn 0.0207712 -0.971901 0.234473
vn -0.0872759 0.969146 -0.230518
vn -0.959249 -0.274237 0.068082
vn -0.805625 -0.580357 0.118968
vn -0.924635 -0.351831 0.145824
vn -0.868184 -0.298591 0.396358
vn -0.626813 -0.628809 0.460114
vn -0.995621 -0.033248 0.0873643
vn -0.409229 -0.148365 0.900289
vn -0.704842 -0.474854 0.526983
vn -0.208941 -0.34094 0.916572
vn -0.968551 -0.182574 0.169046
vn -0.989828 0.141558 -0.0142324
vn -0.981456 0.189595 -0.0282599
vn -0.93891 0.336033 -0.0743633
vn -0.102888 0.974687 0.198491
vn -0.357102 0.101655 0.928517
vn -0.998293 0.00346986 0.0583069
vn -0.207593 -0.081819 0.974788
vn -0.0709282 0.071252 0.994933
vn 0.134974 0.470763 -0.871874
vn 0.00237019 -0.874093 -0.485752
vn 0.387127 0.44332 -0.808455
vn 0.474878 0.430502 -0.767567
vn 0.214934 0.396139 -0.89268
vn 0.457936 0.36306 -0.811469
vn 0.137157 -0.890806 0.43319
vn 0.970628 -0.219193 0.0991715
vn 0.252148 0.392808 -0.884378
vn 0.500159 0.357098 -0.788874
vn 0.215943 -0.86744 0.448237
vn 0.994003 -0.0967275 0.0510171
vn 0.67034 -0.648381 0.360896
vn 0.437464 0.515754 -0.736629
vn 0.234531 0.540533 -0.807972
vn 0.134277 0.625639 -0.76847
vn 0.175179 0.878743 0.443985
vn 0.323311 0.581763 -0.746339
vn 0.932663 0.34909 0.0909672
vn 0.258049 0.422976 0.868621
vn 0.32956 0.501309 0.800049
vn 0.998614 0.0321673 0.0416559
vn 0.366015 -0.830779 0.419332
vn 0.133429 0.971256 0.197128
vn 0.0951299 0.995059 -0.0284202
vn 0.085514 0.713135 0.695791
vn 0.165249 0.983664 0.071396
vn 0.357634 0.793037 0.493144
vn 0.406421 0.887699 0.21636
vn 0.930811 0.351612 0.0998033
vn 0.991794 0.126977 -0.0149022
vn 0.0944114 0.991658 -0.0877503
vn 0.978094 0.191777 -0.0809503
vn 0.0275584 0.940199 -0.339508
vn 0.992998 -0.106135 0.0518665
vn 0.810786 -0.524705 0.259443
vn 0.0696167 0.923536 -0.377139
vn 0.95982 0.247444 -0.132355
vn 0.42546 0.824972 -0.372029
vn 0.839071 0.493278 -0.229427
vn 0.931795 -0.328557 0.154299
vn 0.34154 0.869933 -0.355761
vn 0.981974 0.169126 -0.0844021
vn 0.551166 0.798425 -0.24235
vn 0.267327 -0.876488 0.400381
vn 0.461357 -0.834043 0.302525
vn 0.379605 0.868874 -0.317738
vn 0.736804 0.657922 -0.155749
vn 0.998689 -0.0486206 0.0160027
vn 0.976038 -0.207686 0.0649281
vn 0.0101403 -0.946513 0.322507
vn 0.972814 0.222901 -0.0628363
vn 0.940233 -0.330846 0.0806462
vn 0.0322843 -0.97852 0.203609
vn 0.0331993 0.962419 -0.269533
vn 0.304967 -0.930032 0.205026
vn 0.993724 -0.108049 0.0289601
vn 0.423426 -0.882803 0.203392
vn 0.986396 0.157277 -0.0478292
vn 0.150692 -0.925557 0.347328
vn 0.10491 -0.818047 0.565502
vn 0.298029 -0.854279 0.425894
vn 0.951856 -0.255733 0.169032
vn 0.252235 -0.733052 0.631674
vn 0.085811 0.988927 -0.121077
vn 0.0886584 -0.498213 0.86251
vn 0.109652 -0.294236 0.949422
vn 0.13371 -0.150628 0.979506
vn 0.998621 -0.0398391 0.034178
vn 0.903559 -0.245185 0.351375
vn 0.960939 -0.0621074 0.269703
vn 0.546779 -0.3124 0.776814
vn 0.520956 -0.123649 0.84458
vn 0.0943814 -0.676215 0.730633
vn 0.534527 -0.525932 0.661571
vn 0.0737283 0.207471 0.975459
vn 0.146723 0.987336 0.0603411
vn 0.82283 0.54213 -0.170427
vn 0.18488 0.975458 0.119589
vn 0.119806 -0.000327305 0.992797
vn 0.833385 -0.00266428 0.552686
vn 0.436721 0.0440645 0.898517
vn -0.183498 -0.960677 0.208393
vn -0.000121198 -0.87236 -0.488863
vn -0.63328 0.350883 -0.689809
vn -0.917029 -0.398571 -0.0141159
vn -0.00997887 0.405536 -0.914025
vn -0.999807 0.00994023 -0.0169639
vn -0.00701698 0.335633 -0.941967
vn -0.965248 -0.259516 0.0307764
vn -0.421959 -0.803508 0.419911
vn -0.0373256 -0.876386 0.48016
vn 0.00867497 0.408724 -0.912617
vn -0.0077941 -0.876816 0.480763
vn 0.00775601 0.628922 -0.77743
vn 0.0153243 0.549547 -0.835322
vn -0.42593 -0.80217 0.418457
vn -0.0156113 -0.895108 0.445575
vn -0.952013 -0.279355 0.125027
vn -0.610823 0.508853 -0.6066
vn -0.968931 0.238637 0.0649955
vn -0.725942 0.336835 0.599625
vn -0.00933736 0.730191 0.683179
vn -0.704779 0.521091 0.481406
vn -0.00419559 0.641936 0.766746
vn -0.00563984 0.737151 0.675704
vn -0.756031 0.645602 0.107777
vn 0.0093658 0.996275 -0.0857245
vn -0.999997 0.00210136 0.00157864
vn -0.462096 0.826586 -0.321282
vn -0.00121729 0.978052 0.208356
vn -0.42593 -0.80217 0.418457
vn -0.0272966 0.958419 -0.284056
vn -0.023208 -0.90139 0.432385
vn 0.00378236 -0.923147 0.384429
vn -0.990278 -0.127336 0.0559915
vn -0.999985 0.00264535 0.00488285
vn -0.727171 -0.653966 0.208687
vn -0.998012 0.0622758 -0.00970803
vn -0.0316682 -0.960214 0.277463
vn -0.0301495 -0.882514 0.469318
vn -0.0246741 -0.74303 0.668803
vn -0.989163 -0.0868134 0.118407
vn -0.341691 -0.377022 0.860873
vn -0.481021 -0.271613 0.833574
vn -0.987899 -0.0155705 0.154317
vn -0.0645861 -0.550035 0.83264
vn -0.618623 0.055493 0.783726
vn -0.318506 0.935141 0.15513
vn -0.0876331 0.995671 0.030974
vn -0.608234 0.0651531 0.791079
vn 0.00932865 0.3743 0.927261
vn -0.553834 0.0381243 0.831754
vn 0.00237019 -0.874093 -0.485752
vn 0.0336325 -0.960186 0.277329
vn 0.00486154 -0.87581 -0.482632
vn 0.624361 -0.717086 0.309775
vn 0.993637 -0.111715 -0.0143371
vn 0.999962 -0.00782868 -0.00373194
vn 0.999975 0.00229059 -0.00666082
vn 0.999992 -0.00310678 -0.00231175
vn 0.118922 0.60046 0.790763
vn 0.839573 0.543003 0.0162839
vn 0.970668 0.232096 0.0627331
vn 0.396611 0.363434 0.84298
vn 0.588587 0.607053 0.533902
vn 0.952215 -0.275942 0.130932
vn 0.902801 0.429995 0.00742615
vn 0.919351 0.365496 -0.145624
vn 0.899131 0.387701 -0.203107
vn 0.967811 0.194214 -0.16007
vn 0.957233 -0.273585 0.0941061
vn 0.999518 0.0293928 -0.00996162
vn 0.479066 -0.828633 0.289592
vn 0.898458 -0.413869 0.146581
vn 0.854468 -0.49395 0.160928
vn 0.881408 0.457131 -0.11896
vn 0.957783 -0.26877 0.102049
vn 0.886542 -0.394994 0.240878
vn 0.858703 -0.391745 0.330402
vn 0.847195 0.515681 -0.127807
vn 0.346383 0.937214 -0.0405889
vn 0.96741 0.0159697 0.252713
vn 0.149603 0.32377 0.934233
vn 0.801426 0.0592569 0.595151
g grp1
usemtl mtl1
f 57//57 1//1 61//61 
f 12//12 8//8 139//139 
f 140//140 190//190 58//58 
f 191//191 12//12 139//139 
f 2//2 141//141 5//5 
f 2//2 5//5 3//3 
f 146//146 7//7 144//144 
f 4//4 2//2 3//3 
f 61//61 1//1 143//143 
f 61//61 143//143 145//145 
f 146//146 142//142 6//6 
f 8//8 10//10 6//6 
f 139//139 8//8 6//6 
f 9//9 11//11 7//7 
f 9//9 7//7 6//6 
f 6//6 7//7 146//146 
f 6//6 10//10 9//9 
f 12//12 148//148 9//9 
f 8//8 12//12 10//10 
f 12//12 9//9 10//10 
f 14//14 4//4 3//3 
f 61//61 145//145 149//149 
f 15//15 7//7 11//11 
f 12//12 150//150 148//148 
f 18//18 14//14 13//13 
f 13//13 14//14 3//3 
f 71//71 65//65 149//149 
f 71//71 149//149 152//152 
f 17//17 16//16 18//18 
f 18//18 13//13 17//17 
f 13//13 144//144 17//17 
f 144//144 25//25 17//17 
f 144//144 7//7 25//25 
f 15//15 19//19 7//7 
f 72//72 151//151 21//21 
f 16//16 17//17 20//20 
f 20//20 17//17 22//22 
f 16//16 20//20 156//156 
f 157//157 20//20 22//22 
f 158//158 160//160 23//23 
f 198//198 159//159 161//161 
f 23//23 160//160 24//24 
f 17//17 25//25 22//22 
f 198//198 161//161 82//82 
f 82//82 161//161 162//162 
f 25//25 7//7 29//29 
f 147//147 153//153 168//168 
f 24//24 160//160 28//28 
f 28//28 160//160 163//163 
f 26//26 28//28 163//163 
f 163//163 27//27 26//26 
f 30//30 26//26 27//27 
f 169//169 81//81 164//164 
f 82//82 162//162 167//167 
f 81//81 167//167 164//164 
f 167//167 80//80 82//82 
f 80//80 167//167 81//81 
f 101//101 154//154 67//67 
f 25//25 29//29 165//165 
f 168//168 153//153 33//33 
f 172//172 155//155 31//31 
f 154//154 101//101 170//170 
f 165//165 29//29 172//172 
f 169//169 166//166 35//35 
f 165//165 172//172 173//173 
f 169//169 34//34 103//103 
f 31//31 32//32 172//172 
f 101//101 171//171 170//170 
f 107//107 171//171 101//101 
f 34//34 169//169 35//35 
f 172//172 36//36 173//173 
f 172//172 32//32 36//36 
f 107//107 37//37 171//171 
f 38//38 34//34 35//35 
f 173//173 36//36 175//175 
f 32//32 174//174 36//36 
f 111//111 34//34 38//38 
f 103//103 34//34 111//111 
f 174//174 40//40 36//36 
f 37//37 112//112 176//176 
f 112//112 116//116 176//176 
f 175//175 48//48 49//49 
f 36//36 39//39 175//175 
f 40//40 41//41 39//39 
f 36//36 40//40 39//39 
f 41//41 48//48 39//39 
f 39//39 48//48 175//175 
f 48//48 41//41 42//42 
f 116//116 177//177 176//176 
f 117//117 178//178 177//177 
f 116//116 117//117 177//177 
f 49//49 51//51 175//175 
f 111//111 38//38 121//121 
f 186//186 121//121 38//38 
f 49//49 48//48 54//54 
f 45//45 55//55 189//189 
f 46//46 43//43 48//48 
f 48//48 179//179 44//44 
f 180//180 183//183 47//47 
f 180//180 47//47 181//181 
f 48//48 44//44 54//54 
f 54//54 44//44 182//182 
f 181//181 47//47 45//45 
f 45//45 47//47 55//55 
f 47//47 123//123 55//55 
f 124//124 55//55 123//123 
f 47//47 183//183 122//122 
f 47//47 122//122 123//123 
f 178//178 130//130 183//183 
f 48//48 42//42 46//46 
f 122//122 183//183 130//130 
f 50//50 51//51 49//49 
f 49//49 54//54 50//50 
f 189//189 53//53 184//184 
f 186//186 185//185 52//52 
f 187//187 184//184 53//53 
f 188//188 53//53 132//132 
f 53//53 189//189 55//55 
f 55//55 124//124 136//136 
f 56//56 53//53 55//55 
f 56//56 55//55 136//136 
f 56//56 136//136 132//132 
f 53//53 56//56 132//132 
f 63//63 12//12 191//191 
f 57//57 61//61 59//59 
f 58//58 190//190 192//192 
f 193//193 63//63 191//191 
f 61//61 60//60 59//59 
f 193//193 194//194 64//64 
f 61//61 62//62 60//60 
f 194//194 195//195 64//64 
f 193//193 69//69 63//63 
f 193//193 64//64 69//69 
f 61//61 66//66 62//62 
f 195//195 196//196 68//68 
f 64//64 195//195 68//68 
f 63//63 150//150 12//12 
f 64//64 68//68 69//69 
f 65//65 71//71 66//66 
f 71//71 70//70 66//66 
f 61//61 149//149 65//65 
f 65//65 66//66 61//61 
f 67//67 154//154 150//150 
f 63//63 67//67 150//150 
f 69//69 67//67 63//63 
f 71//71 152//152 151//151 
f 197//197 68//68 196//196 
f 69//69 79//79 67//67 
f 69//69 68//68 203//203 
f 198//198 82//82 76//76 
f 76//76 82//82 77//77 
f 73//73 77//77 82//82 
f 71//71 151//151 72//72 
f 77//77 73//73 84//84 
f 71//71 74//74 70//70 
f 197//197 200//200 78//78 
f 197//197 78//78 68//68 
f 71//71 72//72 74//74 
f 200//200 75//75 78//78 
f 75//75 200//200 199//199 
f 76//76 201//201 198//198 
f 77//77 201//201 76//76 
f 202//202 201//201 77//77 
f 84//84 202//202 77//77 
f 79//79 92//92 67//67 
f 68//68 92//92 203//203 
f 80//80 73//73 82//82 
f 80//80 83//83 73//73 
f 83//83 80//80 81//81 
f 83//83 81//81 88//88 
f 88//88 81//81 169//169 
f 73//73 83//83 85//85 
f 85//85 83//83 88//88 
f 84//84 73//73 85//85 
f 85//85 202//202 84//84 
f 202//202 85//85 86//86 
f 78//78 86//86 68//68 
f 86//86 87//87 68//68 
f 204//204 86//86 85//85 
f 86//86 204//204 87//87 
f 88//88 169//169 90//90 
f 204//204 205//205 87//87 
f 87//87 205//205 89//89 
f 87//87 89//89 105//105 
f 92//92 101//101 67//67 
f 87//87 91//91 68//68 
f 68//68 91//91 92//92 
f 169//169 93//93 90//90 
f 205//205 94//94 89//89 
f 89//89 94//94 105//105 
f 205//205 95//95 94//94 
f 91//91 87//87 97//97 
f 91//91 97//97 92//92 
f 87//87 105//105 97//97 
f 93//93 169//169 103//103 
f 95//95 90//90 93//93 
f 95//95 93//93 103//103 
f 92//92 97//97 101//101 
f 95//95 103//103 98//98 
f 96//96 95//95 98//98 
f 95//95 96//96 94//94 
f 99//99 96//96 206//206 
f 96//96 99//99 94//94 
f 94//94 99//99 105//105 
f 103//103 100//100 98//98 
f 206//206 207//207 99//99 
f 104//104 100//100 103//103 
f 207//207 209//209 99//99 
f 99//99 209//209 105//105 
f 97//97 102//102 101//101 
f 97//97 105//105 208//208 
f 105//105 106//106 208//208 
f 106//106 105//105 108//108 
f 106//106 108//108 109//109 
f 102//102 210//210 101//101 
f 208//208 106//106 211//211 
f 106//106 109//109 211//211 
f 108//108 103//103 213//213 
f 103//103 108//108 104//104 
f 105//105 209//209 108//108 
f 107//107 110//110 37//37 
f 211//211 109//109 212//212 
f 108//108 213//213 115//115 
f 108//108 115//115 109//109 
f 112//112 37//37 110//110 
f 109//109 112//112 212//212 
f 109//109 114//114 112//112 
f 109//109 113//113 214//214 
f 109//109 115//115 113//113 
f 217//217 115//115 213//213 
f 119//119 115//115 125//125 
f 130//130 178//178 117//117 
f 114//114 116//116 112//112 
f 118//118 117//117 116//116 
f 118//118 120//120 117//117 
f 131//131 130//130 120//120 
f 120//120 130//130 117//117 
f 113//113 115//115 119//119 
f 113//113 119//119 214//214 
f 214//214 119//119 215//215 
f 114//114 118//118 116//116 
f 215//215 119//119 216//216 
f 131//131 216//216 119//119 
f 133//133 121//121 186//186 
f 115//115 217//217 134//134 
f 121//121 133//133 218//218 
f 115//115 219//219 127//127 
f 127//127 137//137 129//129 
f 131//131 128//128 122//122 
f 129//129 123//123 128//128 
f 128//128 123//123 122//122 
f 129//129 124//124 123//123 
f 125//125 126//126 119//119 
f 115//115 127//127 125//125 
f 125//125 127//127 126//126 
f 128//128 126//126 127//127 
f 126//126 128//128 131//131 
f 129//129 128//128 127//127 
f 130//130 131//131 122//122 
f 119//119 126//126 131//131 
f 186//186 52//52 133//133 
f 135//135 133//133 52//52 
f 220//220 188//188 132//132 
f 127//127 219//219 137//137 
f 135//135 218//218 133//133 
f 219//219 221//221 137//137 
f 138//138 136//136 129//129 
f 124//124 129//129 136//136 
f 220//220 132//132 138//138 
f 136//136 138//138 132//132 
f 138//138 129//129 137//137 
f 138//138 137//137 221//221 
