#
# Compatibility version : brain5.0i
# File ID : FJ3819
# Representation ID : BP58351
# Build-up logic : FMA 3.2.1-inference is_a
# Concept ID : FMA61975
# English name : Lamina terminalis
# Bounds(mm): (-0.656400,-109.643800,1539.530000)-(0.749300,-102.324400,1551.418300)
# Volume(cm3): 0.041600
#
v -0.573534 -109.611 1539.55
v -0.6497 -109.231 1539.83
v -0.649345 -109.23 1540.03
v -0.585606 -109.527 1539.74
v -0.639534 -109.466 1539.71
v -0.646463 -106.73 1540.82
v -0.631812 -105.874 1541.16
v -0.652462 -108.006 1541.76
v -0.654722 -105.437 1541.7
v -0.644208 -104.984 1542.19
v -0.6497 -104.826 1542.04
v -0.656408 -105.126 1542.73
v -0.643169 -105.195 1542.4
v -0.656408 -104.784 1543.92
v -0.644709 -105.67 1546.91
v -0.612253 -103.346 1547.28
v -0.648375 -105.184 1548.08
v -0.646131 -102.889 1549.23
v -0.469416 -102.422 1550.11
v -0.642251 -104.719 1550.46
v -0.602149 -104.696 1550.76
v -0.638475 -102.45 1550.37
v -0.628986 -104.065 1551.14
v -0.653736 -102.692 1550.98
v -0.645113 -102.405 1551.18
v -0.632931 -102.688 1551.25
v -0.628891 -103.174 1551.29
v -0.484773 -109.234 1539.77
v -0.469971 -108.707 1539.99
v -0.550164 -109.558 1539.75
v -0.367603 -109.599 1539.72
v -0.447924 -106.374 1540.84
v -0.48596 -106.943 1540.59
v -0.5543 -108.413 1541.79
v -0.472018 -104.91 1541.92
v -0.5543 -104.701 1542.14
v -0.5543 -104.879 1542.2
v -0.346128 -104.787 1542.18
v -0.474786 -105.005 1542.49
v -0.5543 -104.962 1542.98
v -0.346738 -104.722 1543.69
v -0.5543 -104.559 1544.12
v -0.16721 -104.353 1544.67
v -0.5543 -103.549 1546.54
v -0.4589 -105.763 1547.38
v -0.488846 -105.304 1548.74
v -0.523597 -102.644 1549.27
v -0.384586 -105.12 1549.91
v -0.551055 -105.003 1550.21
v -0.548666 -104.912 1550.51
v -0.40911 -105.021 1550.33
v -0.426309 -104.946 1550.53
v -0.455721 -104.806 1550.76
v -0.34073 -104.744 1550.85
v -0.225122 -104.854 1550.7
v -0.514729 -102.346 1550.72
v -0.547604 -104.087 1551.25
v -0.550829 -103.643 1551.35
v -0.389963 -104.39 1551.13
v -0.394561 -103.948 1551.32
v -0.550288 -104.521 1551.01
v -0.441756 -104.662 1550.93
v -0.508411 -102.337 1551.08
v -0.5543 -102.371 1551.3
v -0.386419 -102.341 1551.23
v -0.342838 -102.469 1551.34
v -0.425665 -102.76 1551.39
v -0.551457 -103.037 1551.38
v -0.378273 -103.5 1551.4
v 0.5905 -109.616 1539.53
v 0.622638 -109.168 1539.81
v 0.749104 -109.149 1539.87
v 0.6859 -108.684 1540.01
v 0.684041 -109.517 1539.63
v 0.714197 -109.584 1539.64
v 0.633057 -109.607 1539.65
v 0.746055 -109.451 1539.71
v 0.6859 -109.57 1539.74
v 0.748218 -109.414 1539.89
v 0.498815 -107.493 1540.39
v 0.749252 -108.103 1540.31
v 0.749252 -108.849 1540.82
v 0.632409 -106.365 1540.84
v 0.736325 -106.476 1540.89
v 0.6859 -106.821 1540.63
v 0.6859 -108.496 1541.73
v 0.591808 -105.812 1541.2
v 0.6859 -104.689 1542.11
v 0.3043 -104.783 1542.19
v 0.737575 -104.825 1542.05
v 0.749252 -104.891 1542.16
v 0.6859 -104.871 1542.23
v 0.5905 -104.921 1542.77
v 0.749252 -105.021 1542.4
v 0.749252 -105.008 1542.79
v 0.638144 -104.632 1543.79
v 0.743431 -104.673 1544.1
v 0.175932 -104.335 1544.51
v 0.524782 -103.743 1545.91
v 0.744763 -105.783 1546.72
v 0.6859 -106.013 1546.84
v 0.543797 -103.304 1547.03
v 0.680107 -103.45 1546.7
v 0.744542 -103.521 1547.17
v 0.745301 -105.114 1548.7
v 0.6859 -105.28 1548.93
v 0.681285 -105.161 1549.46
v 0.540832 -105.089 1549.97
v 0.620269 -102.486 1549.78
v 0.730157 -102.515 1549.83
v 0.270199 -104.94 1550.51
v 0.549705 -104.777 1550.76
v 0.727627 -104.841 1550.23
v 0.743783 -104.676 1550.57
v 0.6859 -104.873 1550.6
v 0.6859 -104.682 1550.86
v 0.746249 -102.636 1550.29
v 0.731443 -102.392 1550.55
v 0.745872 -102.464 1550.72
v 0.600221 -102.334 1550.77
v 0.741478 -102.393 1550.88
v 0.746783 -102.454 1551
v 0.534047 -104.368 1551.13
v 0.742348 -104.383 1550.95
v 0.742354 -103.896 1551.21
v 0.627213 -104.083 1551.26
v 0.192106 -104.651 1550.94
v 0.580348 -104.644 1550.92
v 0.6859 -104.538 1551.01
v 0.186761 -102.363 1551.25
v 0.582757 -102.341 1551.07
v 0.691824 -102.348 1551.06
v 0.741272 -102.413 1551.18
v 0.748183 -102.589 1551.21
v 0.644889 -102.379 1551.28
v 0.728726 -102.494 1551.29
v 0.650563 -102.513 1551.34
v 0.486104 -102.847 1551.4
v 0.744239 -103.117 1551.26
v 0.717463 -103.445 1551.37
v 0.620155 -103.567 1551.39
v 0.649 -103.229 1551.41
v -0.573534 -109.611 1539.55
v -0.573534 -109.611 1539.55
v -0.573534 -109.611 1539.55
v -0.6497 -109.231 1539.83
v -0.6497 -109.231 1539.83
v -0.639534 -109.466 1539.71
v -0.646463 -106.73 1540.82
v -0.631812 -105.874 1541.16
v -0.631812 -105.874 1541.16
v -0.644208 -104.984 1542.19
v -0.6497 -104.826 1542.04
v -0.6497 -104.826 1542.04
v -0.656408 -105.126 1542.73
v -0.643169 -105.195 1542.4
v -0.643169 -105.195 1542.4
v -0.602149 -104.696 1550.76
v -0.638475 -102.45 1550.37
v -0.645113 -102.405 1551.18
v -0.645113 -102.405 1551.18
v -0.632931 -102.688 1551.25
v -0.550164 -109.558 1539.75
v -0.447924 -106.374 1540.84
v -0.48596 -106.943 1540.59
v -0.5543 -108.413 1541.79
v -0.5543 -104.701 1542.14
v -0.5543 -104.879 1542.2
v -0.474786 -105.005 1542.49
v -0.474786 -105.005 1542.49
v -0.474786 -105.005 1542.49
v -0.5543 -104.962 1542.98
v -0.5543 -104.559 1544.12
v -0.5543 -103.549 1546.54
v -0.4589 -105.763 1547.38
v -0.488846 -105.304 1548.74
v -0.523597 -102.644 1549.27
v -0.523597 -102.644 1549.27
v -0.551055 -105.003 1550.21
v -0.548666 -104.912 1550.51
v -0.547604 -104.087 1551.25
v -0.550829 -103.643 1551.35
v -0.550288 -104.521 1551.01
v -0.5543 -102.371 1551.3
v 0.5905 -109.616 1539.53
v 0.749104 -109.149 1539.87
v 0.714197 -109.584 1539.64
v 0.714197 -109.584 1539.64
v 0.746055 -109.451 1539.71
v 0.6859 -109.57 1539.74
v 0.749252 -108.849 1540.82
v 0.632409 -106.365 1540.84
v 0.6859 -106.821 1540.63
v 0.6859 -108.496 1541.73
v 0.591808 -105.812 1541.2
v 0.6859 -104.689 1542.11
v 0.6859 -104.689 1542.11
v 0.6859 -104.689 1542.11
v 0.6859 -104.689 1542.11
v 0.737575 -104.825 1542.05
v 0.749252 -104.891 1542.16
v 0.6859 -104.871 1542.23
v 0.6859 -104.871 1542.23
v 0.5905 -104.921 1542.77
v 0.749252 -105.021 1542.4
v 0.749252 -105.008 1542.79
v 0.638144 -104.632 1543.79
v 0.6859 -106.013 1546.84
v 0.680107 -103.45 1546.7
v 0.744542 -103.521 1547.17
v 0.6859 -105.28 1548.93
v 0.681285 -105.161 1549.46
v 0.620269 -102.486 1549.78
v 0.620269 -102.486 1549.78
v 0.620269 -102.486 1549.78
v 0.620269 -102.486 1549.78
v 0.730157 -102.515 1549.83
v 0.730157 -102.515 1549.83
v 0.6859 -104.873 1550.6
v 0.6859 -104.682 1550.86
v 0.746249 -102.636 1550.29
v 0.731443 -102.392 1550.55
v 0.731443 -102.392 1550.55
v 0.745872 -102.464 1550.72
v 0.745872 -102.464 1550.72
v 0.600221 -102.334 1550.77
v 0.741478 -102.393 1550.88
v 0.742354 -103.896 1551.21
v 0.627213 -104.083 1551.26
v 0.6859 -104.538 1551.01
v 0.186761 -102.363 1551.25
v 0.691824 -102.348 1551.06
v 0.741272 -102.413 1551.18
v 0.728726 -102.494 1551.29
v 0.717463 -103.445 1551.37
v 0.649 -103.229 1551.41
vn -0.724762 -0.646644 0.23785
vn -0.250349 0.380971 -0.890049
vn -0.985942 -0.142478 0.0872884
vn -0.72406 -0.626196 0.289164
vn -0.410801 0.486118 -0.771319
vn -0.58849 0.317605 -0.74351
vn -0.5207 0.317461 -0.792521
vn -0.998423 -0.0499992 0.025535
vn -0.999643 0.01777 -0.0199481
vn -0.999772 0.000194123 0.0213737
vn -0.999225 0.0252898 -0.0301716
vn -0.999754 0.00580972 -0.021424
vn -0.999965 0.00715544 -0.00443242
vn -0.937063 0.328801 -0.117484
vn -0.963061 -0.249426 0.101494
vn -0.841305 0.512649 -0.171455
vn -0.972221 -0.228029 0.0528063
vn -0.984909 0.164664 -0.0532955
vn -0.170539 0.969122 -0.178099
vn -0.97071 -0.22266 0.0902513
vn -0.937632 -0.2659 0.223926
vn -0.459683 0.878243 -0.131834
vn -0.935519 -0.136412 0.325878
vn -0.999586 0.0030193 0.0286126
vn -0.999436 0.0072682 0.03279
vn -0.99705 -0.0130042 0.0756509
vn -0.915919 -0.018164 0.400952
vn -0.190548 0.446241 -0.874391
vn -0.0848916 0.344563 -0.934917
vn -0.652751 -0.686442 0.320491
vn -0.0460559 -0.951836 0.303129
vn -0.555205 0.335618 -0.760992
vn -0.0337131 0.342284 -0.938992
vn -0.88025 -0.413483 0.232793
vn -0.0890691 0.655575 -0.749859
vn -0.107256 0.692586 -0.713316
vn -0.353781 0.403787 0.843679
vn -0.0321289 0.360065 0.932374
vn -0.737143 0.503184 0.451028
vn -0.719929 0.668149 -0.187826
vn -0.125433 0.943662 -0.306216
vn -0.805713 0.552611 -0.213183
vn -0.0839698 0.928388 -0.362002
vn -0.723576 0.646446 -0.24196
vn -0.0261313 -0.927156 0.373763
vn -0.837996 -0.526596 0.143036
vn -0.499266 0.823991 -0.267903
vn -0.120249 -0.973957 0.192219
vn -0.885292 -0.454798 0.097043
vn -0.905236 -0.401065 0.140336
vn -0.144797 -0.947921 0.283688
vn -0.118355 -0.897226 0.425414
vn -0.251329 -0.78699 0.563454
vn -0.0157218 -0.763448 0.645678
vn 0.0142296 -0.837001 0.547016
vn -0.287019 0.95508 -0.0737772
vn -0.800464 -0.21639 0.558956
vn -0.808602 -0.082357 0.582563
vn -0.0690485 -0.491857 0.867934
vn -0.0754799 -0.269597 0.960011
vn -0.845111 -0.279357 0.455793
vn -0.207942 -0.669833 0.7128
vn -0.2037 0.978493 0.0325228
vn -0.177332 0.961867 0.208242
vn -0.0157164 0.985429 0.169357
vn -0.00891543 0.367967 0.929796
vn -0.118594 0.0940591 0.988478
vn -0.515699 0.0272764 0.856335
vn -0.0778717 -0.0557695 0.995402
vn 0.344595 0.426297 -0.836376
vn 0.214696 0.455194 -0.86412
vn 0.410864 0.359495 -0.837827
vn 0.283845 0.333169 -0.899128
vn 0.538923 0.351709 -0.765416
vn 0.641776 0.219746 -0.734735
vn 0.145682 -0.975266 0.166229
vn 0.48242 0.384925 -0.786832
vn 0.0717822 -0.913935 0.399462
vn 0.948581 -0.291346 0.123744
vn 0.014006 0.317382 -0.948194
vn 0.930188 0.132323 -0.342405
vn 0.999999 0.00103962 -0.00115136
vn 0.00297097 0.485418 -0.874277
vn 0.910889 0.219848 -0.34921
vn 0.011346 0.368583 -0.929526
vn -0.0380283 -0.889369 0.455606
vn -7.54621e-06 0.582649 -0.812724
vn -0.00834681 0.672685 -0.739882
vn 0.000294039 0.607999 0.793938
vn 0.603163 0.468186 -0.645752
vn 0.995465 0.0951247 -0.00101745
vn 0.0638392 0.625721 0.77743
vn -0.0787809 0.992172 -0.0968951
vn 0.657828 0.729374 0.187819
vn 0.999997 0.00225247 0.0012064
vn 0.024181 0.934729 -0.354538
vn 0.949826 0.296623 -0.0992193
vn -0.155294 0.931686 -0.328398
vn -0.00663866 0.927022 -0.374949
vn 0.988267 -0.139418 0.0623788
vn -0.0313189 -0.924825 0.379102
vn 0.0705531 0.942505 -0.32666
vn 0.199879 0.918867 -0.340193
vn 0.995472 0.0913076 -0.0264177
vn 0.991458 -0.124935 0.0374468
vn 0.0716317 -0.972257 0.222678
vn 0.4638 -0.851456 0.244772
vn 0.28086 -0.931642 0.230567
vn 0.0659079 0.968494 -0.240158
vn 0.390626 0.861798 -0.323598
vn 0.0400374 -0.912788 0.406466
vn 0.0642328 -0.808907 0.584417
vn 0.952752 -0.296454 0.0661663
vn 0.983978 -0.156748 0.0849499
vn 0.0917943 -0.876899 0.471828
vn 0.129541 -0.762191 0.634259
vn 0.998707 0.041913 -0.0287657
vn 0.980364 0.167828 -0.103538
vn 0.999348 0.0344063 -0.0109028
vn 0.129219 0.988849 -0.0740222
vn 0.513444 0.830025 -0.217793
vn 0.978561 0.205272 0.016802
vn 0.0619079 -0.506277 0.860146
vn 0.952038 -0.163375 0.258711
vn 0.997666 -0.00674642 0.0679484
vn 0.0641847 -0.376295 0.924274
vn 0.0225609 -0.686227 0.727037
vn 0.0793181 -0.729537 0.679326
vn 0.103511 -0.60692 0.787993
vn 0.00758167 0.983694 0.179689
vn 0.032074 0.995235 0.0920835
vn 0.293763 0.95278 0.0769029
vn 0.632482 0.690785 0.350404
vn 0.996865 0.0239109 0.0754223
vn 0.286899 0.778433 0.558329
vn 0.982384 0.0397727 0.182594
vn 0.351894 0.184598 0.917657
vn 0.033616 0.091979 0.995193
vn 0.945414 0.019816 0.325267
vn 0.907371 0.0584992 0.41624
vn 0.265582 -0.173459 0.948355
vn 0.126149 -0.00182939 0.99201
vn -0.499915 0.522975 -0.690349
vn -0.090126 -0.980624 0.173934
vn -0.00321827 0.520856 -0.853639
vn -0.999877 -0.0157069 0.000338423
vn -0.651913 0.27997 -0.704717
vn -0.908893 -0.376004 0.180372
vn -0.999386 0.0167352 -0.0307933
vn -0.994884 0.0538073 -0.085497
vn -0.0791412 0.600355 -0.795808
vn -0.726038 0.424098 0.541303
vn -0.209587 0.647152 -0.732986
vn -0.843052 0.342137 0.414976
vn -0.674651 0.712761 -0.191878
vn -0.755985 0.466565 0.459134
vn -0.695173 0.69736 -0.174426
vn -0.498031 -0.668399 0.552457
vn -0.980419 0.185699 -0.065527
vn -0.476055 0.879403 -0.00474147
vn -0.810397 0.118568 0.573759
vn -0.771456 0.0769963 0.631607
vn -0.151149 -0.911482 0.382562
vn -0.00227024 0.477724 -0.878507
vn -0.620881 0.316842 -0.71702
vn -0.0361919 -0.884341 0.465436
vn -0.312108 0.457966 0.832379
vn -0.0955272 0.899026 0.427349
vn -0.697265 0.695533 -0.173367
vn -0.00746414 0.806274 0.591496
vn -0.075682 0.997082 -0.0100005
vn -0.0886595 0.961608 -0.25971
vn 0.0392928 0.932968 -0.357809
vn -0.0303279 0.935895 -0.35097
vn -0.812807 -0.541815 0.213964
vn -0.108878 -0.962638 0.24794
vn -0.873752 0.463329 -0.14793
vn -0.158039 0.951966 -0.262266
vn -0.324726 -0.92032 0.218091
vn -0.370041 -0.842924 0.390575
vn -0.202932 -0.36348 0.909231
vn -0.219019 -0.142175 0.965307
vn -0.303408 -0.581868 0.754569
vn -0.420893 0.218135 0.880492
vn 0.0885622 -0.995274 0.0398316
vn 0.999991 -0.00253858 -0.00353987
vn 0.278842 -0.955207 0.0991297
vn 0.86938 -0.380845 0.314858
vn 0.949957 -0.282781 0.132727
vn 0.840696 -0.476718 0.256845
vn 0.81103 -0.50993 0.286707
vn 0.677511 0.404768 -0.614119
vn 0.826002 0.233888 -0.512852
vn 0.914902 -0.357936 0.186645
vn 0.632411 0.45409 -0.627581
vn 0.0288289 0.612583 0.78988
vn 0.537942 0.503806 -0.675868
vn 0.943241 0.321123 0.0847134
vn 0.728324 0.390658 0.562965
vn 0.982216 0.18763 0.00680889
vn 0.686376 0.546982 0.479269
vn 0.734647 0.556635 0.387881
vn -0.098026 0.992308 0.0756063
vn 0.618428 0.785191 -0.031965
vn 1 0 0
vn 0.580873 0.799432 -0.153281
vn 0.703303 0.676759 -0.217628
vn 0.974835 -0.205795 0.0857071
vn 0.923054 0.361221 -0.132255
vn 0.390626 0.861798 -0.323598
vn 0.961345 -0.265041 0.0746253
vn 0.935883 -0.341921 0.0849268
vn 0.944451 0.318406 -0.08142
vn 0.390626 0.861798 -0.323598
vn 0.134315 0.959462 0.247775
vn 0.95816 0.232635 -0.166766
vn 0.997851 0.0628974 -0.0183781
vn 0.134315 0.959462 0.247775
vn 0.913834 -0.392351 0.104726
vn 0.94641 -0.249198 0.205446
vn 0.134315 0.959462 0.247775
vn 0.181055 0.9728 -0.144495
vn 0.687765 0.690452 0.224177
vn 0.687765 0.690452 0.224177
vn 0.56763 0.754479 -0.329481
vn 0.687765 0.690452 0.224177
vn 0.969359 0.233398 0.0766042
vn 0.641764 -0.25333 0.723853
vn 0.759464 -0.21692 0.613319
vn 0.910776 -0.200433 0.36099
vn 0.0145813 0.633501 0.773604
vn 0.895729 0.443174 0.0355915
vn 0.978011 0.206224 0.031101
vn 0.580799 0.305608 0.754504
vn 0.437751 -0.167475 0.883361
vn 0.80055 0.0928441 0.59203
g grp1
usemtl mtl1
f 1//1 30//30 4//4 
f 28//28 2//2 29//29 
f 2//2 33//33 29//29 
f 28//28 143//143 5//5 
f 1//1 4//4 148//148 
f 30//30 34//34 4//4 
f 28//28 5//5 2//2 
f 3//3 146//146 148//148 
f 34//34 148//148 4//4 
f 34//34 3//3 148//148 
f 165//165 6//6 32//32 
f 149//149 146//146 8//8 
f 165//165 147//147 6//6 
f 3//3 8//8 146//146 
f 3//3 34//34 8//8 
f 7//7 32//32 6//6 
f 9//9 150//150 149//149 
f 149//149 8//8 9//9 
f 88//88 35//35 36//36 
f 11//11 150//150 9//9 
f 11//11 9//9 10//10 
f 35//35 151//151 153//153 
f 35//35 153//153 36//36 
f 152//152 167//167 154//154 
f 167//167 152//152 37//37 
f 152//152 39//39 37//37 
f 13//13 10//10 9//9 
f 9//9 8//8 13//13 
f 13//13 8//8 12//12 
f 152//152 156//156 39//39 
f 157//157 40//40 169//169 
f 157//157 155//155 40//40 
f 14//14 12//12 8//8 
f 14//14 42//42 40//40 
f 155//155 14//14 40//40 
f 8//8 34//34 15//15 
f 44//44 42//42 14//14 
f 8//8 15//15 14//14 
f 14//14 15//15 18//18 
f 16//16 44//44 14//14 
f 18//18 16//16 14//14 
f 16//16 47//47 44//44 
f 18//18 15//15 17//17 
f 15//15 46//46 17//17 
f 18//18 177//177 16//16 
f 18//18 17//17 24//24 
f 46//46 49//49 17//17 
f 19//19 178//178 22//22 
f 18//18 159//159 177//177 
f 19//19 22//22 56//56 
f 17//17 20//20 24//24 
f 20//20 23//23 24//24 
f 20//20 21//21 23//23 
f 17//17 49//49 20//20 
f 49//49 50//50 20//20 
f 20//20 50//50 21//21 
f 21//21 61//61 23//23 
f 24//24 159//159 18//18 
f 25//25 159//159 24//24 
f 22//22 160//160 56//56 
f 63//63 56//56 160//160 
f 24//24 23//23 27//27 
f 23//23 58//58 27//27 
f 57//57 58//58 23//23 
f 23//23 61//61 57//57 
f 26//26 25//25 24//24 
f 64//64 63//63 160//160 
f 161//161 162//162 184//184 
f 27//27 26//26 24//24 
f 68//68 27//27 58//58 
f 162//162 27//27 68//68 
f 184//184 162//162 68//68 
f 31//31 163//163 144//144 
f 71//71 70//70 145//145 
f 185//185 31//31 144//144 
f 80//80 29//29 33//33 
f 31//31 166//166 163//163 
f 145//145 28//28 71//71 
f 85//85 33//33 164//164 
f 85//85 164//164 83//83 
f 87//87 151//151 35//35 
f 89//89 196//196 167//167 
f 38//38 167//167 37//37 
f 89//89 167//167 38//38 
f 38//38 37//37 89//89 
f 89//89 168//168 170//170 
f 93//93 171//171 172//172 
f 172//172 41//41 98//98 
f 41//41 173//173 43//43 
f 41//41 172//172 173//173 
f 41//41 43//43 98//98 
f 101//101 45//45 166//166 
f 34//34 175//175 15//15 
f 43//43 173//173 174//174 
f 175//175 46//46 15//15 
f 109//109 174//174 178//178 
f 106//106 48//48 176//176 
f 48//48 179//179 176//176 
f 48//48 51//51 179//179 
f 108//108 48//48 106//106 
f 19//19 109//109 178//178 
f 51//51 180//180 179//179 
f 51//51 52//52 180//180 
f 158//158 180//180 53//53 
f 53//53 180//180 52//52 
f 158//158 62//62 183//183 
f 62//62 158//158 53//53 
f 54//54 62//62 53//53 
f 55//55 53//53 52//52 
f 54//54 53//53 55//55 
f 111//111 52//52 51//51 
f 111//111 55//55 52//52 
f 127//127 54//54 55//55 
f 112//112 55//55 111//111 
f 55//55 112//112 127//127 
f 120//120 56//56 63//63 
f 19//19 56//56 120//120 
f 181//181 59//59 60//60 
f 181//181 60//60 182//182 
f 182//182 60//60 69//69 
f 59//59 126//126 60//60 
f 60//60 141//141 69//69 
f 126//126 141//141 60//60 
f 59//59 183//183 62//62 
f 59//59 181//181 183//183 
f 62//62 127//127 59//59 
f 127//127 62//62 54//54 
f 120//120 63//63 65//65 
f 65//65 63//63 64//64 
f 184//184 67//67 66//66 
f 130//130 120//120 65//65 
f 130//130 65//65 64//64 
f 231//231 184//184 66//66 
f 68//68 182//182 69//69 
f 184//184 68//68 67//67 
f 68//68 69//69 67//67 
f 67//67 69//69 138//138 
f 70//70 71//71 74//74 
f 76//76 31//31 185//185 
f 74//74 75//75 70//70 
f 185//185 187//187 76//76 
f 29//29 73//73 28//28 
f 73//73 29//29 80//80 
f 73//73 71//71 28//28 
f 71//71 72//72 77//77 
f 72//72 71//71 73//73 
f 186//186 82//82 79//79 
f 73//73 81//81 72//72 
f 186//186 81//81 82//82 
f 76//76 78//78 31//31 
f 78//78 166//166 31//31 
f 74//74 71//71 77//77 
f 74//74 77//77 75//75 
f 188//188 189//189 190//190 
f 76//76 187//187 78//78 
f 189//189 186//186 79//79 
f 189//189 79//79 190//190 
f 80//80 33//33 85//85 
f 73//73 80//80 85//85 
f 73//73 193//193 81//81 
f 78//78 86//86 166//166 
f 190//190 191//191 194//194 
f 79//79 191//191 190//190 
f 193//193 84//84 81//81 
f 193//193 192//192 84//84 
f 81//81 84//84 82//82 
f 164//164 151//151 87//87 
f 164//164 87//87 83//83 
f 192//192 195//195 84//84 
f 89//89 170//170 92//92 
f 196//196 89//89 92//92 
f 35//35 88//88 87//87 
f 195//195 197//197 90//90 
f 195//195 90//90 84//84 
f 84//84 200//200 91//91 
f 84//84 91//91 82//82 
f 200//200 198//198 91//91 
f 201//201 199//199 202//202 
f 202//202 204//204 94//94 
f 202//202 94//94 201//201 
f 91//91 205//205 82//82 
f 93//93 172//172 96//96 
f 93//93 203//203 171//171 
f 82//82 205//205 95//95 
f 94//94 204//204 206//206 
f 207//207 206//206 204//204 
f 95//95 100//100 82//82 
f 191//191 100//100 194//194 
f 208//208 194//194 100//100 
f 98//98 96//96 172//172 
f 100//100 95//95 97//97 
f 97//97 206//206 207//207 
f 86//86 101//101 166//166 
f 98//98 43//43 99//99 
f 96//96 98//98 99//99 
f 103//103 96//96 99//99 
f 97//97 207//207 209//209 
f 43//43 174//174 99//99 
f 100//100 97//97 104//104 
f 97//97 209//209 104//104 
f 101//101 176//176 45//45 
f 109//109 103//103 102//102 
f 102//102 174//174 109//109 
f 99//99 174//174 102//102 
f 103//103 99//99 102//102 
f 101//101 106//106 176//176 
f 100//100 105//105 211//211 
f 100//100 211//211 208//208 
f 209//209 213//213 104//104 
f 100//100 104//104 105//105 
f 104//104 113//113 105//105 
f 107//107 108//108 106//106 
f 211//211 105//105 113//113 
f 211//211 113//113 212//212 
f 107//107 113//113 108//108 
f 104//104 117//117 113//113 
f 108//108 51//51 48//48 
f 110//110 210//210 214//214 
f 104//104 217//217 117//117 
f 117//117 114//114 113//113 
f 114//114 117//117 124//124 
f 108//108 111//111 51//51 
f 127//127 112//112 128//128 
f 115//115 111//111 108//108 
f 115//115 112//112 111//111 
f 112//112 116//116 128//128 
f 115//115 116//116 112//112 
f 108//108 113//113 219//219 
f 113//113 114//114 219//219 
f 219//219 114//114 220//220 
f 114//114 124//124 220//220 
f 130//130 131//131 120//120 
f 19//19 120//120 109//109 
f 218//218 215//215 221//221 
f 118//118 117//117 216//216 
f 120//120 222//222 109//109 
f 117//117 118//118 119//119 
f 223//223 226//226 224//224 
f 120//120 121//121 225//225 
f 227//227 122//122 119//119 
f 132//132 121//121 120//120 
f 131//131 132//132 120//120 
f 227//227 232//232 122//122 
f 119//119 122//122 134//134 
f 119//119 134//134 139//139 
f 117//117 139//139 125//125 
f 119//119 139//139 117//117 
f 139//139 140//140 125//125 
f 228//228 235//235 141//141 
f 123//123 126//126 59//59 
f 59//59 127//127 123//123 
f 127//127 129//129 123//123 
f 129//129 126//126 123//123 
f 117//117 125//125 124//124 
f 124//124 229//229 230//230 
f 228//228 229//229 124//124 
f 141//141 229//229 228//228 
f 129//129 127//127 128//128 
f 116//116 129//129 128//128 
f 124//124 230//230 220//220 
f 66//66 67//67 138//138 
f 135//135 131//131 130//130 
f 135//135 231//231 66//66 
f 135//135 66//66 137//137 
f 142//142 137//137 138//138 
f 138//138 137//137 66//66 
f 132//132 131//131 135//135 
f 135//135 133//133 132//132 
f 232//232 233//233 122//122 
f 122//122 233//233 134//134 
f 233//233 136//136 134//134 
f 134//134 136//136 139//139 
f 139//139 234//234 137//137 
f 236//236 139//139 137//137 
f 234//234 133//133 135//135 
f 137//137 234//234 135//135 
f 142//142 138//138 69//69 
f 69//69 141//141 142//142 
f 140//140 139//139 236//236 
f 141//141 235//235 142//142 
