#
# Compatibility version : brain5.0i
# File ID : FJ7534M
# Representation ID : BP58107
# Build-up logic : FMA 3.2.1-inference part_of
# Concept ID : FMA72984
# English name : Right anteromedial nucleus
# Bounds(mm): (-7.029100,-96.865800,1548.970000)-(-1.149600,-91.582700,1560.290000)
# Volume(cm3): 0.078800
#
v -4.08612 -92.7896 1552.81
v -3.74111 -92.8064 1552.19
v -3.51263 -91.9702 1552.43
v -1.64491 -92.9176 1551.13
v -1.40733 -92.5179 1550.33
v -1.461 -93.4019 1550.46
v -3.30296 -93.5728 1556.76
v -3.13347 -92.6374 1557.01
v -3.0179 -92.875 1556.27
v -1.65217 -94.274 1549.99
v -1.63999 -93.9377 1551.03
v -7.00558 -91.9351 1557.07
v -6.65047 -93.0574 1557.47
v -6.68931 -92.593 1556.14
v -2.91303 -95.569 1553.59
v -2.7649 -95.0555 1554.4
v -2.51284 -94.9743 1553.22
v -3.32242 -93.9319 1551.3
v -2.79429 -93.5093 1550.5
v -3.1064 -92.8062 1551.44
v -1.84578 -92.3099 1551.88
v -2.71032 -91.5916 1551.87
v -1.63007 -91.8552 1551.15
v -1.17038 -92.0272 1549.59
v -1.23537 -93.1945 1549.68
v -1.94576 -93.3862 1552.01
v -2.26321 -94.3149 1552.63
v -2.28515 -93.4721 1553.08
v -2.54259 -94.1693 1553.79
v -2.48285 -93.2049 1553.87
v -1.9815 -93.5984 1549.61
v -2.49859 -94.2754 1550.5
v -2.47382 -91.5861 1553.5
v -3.31827 -91.6199 1554.12
v -3.08496 -91.5847 1553.04
v -2.63406 -94.5014 1551.41
v -2.81487 -93.8974 1554.77
v -3.06187 -94.7234 1555.39
v -3.14603 -93.9201 1555.92
v -3.25988 -95.6533 1554.88
v -4.37541 -91.849 1553.27
v -5.77664 -94.9647 1556.73
v -5.50333 -95.5732 1557.55
v -5.03689 -95.8288 1556.55
v -4.29605 -93.5761 1552.91
v -4.39818 -94.2711 1553.44
v -3.65783 -94.4603 1552.32
v -3.59986 -94.2827 1557.36
v -3.35345 -94.7474 1556.47
v -3.66107 -95.1752 1557.24
v -3.36203 -95.6469 1555.71
v -5.94274 -93.45 1555.74
v -5.97507 -92.7647 1555.12
v -1.92952 -94.1621 1551.82
v -4.03876 -91.6053 1556.64
v -2.91239 -91.9292 1556.15
v -3.38912 -91.5926 1557.43
v -4.23294 -95.7702 1554.97
v -5.58047 -94.9217 1555.89
v -1.8779 -91.5993 1550.12
v -4.95992 -91.5867 1556.59
v -4.40421 -91.5829 1557.48
v -3.72978 -91.6212 1555.93
v -3.51337 -91.6321 1555.17
v -4.40395 -91.5878 1555.65
v -5.07883 -91.5974 1554.08
v -5.9008 -91.8484 1554.27
v -5.48266 -92.8232 1554.29
v -2.35988 -95.0762 1552.34
v -4.56341 -95.1772 1554.31
v -3.73165 -95.5893 1554.18
v -3.8847 -95.2311 1553.21
v -6.61668 -93.8122 1558.38
v -6.86924 -92.7307 1558.57
v -2.31819 -91.5937 1550.86
v -3.04391 -95.5664 1552.75
v -4.99013 -94.5775 1558.19
v -4.86349 -95.8483 1557.85
v -5.31901 -91.6269 1559.42
v -4.81495 -91.61 1558.83
v -4.30775 -91.9219 1559.48
v -5.71956 -94.2488 1558.67
v -5.23755 -94.2648 1559.46
v -4.75763 -94.2811 1558.84
v -3.53688 -92.6263 1558.02
v -4.00145 -91.5827 1558.42
v -4.32626 -91.6088 1554.54
v -4.3116 -93.6343 1559.06
v -3.95781 -92.7366 1558.79
v -3.68377 -93.5777 1558.13
v -4.46383 -96.8654 1556.07
v -3.50325 -96.6304 1556
v -3.59415 -96.4982 1555.2
v -4.68289 -96.8305 1557.07
v -3.74714 -96.8658 1556.85
v -6.21188 -93.8854 1559.65
v -5.30988 -91.6055 1555.3
v -4.24394 -95.0921 1558
v -3.89026 -95.9983 1557.7
v -2.08282 -91.9634 1552.68
v -3.87976 -93.3968 1552.07
v -6.78395 -92.1541 1559.79
v -6.15748 -91.6496 1559.22
v -5.86064 -91.584 1560.1
v -2.22967 -92.466 1553.3
v -2.61799 -91.9312 1554.79
v -5.66007 -91.6089 1558.49
v -6.9514 -91.8519 1558.72
v -6.4677 -93.1077 1559.35
v -5.40253 -91.5916 1557.43
v -4.89779 -91.587 1558.08
v -6.34947 -91.66 1557.63
v -6.00148 -91.6116 1556.55
v -5.5285 -94.0554 1555.25
v -5.12089 -94.7061 1554.99
v -6.0248 -94.1667 1556.22
v -2.62213 -92.8362 1554.53
v -2.41934 -92.2991 1554.07
v -4.4428 -92.876 1559.42
v -4.8691 -92.7174 1559.97
v -4.12874 -94.2795 1558.26
v -5.19759 -93.4516 1559.81
v -4.25799 -96.8521 1557.66
v -4.59784 -96.0294 1555.65
v -7.0291 -92.1226 1557.95
v -5.26256 -95.3557 1555.31
v -4.71948 -92.9359 1553.68
v -5.33976 -93.3703 1554.76
v -2.91553 -92.863 1555.46
v -5.00378 -94.0625 1554.36
v -3.43694 -95.1898 1552.01
v -3.4074 -93.2656 1557.48
v -2.43614 -92.7199 1550.35
v -2.67719 -92.185 1551.1
v -5.91385 -94.3306 1557.51
v -6.75433 -91.5974 1556.29
v -6.35079 -91.6368 1555.32
v -5.92028 -92.8421 1560.16
v -5.03154 -91.942 1560.29
v -1.82603 -92.6034 1549.48
v -2.09152 -92.7702 1552.59
v -6.34688 -93.5116 1556.59
v -1.25268 -93.4369 1548.97
v -1.33143 -94.2511 1549.27
v -1.14958 -92.6719 1548.97
v -3.50128 -95.9491 1556.66
v -3.51263 -91.9702 1552.43
v -1.40733 -92.5179 1550.33
v -1.40733 -92.5179 1550.33
v -1.65217 -94.274 1549.99
v -1.65217 -94.274 1549.99
v -1.63999 -93.9377 1551.03
v -1.63999 -93.9377 1551.03
v -7.00558 -91.9351 1557.07
v -2.91303 -95.569 1553.59
v -2.91303 -95.569 1553.59
v -2.7649 -95.0555 1554.4
v -2.7649 -95.0555 1554.4
v -3.32242 -93.9319 1551.3
v -3.32242 -93.9319 1551.3
v -3.32242 -93.9319 1551.3
v -1.84578 -92.3099 1551.88
v -1.84578 -92.3099 1551.88
v -2.71032 -91.5916 1551.87
v -2.71032 -91.5916 1551.87
v -2.71032 -91.5916 1551.87
v -2.71032 -91.5916 1551.87
v -1.63007 -91.8552 1551.15
v -1.63007 -91.8552 1551.15
v -1.63007 -91.8552 1551.15
v -1.17038 -92.0272 1549.59
v -1.17038 -92.0272 1549.59
v -2.26321 -94.3149 1552.63
v -2.49859 -94.2754 1550.5
v -2.49859 -94.2754 1550.5
v -2.49859 -94.2754 1550.5
v -2.47382 -91.5861 1553.5
v -2.63406 -94.5014 1551.41
v -2.63406 -94.5014 1551.41
v -2.63406 -94.5014 1551.41
v -2.63406 -94.5014 1551.41
v -3.25988 -95.6533 1554.88
v -3.25988 -95.6533 1554.88
v -4.37541 -91.849 1553.27
v -5.50333 -95.5732 1557.55
v -5.50333 -95.5732 1557.55
v -5.03689 -95.8288 1556.55
v -3.65783 -94.4603 1552.32
v -3.65783 -94.4603 1552.32
v -3.36203 -95.6469 1555.71
v -3.36203 -95.6469 1555.71
v -1.92952 -94.1621 1551.82
v -2.91239 -91.9292 1556.15
v -3.38912 -91.5926 1557.43
v -4.23294 -95.7702 1554.97
v -4.23294 -95.7702 1554.97
v -1.8779 -91.5993 1550.12
v -1.8779 -91.5993 1550.12
v -1.8779 -91.5993 1550.12
v -1.8779 -91.5993 1550.12
v -5.07883 -91.5974 1554.08
v -5.9008 -91.8484 1554.27
v -5.9008 -91.8484 1554.27
v -5.48266 -92.8232 1554.29
v -2.35988 -95.0762 1552.34
v -2.35988 -95.0762 1552.34
v -4.56341 -95.1772 1554.31
v -3.73165 -95.5893 1554.18
v -3.73165 -95.5893 1554.18
v -3.73165 -95.5893 1554.18
v -3.8847 -95.2311 1553.21
v -6.61668 -93.8122 1558.38
v -2.31819 -91.5937 1550.86
v -3.04391 -95.5664 1552.75
v -3.04391 -95.5664 1552.75
v -4.99013 -94.5775 1558.19
v -4.99013 -94.5775 1558.19
v -4.86349 -95.8483 1557.85
v -4.86349 -95.8483 1557.85
v -4.86349 -95.8483 1557.85
v -4.30775 -91.9219 1559.48
v -5.23755 -94.2648 1559.46
v -5.23755 -94.2648 1559.46
v -4.00145 -91.5827 1558.42
v -4.46383 -96.8654 1556.07
v -4.46383 -96.8654 1556.07
v -3.50325 -96.6304 1556
v -3.59415 -96.4982 1555.2
v -3.59415 -96.4982 1555.2
v -3.59415 -96.4982 1555.2
v -4.68289 -96.8305 1557.07
v -3.74714 -96.8658 1556.85
v -6.21188 -93.8854 1559.65
v -6.21188 -93.8854 1559.65
v -4.24394 -95.0921 1558
v -3.89026 -95.9983 1557.7
v -2.08282 -91.9634 1552.68
v -6.78395 -92.1541 1559.79
v -6.78395 -92.1541 1559.79
v -5.86064 -91.584 1560.1
v -5.86064 -91.584 1560.1
v -2.61799 -91.9312 1554.79
v -6.9514 -91.8519 1558.72
v -6.9514 -91.8519 1558.72
v -4.8691 -92.7174 1559.97
v -4.12874 -94.2795 1558.26
v -5.19759 -93.4516 1559.81
v -4.25799 -96.8521 1557.66
v -4.25799 -96.8521 1557.66
v -4.25799 -96.8521 1557.66
v -7.0291 -92.1226 1557.95
v -5.26256 -95.3557 1555.31
v -4.71948 -92.9359 1553.68
v -3.43694 -95.1898 1552.01
v -3.43694 -95.1898 1552.01
v -3.43694 -95.1898 1552.01
v -5.91385 -94.3306 1557.51
v -5.91385 -94.3306 1557.51
v -6.75433 -91.5974 1556.29
v -6.35079 -91.6368 1555.32
v -5.92028 -92.8421 1560.16
v -5.92028 -92.8421 1560.16
v -5.03154 -91.942 1560.29
v -5.03154 -91.942 1560.29
v -5.03154 -91.942 1560.29
v -1.82603 -92.6034 1549.48
v -1.25268 -93.4369 1548.97
v -1.33143 -94.2511 1549.27
v -1.33143 -94.2511 1549.27
v -1.14958 -92.6719 1548.97
v -1.14958 -92.6719 1548.97
vn -0.817931 0.194943 -0.541282
vn -0.774956 0.328486 -0.539944
vn -0.720099 0.329319 -0.610742
vn 0.958262 -0.0260013 0.284706
vn 0.960584 -0.0218289 0.277133
vn 0.967766 -0.124242 0.219074
vn 0.951451 -0.181903 0.248298
vn 0.954066 -0.0849275 0.287307
vn 0.970886 -0.156037 0.18175
vn 0.939535 -0.264064 0.218045
vn 0.964367 -0.0906126 0.248568
vn -0.95893 -0.228582 -0.167937
vn -0.919165 -0.370974 -0.132341
vn -0.899428 -0.273658 -0.340795
vn 0.833355 -0.552581 0.013171
vn 0.937086 -0.221562 0.269777
vn 0.905602 -0.396463 0.150672
vn -0.795249 0.219231 -0.565258
vn -0.801358 0.0284144 -0.597509
vn -0.778052 0.319275 -0.541016
vn 0.529251 0.641125 0.555744
vn 0.529251 0.641125 0.555744
vn 0.529251 0.641125 0.555744
vn 0.981583 -0.041036 0.186577
vn 0.975371 -0.125151 0.181626
vn 0.947499 -0.0639291 0.313302
vn 0.977211 -0.111981 0.180329
vn 0.958196 -0.0984129 0.268656
vn 0.96226 -0.0946282 0.255149
vn 0.956065 -0.107279 0.272819
vn -0.711741 -0.21211 -0.669652
vn -0.635708 -0.391382 -0.665354
vn 0.131505 0.991308 -0.00389372
vn 0.0407114 0.99861 0.033461
vn -0.0645714 0.989319 -0.130688
vn 0.448361 -0.890708 -0.0749151
vn 0.955297 -0.0822687 0.283971
vn 0.945998 -0.182412 0.267981
vn 0.964828 -0.116915 0.235454
vn 0.908374 -0.331729 0.254581
vn -0.0987609 0.975584 -0.196168
vn -0.884775 -0.454593 -0.102562
vn -0.878767 -0.47362 -0.0587493
vn -0.844429 -0.513681 -0.151892
vn -0.876532 -0.0745238 -0.475539
vn -0.843596 -0.245037 -0.47781
vn -0.855133 -0.256659 -0.450415
vn 0.893536 -0.212418 0.395565
vn 0.959017 -0.111456 0.260507
vn 0.891571 -0.0536475 0.449693
vn 0.979774 -0.178327 0.0907884
vn -0.818871 -0.331442 -0.46861
vn -0.806874 -0.377364 -0.454479
vn 0.934997 -0.0657921 0.348499
vn 0.104457 0.99441 -0.0154005
vn 0.301798 0.953074 0.0238225
vn 0.0729434 0.994927 -0.0692725
vn 0.112742 -0.991249 -0.0686659
vn -0.864636 -0.380413 -0.328162
vn 0.693245 0.476484 0.540717
vn -0.00510857 0.999974 -0.00516992
vn 0.00263611 0.999972 -0.00694682
vn 0.190247 0.980439 0.0504579
vn 0.190516 0.980926 0.0385644
vn 0.02212 0.999737 -0.00611173
vn -0.544299 -0.0155919 -0.838746
vn -0.19404 -0.103268 -0.975543
vn -0.417409 -0.0181969 -0.908536
vn 0.992985 -0.106582 -0.0512023
vn -0.459318 -0.798554 -0.389023
vn -0.376136 -0.86075 -0.342974
vn -0.371635 -0.911072 -0.178423
vn -0.952636 -0.302307 0.0330857
vn -0.963295 -0.245999 0.107459
vn 0.299104 0.94372 0.14117
vn -0.404569 -0.911415 -0.0751439
vn -0.559235 -0.224603 0.798003
vn -0.501379 -0.269883 0.82206
vn 0.137175 0.983377 0.118963
vn 0.0729273 0.987949 0.136523
vn 0.217808 0.935033 0.279774
vn -0.296803 -0.940049 0.167978
vn -0.182705 -0.978881 0.0917087
vn 0.288808 -0.867974 0.403994
vn 0.901867 0.0216557 0.431472
vn 0.880655 0.168207 0.442892
vn 0.0204479 0.997726 -0.0642254
vn 0.692981 -0.366003 0.621144
vn 0.862178 -0.0351251 0.505387
vn 0.866803 -0.230658 0.442096
vn 0.138013 -0.983072 -0.120507
vn 0.219944 -0.956331 -0.192501
vn 0.220986 -0.957879 -0.183391
vn -0.0353488 -0.999325 0.0100001
vn 0.0500278 -0.996865 -0.0613031
vn -0.39469 -0.908304 0.138576
vn -0.058702 0.997315 -0.0437719
vn 0.811996 -0.101705 0.574733
vn 0.120772 -0.190747 0.974182
vn 0.433206 0.89393 -0.114982
vn -0.843663 0.0735141 -0.531816
vn -0.484538 0.847441 0.216951
vn -0.250133 0.966049 0.0646742
vn -0.551155 0.825108 0.124198
vn 0.966507 0.00329841 0.256617
vn 0.286252 0.947708 0.141101
vn -0.0743025 0.997144 0.0135353
vn -0.265459 0.958509 0.103886
vn -0.859934 -0.290388 0.419747
vn -0.0339554 0.999414 0.00442782
vn -0.0132405 0.999792 0.0154883
vn -0.303634 0.952789 -0.000611431
vn -0.0812466 0.995937 0.0388418
vn -0.839172 -0.237559 -0.48924
vn -0.837235 -0.219294 -0.500947
vn -0.912814 -0.315094 -0.259782
vn 0.951371 -0.106123 0.289192
vn 0.96989 0.0161083 0.243008
vn 0.728321 -0.228328 0.646076
vn 0.725061 -0.233078 0.648044
vn 0.678887 -0.540823 0.496612
vn 0.603735 -0.34857 0.71694
vn 0.13576 -0.104533 0.985212
vn -0.641635 -0.598395 -0.479821
vn -0.964501 -0.263689 -0.0143426
vn -0.627759 -0.714183 -0.309614
vn -0.812057 -0.0179617 -0.583302
vn -0.78219 -0.345634 -0.518378
vn 0.968253 -0.116889 0.220959
vn -0.839767 -0.213563 -0.499181
vn -0.927226 -0.131834 -0.350531
vn 0.938769 -0.176753 0.295754
vn -0.809004 0.250132 -0.531927
vn -0.841516 0.350684 -0.410939
vn -0.911151 -0.408935 -0.0507525
vn -0.937222 -0.00863013 -0.348626
vn -0.892731 -0.142162 -0.427576
vn -0.276563 0.0588996 0.959189
vn -0.199984 0.0561763 0.978188
vn -0.732727 0.107333 -0.672005
vn 0.961966 -0.0579776 0.266945
vn -0.887713 -0.415349 -0.198622
vn -0.630142 -0.0466401 -0.775078
vn -0.749538 -0.560771 -0.351751
vn 0.994384 -0.0915127 0.0531639
vn 0.961601 -0.122769 0.24546
vn -0.38804 0.877316 -0.282385
vn 0.693245 0.476484 0.540717
vn 0.894446 0.434097 -0.107359
vn 0.182646 -0.936112 0.300559
vn -0.600485 -0.591572 -0.538016
vn 0.456106 -0.882364 -0.115767
vn 0.182646 -0.936112 0.300559
vn -0.324354 0.93219 0.160676
vn -0.278873 -0.951122 -0.132656
vn 0.348651 -0.819125 0.455496
vn 0.348651 -0.819125 0.455496
vn 0.510439 -0.754244 -0.412998
vn -0.545596 -0.734195 -0.404083
vn -0.858652 -0.279928 -0.429368
vn -0.727986 -0.28158 -0.625099
vn 0.955472 -0.0416775 0.292122
vn 0.633157 0.760966 -0.141575
vn 0.309113 0.943744 0.117456
vn -0.514536 0.840377 -0.170352
vn -0.795549 0.413502 -0.442852
vn 0.520495 0.85379 -0.0113437
vn 0.894446 0.434097 -0.107359
vn 0.299104 0.94372 0.14117
vn 0.961641 -0.0179652 0.273721
vn 0.693245 0.476484 0.540717
vn -0.368578 0.564562 -0.738525
vn 0.430465 -0.902579 0.00712625
vn 0.442345 -0.883595 -0.153591
vn 0.182646 -0.936112 0.300559
vn -0.587174 -0.760824 -0.276358
vn 0.950486 0.200975 0.237035
vn -0.545596 -0.734195 -0.404083
vn 0.957191 -0.0113522 -0.289234
vn -0.65709 0.117394 -0.744615
vn 0.255079 -0.787046 -0.561687
vn 0.112742 -0.991249 -0.0686659
vn 0.510439 -0.754244 -0.412998
vn -0.753355 0.0561201 -0.655215
vn -0.559235 -0.224603 0.798003
vn -0.410872 -0.910764 0.0411443
vn -0.410872 -0.910764 0.0411443
vn -0.493787 -0.693799 -0.524231
vn -0.65709 0.117394 -0.744615
vn 0.121312 -0.992357 0.0225845
vn 0.596473 0.286531 -0.749747
vn 0.450315 -0.892169 -0.0353553
vn 0.97569 -0.060326 0.210687
vn 0.906297 0.118365 0.405727
vn -0.478895 -0.723888 -0.496634
vn 0.596473 0.286531 -0.749747
vn 0.894446 0.434097 -0.107359
vn -0.302268 0.503096 -0.809647
vn 0.288897 0.943071 0.164791
vn -0.809396 0.299806 -0.50497
vn -0.0551011 0.995386 -0.0785578
vn -0.170347 0.976393 -0.132808
vn -0.86525 -0.302077 -0.400115
vn -0.710176 -0.513488 -0.481644
vn 0.646651 -0.736597 0.198159
vn 0.252822 -0.794848 -0.551631
vn -0.82317 -0.261355 -0.504068
vn 0.348651 -0.819125 0.455496
vn 0.510439 -0.754244 -0.412998
vn 0.103225 -0.981812 -0.159339
vn -0.857664 -0.25961 -0.443863
vn -0.465162 -0.877321 0.118033
vn -0.836795 0.332743 -0.434807
vn 0.728928 -0.683556 0.037614
vn 0.250522 -0.802518 -0.541483
vn -0.055613 -0.95055 0.305553
vn 0.051013 -0.279881 0.958678
vn 0.104747 -0.211023 0.971853
vn -0.856575 -0.408201 0.315677
vn -0.410872 -0.910764 0.0411443
vn 0.826269 -0.0698763 0.558924
vn 0.603616 -0.482304 0.634847
vn 0.0252881 -0.395084 0.918297
vn 0.0316733 0.995129 0.0933515
vn -0.890205 -0.367329 -0.269454
vn -0.529266 -0.450269 -0.719121
vn 0.98359 -0.169329 0.0622816
vn -0.539764 -0.552528 -0.635113
vn 0.596473 0.286531 -0.749747
vn 0.973352 -0.181206 -0.140534
vn -0.894595 -0.420751 0.150562
vn 0.899436 -0.253615 0.355942
vn -0.891423 -0.12566 0.435402
vn 0.0392877 -0.423048 0.905255
vn 0.0689871 -0.278503 0.957954
vn 0.880726 -0.126531 0.456411
vn 0.956412 0.0316108 0.290306
vn -0.873169 -0.351115 0.338075
vn -0.351419 0.0612558 0.934212
vn -0.276563 0.0588996 0.959189
vn 0.172023 0.982261 0.0746395
vn 0.968191 -0.0354502 0.247688
vn -0.984721 -0.114546 0.131166
vn -0.614135 0.761878 -0.205866
vn 0.204896 -0.316235 0.92629
vn 0.0293462 -0.308393 0.950806
vn 0.0945952 -0.382636 0.919044
vn 0.78575 -0.361875 0.501641
vn -0.0395902 -0.999183 -0.00806541
vn -0.703631 -0.516728 0.487745
vn -0.568758 0.822273 -0.0195225
vn -0.848657 -0.0693478 -0.524377
vn -0.541502 -0.622559 -0.564975
vn 0.252822 -0.794848 -0.551631
vn -0.65709 0.117394 -0.744615
vn -0.455285 -0.867648 -0.199756
vn -0.405596 -0.904518 0.13168
vn -0.613749 -0.177981 0.769178
vn -0.0399136 0.984191 0.172553
vn -0.0119661 0.996364 -0.0843589
vn 0.155067 -0.362713 0.918909
vn -0.751749 -0.275813 0.599
vn 0.742024 -0.116923 0.660098
vn 0.301002 0.924366 0.234405
vn 0.205941 -0.336082 0.919041
vn -0.368578 0.564562 -0.738525
vn 0.993428 -0.113521 0.0146479
vn 0.965001 -0.165672 0.203286
vn -0.619079 -0.218142 -0.754424
vn -0.592424 0.0798418 -0.80166
vn -0.43001 0.618558 -0.657631
g grp1
usemtl mtl1
f 3//3 2//2 1//1 
f 6//6 5//5 4//4 
f 9//9 8//8 7//7 
f 6//6 11//11 10//10 
f 14//14 13//13 12//12 
f 17//17 16//16 15//15 
f 20//20 19//19 18//18 
f 23//23 22//22 21//21 
f 25//25 24//24 5//5 
f 28//28 27//27 26//26 
f 28//28 30//30 29//29 
f 32//32 19//19 31//31 
f 35//35 34//34 33//33 
f 36//36 174//174 152//152 
f 39//39 38//38 37//37 
f 40//40 16//16 38//38 
f 41//41 34//34 35//35 
f 44//44 43//43 42//42 
f 175//175 150//150 153//153 
f 47//47 46//46 45//45 
f 50//50 49//49 48//48 
f 38//38 49//49 51//51 
f 14//14 53//53 52//52 
f 27//27 54//54 26//26 
f 57//57 56//56 55//55 
f 58//58 182//182 190//190 
f 42//42 59//59 44//44 
f 171//171 60//60 148//148 
f 168//168 149//149 197//197 
f 62//62 55//55 61//61 
f 56//56 63//63 55//55 
f 65//65 63//63 64//64 
f 68//68 67//67 66//66 
f 159//159 176//176 178//178 
f 11//11 26//26 54//54 
f 27//27 17//17 69//69 
f 72//72 71//71 70//70 
f 30//30 37//37 29//29 
f 74//74 13//13 73//73 
f 17//17 27//27 29//29 
f 164//164 169//169 75//75 
f 72//72 76//76 155//155 
f 78//78 77//77 185//185 
f 28//28 29//29 27//27 
f 81//81 80//80 79//79 
f 84//84 83//83 82//82 
f 194//194 86//86 85//85 
f 41//41 201//201 87//87 
f 90//90 89//89 88//88 
f 93//93 92//92 91//91 
f 91//91 95//95 94//94 
f 84//84 82//82 216//216 
f 212//212 82//82 96//96 
f 95//95 91//91 92//92 
f 57//57 55//55 62//62 
f 63//63 65//65 55//55 
f 97//97 61//61 65//65 
f 48//48 98//98 50//50 
f 170//170 162//162 4//4 
f 201//201 202//202 97//97 
f 99//99 235//235 218//218 
f 100//100 35//35 33//33 
f 47//47 101//101 160//160 
f 104//104 103//103 102//102 
f 177//177 105//105 237//237 
f 56//56 106//106 64//64 
f 103//103 79//79 107//107 
f 108//108 103//103 107//107 
f 233//233 109//109 73//73 
f 80//80 107//107 79//79 
f 87//87 64//64 34//34 
f 34//34 106//106 33//33 
f 147//147 35//35 165//165 
f 65//65 87//87 97//97 
f 111//111 62//62 110//110 
f 16//16 17//17 29//29 
f 112//112 107//107 110//110 
f 112//112 110//110 113//113 
f 101//101 2//2 20//20 
f 115//115 59//59 114//114 
f 80//80 111//111 107//107 
f 116//116 59//59 42//42 
f 30//30 118//118 117//117 
f 116//116 52//52 114//114 
f 89//89 221//221 119//119 
f 221//221 120//120 119//119 
f 231//231 44//44 225//225 
f 84//84 216//216 121//121 
f 122//122 119//119 120//120 
f 88//88 122//122 222//222 
f 99//99 218//218 123//123 
f 124//124 228//228 226//226 
f 208//208 156//156 157//157 
f 44//44 124//124 225//225 
f 12//12 13//13 125//125 
f 125//125 74//74 243//243 
f 195//195 124//124 126//126 
f 109//109 238//238 74//74 
f 231//231 219//219 44//44 
f 45//45 127//127 1//1 
f 243//243 74//74 238//238 
f 235//235 246//246 217//217 
f 53//53 204//204 128//128 
f 88//88 84//84 121//121 
f 84//84 88//88 222//222 
f 242//242 193//193 129//129 
f 55//55 65//65 61//61 
f 252//252 115//115 207//207 
f 126//126 44//44 59//59 
f 70//70 195//195 126//126 
f 71//71 195//195 70//70 
f 124//124 195//195 228//228 
f 127//127 68//68 66//66 
f 130//130 115//115 114//114 
f 110//110 61//61 113//113 
f 98//98 48//48 121//121 
f 178//178 188//188 159//159 
f 80//80 81//81 224//224 
f 196//196 191//191 229//229 
f 47//47 211//211 46//46 
f 211//211 47//47 131//131 
f 236//236 248//248 232//232 
f 132//132 8//8 85//85 
f 106//106 34//34 64//64 
f 20//20 134//134 133//133 
f 9//9 39//39 129//129 
f 89//89 85//85 86//86 
f 135//135 116//116 42//42 
f 194//194 85//85 8//8 
f 137//137 14//14 136//136 
f 139//139 240//240 138//138 
f 158//158 183//183 209//209 
f 193//193 194//194 8//8 
f 117//117 129//129 37//37 
f 111//111 80//80 224//224 
f 63//63 56//56 64//64 
f 35//35 147//147 41//41 
f 31//31 133//133 140//140 
f 17//17 214//214 205//205 
f 13//13 74//74 125//125 
f 34//34 41//41 87//87 
f 162//162 237//237 141//141 
f 2//2 101//101 1//1 
f 103//103 241//241 79//79 
f 118//118 242//242 117//117 
f 118//118 105//105 177//177 
f 45//45 46//46 127//127 
f 36//36 192//192 173//173 
f 152//152 192//192 36//36 
f 198//198 172//172 266//266 
f 169//169 199//199 75//75 
f 2//2 3//3 20//20 
f 105//105 141//141 237//237 
f 142//142 13//13 14//14 
f 213//213 200//200 133//133 
f 140//140 143//143 31//31 
f 8//8 132//132 7//7 
f 31//31 144//144 151//151 
f 120//120 221//221 263//263 
f 26//26 162//162 141//141 
f 24//24 25//25 145//145 
f 90//90 132//132 85//85 
f 61//61 97//97 113//113 
f 213//213 134//134 166//166 
f 154//154 112//112 113//113 
f 62//62 111//111 224//224 
f 267//267 25//25 268//268 
f 267//267 145//145 25//25 
f 242//242 118//118 177//177 
f 107//107 111//111 110//110 
f 10//10 268//268 25//25 
f 39//39 9//9 7//7 
f 5//5 6//6 25//25 
f 11//11 6//6 4//4 
f 154//154 251//251 112//112 
f 143//143 140//140 270//270 
f 4//4 26//26 11//11 
f 31//31 143//143 269//269 
f 51//51 40//40 38//38 
f 172//172 271//271 266//266 
f 207//207 46//46 211//211 
f 116//116 142//142 52//52 
f 4//4 5//5 170//170 
f 142//142 116//116 135//135 
f 25//25 6//6 10//10 
f 26//26 141//141 28//28 
f 118//118 30//30 105//105 
f 87//87 201//201 97//97 
f 37//37 16//16 29//29 
f 105//105 28//28 141//141 
f 35//35 100//100 167//167 
f 30//30 28//28 105//105 
f 87//87 65//65 64//64 
f 134//134 213//213 133//133 
f 32//32 31//31 151//151 
f 200//200 140//140 133//133 
f 114//114 128//128 130//130 
f 19//19 133//133 31//31 
f 214//214 17//17 15//15 
f 179//179 27//27 69//69 
f 107//107 112//112 108//108 
f 206//206 215//215 254//254 
f 134//134 20//20 166//166 
f 100//100 163//163 167//167 
f 180//180 255//255 189//189 
f 264//264 81//81 79//79 
f 19//19 20//20 133//133 
f 19//19 32//32 161//161 
f 8//8 9//9 193//193 
f 221//221 89//89 86//86 
f 101//101 20//20 18//18 
f 129//129 193//193 9//9 
f 37//37 30//30 117//117 
f 254//254 181//181 206//206 
f 129//129 117//117 242//242 
f 16//16 37//37 38//38 
f 49//49 38//38 39//39 
f 162//162 26//26 4//4 
f 129//129 39//39 37//37 
f 166//166 20//20 3//3 
f 49//49 7//7 48//48 
f 7//7 49//49 39//39 
f 146//146 49//49 50//50 
f 227//227 146//146 232//232 
f 236//236 232//232 146//146 
f 50//50 236//236 146//146 
f 49//49 146//146 51//51 
f 51//51 146//146 227//227 
f 51//51 227//227 230//230 
f 48//48 132//132 90//90 
f 90//90 121//121 48//48 
f 132//132 48//48 7//7 
f 76//76 72//72 256//256 
f 90//90 88//88 121//121 
f 89//89 90//90 85//85 
f 89//89 119//119 88//88 
f 224//224 57//57 62//62 
f 249//249 94//94 95//95 
f 142//142 14//14 52//52 
f 101//101 47//47 45//45 
f 1//1 101//101 45//45 
f 3//3 1//1 184//184 
f 46//46 207//207 130//130 
f 260//260 113//113 97//97 
f 128//128 127//127 130//130 
f 46//46 130//130 127//127 
f 127//127 184//184 1//1 
f 115//115 130//130 207//207 
f 119//119 122//122 88//88 
f 219//219 231//231 250//250 
f 245//245 265//265 261//261 
f 240//240 239//239 138//138 
f 257//257 82//82 212//212 
f 247//247 234//234 223//223 
f 182//182 58//58 210//210 
f 44//44 126//126 124//124 
f 77//77 258//258 185//185 
f 82//82 257//257 216//216 
f 245//245 261//261 247//247 
f 128//128 52//52 53//53 
f 13//13 135//135 73//73 
f 262//262 109//109 233//233 
f 155//155 71//71 72//72 
f 83//83 96//96 82//82 
f 238//238 109//109 262//262 
f 103//103 108//108 102//102 
f 136//136 14//14 12//12 
f 113//113 259//259 154//154 
f 251//251 244//244 112//112 
f 14//14 137//137 53//53 
f 113//113 260//260 259//259 
f 109//109 74//74 73//73 
f 59//59 116//116 114//114 
f 53//53 137//137 203//203 
f 97//97 202//202 260//260 
f 61//61 110//110 62//62 
f 43//43 135//135 42//42 
f 53//53 203//203 204//204 
f 261//261 234//234 247//247 
f 13//13 142//142 135//135 
f 52//52 128//128 114//114 
f 186//186 187//187 220//220 
f 184//184 127//127 66//66 
f 253//253 128//128 204//204 
f 59//59 115//115 252//252 
f 241//241 264//264 79//79 
f 217//217 218//218 235//235 
f 98//98 236//236 50//50 
