#
# Compatibility version : brain5.0i
# File ID : MM156
# Representation ID : BP58354
# Build-up logic : FMA 3.2.1-inference is_a
# Concept ID : FMA72956
# English name : Left diagonal band
# Bounds(mm): (3.744800,-106.709000,1541.600000)-(21.687500,-93.433000,1546.750000)
# Volume(cm3): 0.054700
#
v 6.38164 -103.145 1544.93
v 10.807 -99.9918 1543.03
v 4.98318 -104.811 1543.56
v 19.4322 -94.205 1542.06
v 20.9961 -94.8734 1543.06
v 9.82072 -99.83 1543.47
v 6.1864 -103.719 1545.04
v 9.14843 -101.727 1543.91
v 5.01982 -105.261 1544.34
v 9.71349 -99.0518 1544.83
v 11.4887 -99.9836 1543.45
v 17.9384 -95.5752 1542.3
v 6.53028 -104.308 1543.99
v 8.16756 -101.36 1543.38
v 7.904 -100.909 1544.15
v 12.6585 -97.3222 1545.72
v 5.23171 -104.616 1543.13
v 6.84047 -102.205 1544.58
v 5.66013 -104.67 1542.65
v 7.593 -103.109 1544.01
v 7.52449 -102.804 1545.01
v 7.92976 -101.389 1546.02
v 7.8492 -101.085 1545.65
v 7.83075 -100.803 1544.99
v 9.08749 -101.561 1545.28
v 9.41688 -100.054 1546.38
v 21.6875 -94.049 1542.69
v 8.40966 -101.633 1545.75
v 20.908 -94.2185 1543.49
v 9.91937 -101.08 1544.78
v 9.49296 -100.516 1546.02
v 13.7715 -98.3223 1542.81
v 10.8349 -98.3826 1546.3
v 16.0399 -95.4374 1544.14
v 8.69311 -102.093 1544.64
v 12.6981 -98.0028 1545.65
v 19.077 -95.5368 1542.54
v 16.6336 -95.7687 1544.49
v 5.3073 -105.456 1544.11
v 4.92321 -106.07 1541.87
v 10.6297 -100.194 1545.35
v 4.68622 -106.486 1543.63
v 13.6371 -97.9443 1542.83
v 4.95904 -106.334 1541.81
v 9.32382 -99.6863 1546.75
v 3.99262 -106.285 1543.73
v 9.1 -99.7011 1546.17
v 4.12573 -106.502 1542.11
v 4.22591 -106.493 1543.94
v 5.39817 -106.236 1542.37
v 4.02498 -106.216 1542.86
v 4.36955 -106.588 1542.83
v 5.14061 -106.392 1542.91
v 4.57916 -105.886 1542.22
v 5.47656 -105.909 1543.36
v 5.48541 -105.677 1542.26
v 11.7153 -97.4134 1545.35
v 7.18078 -103.399 1543.32
v 6.84861 -102.988 1543.4
v 20.3249 -93.6354 1543.06
v 5.9282 -105.347 1543.02
v 13.3856 -98.7995 1543.76
v 6.88981 -103.016 1545.34
v 11.3893 -98.263 1544.05
v 8.74601 -99.8053 1545.24
v 3.74482 -106.709 1543.11
v 20.6037 -94.7714 1541.8
v 9.54394 -100.928 1545.69
v 21.2032 -93.433 1542.37
v 20.9049 -94.1256 1541.6
v 8.61162 -100.014 1544.52
v 8.37821 -101.926 1543.28
v 9.34112 -101.352 1543.53
v 6.2707 -104.563 1542.83
v 17.1753 -96.5096 1544.12
v 7.18863 -102.002 1543.91
v 10.807 -99.9918 1543.03
v 19.4322 -94.205 1542.06
v 20.9961 -94.8734 1543.06
v 6.1864 -103.719 1545.04
v 5.01982 -105.261 1544.34
v 5.01982 -105.261 1544.34
v 17.9384 -95.5752 1542.3
v 17.9384 -95.5752 1542.3
v 17.9384 -95.5752 1542.3
v 17.9384 -95.5752 1542.3
v 12.6585 -97.3222 1545.72
v 5.66013 -104.67 1542.65
v 7.92976 -101.389 1546.02
v 21.6875 -94.049 1542.69
v 21.6875 -94.049 1542.69
v 21.6875 -94.049 1542.69
v 20.908 -94.2185 1543.49
v 13.7715 -98.3223 1542.81
v 10.8349 -98.3826 1546.3
v 10.8349 -98.3826 1546.3
v 16.0399 -95.4374 1544.14
v 16.6336 -95.7687 1544.49
v 4.92321 -106.07 1541.87
v 4.68622 -106.486 1543.63
v 4.95904 -106.334 1541.81
v 4.95904 -106.334 1541.81
v 4.95904 -106.334 1541.81
v 9.32382 -99.6863 1546.75
v 3.99262 -106.285 1543.73
v 3.99262 -106.285 1543.73
v 4.12573 -106.502 1542.11
v 4.22591 -106.493 1543.94
v 4.22591 -106.493 1543.94
v 4.22591 -106.493 1543.94
v 5.39817 -106.236 1542.37
v 5.39817 -106.236 1542.37
v 5.14061 -106.392 1542.91
v 5.48541 -105.677 1542.26
v 11.7153 -97.4134 1545.35
v 11.7153 -97.4134 1545.35
v 7.18078 -103.399 1543.32
v 7.18078 -103.399 1543.32
v 6.84861 -102.988 1543.4
v 20.3249 -93.6354 1543.06
v 13.3856 -98.7995 1543.76
v 6.88981 -103.016 1545.34
v 6.88981 -103.016 1545.34
v 11.3893 -98.263 1544.05
v 3.74482 -106.709 1543.11
v 3.74482 -106.709 1543.11
v 20.6037 -94.7714 1541.8
v 21.2032 -93.433 1542.37
v 21.2032 -93.433 1542.37
v 20.9049 -94.1256 1541.6
v 20.9049 -94.1256 1541.6
v 20.9049 -94.1256 1541.6
v 8.37821 -101.926 1543.28
v 6.2707 -104.563 1542.83
v 17.1753 -96.5096 1544.12
vn -0.787871 0.389592 0.476945
vn 0.438755 -0.712239 -0.547914
vn -0.821149 0.562034 0.0991587
vn -0.382127 0.866947 -0.319972
vn 0.573143 -0.394439 0.718279
vn -0.461603 0.581219 -0.670155
vn 0.121602 -0.487681 0.864512
vn 0.608629 -0.761374 -0.223337
vn 0.234148 -0.510026 0.827676
vn -0.605351 0.785439 -0.128979
vn 0.469105 -0.763124 -0.444503
vn 0.521353 -0.828577 -0.204087
vn 0.720445 -0.644553 0.255952
vn -0.444726 0.409613 -0.796515
vn -0.69395 0.619965 -0.366165
vn -0.199548 0.786428 0.584561
vn -0.665235 0.631098 -0.398971
vn -0.818821 0.574047 -0.00178984
vn -0.488543 0.631493 -0.602114
vn 0.68258 -0.727981 0.0642517
vn 0.558111 -0.723193 0.406822
vn -0.743854 0.30124 0.596603
vn -0.788383 0.521045 0.327054
vn -0.781267 0.623211 0.0350797
vn 0.552665 -0.727221 0.407075
vn 0.433231 -0.492803 0.754623
vn 0.712166 -0.315795 0.626971
vn 0.379756 -0.604461 0.700295
vn 0.253255 0.681747 0.686355
vn 0.606944 -0.763241 0.221544
vn 0.458285 -0.509209 0.728479
vn 0.486146 -0.80809 -0.332645
vn 0.451765 -0.283553 0.845876
vn -0.46111 0.83985 -0.286408
vn 0.609709 -0.772423 0.177813
vn 0.397961 -0.285088 0.871982
vn 0.333518 -0.881309 -0.334755
vn 0.332835 -0.167097 0.928062
vn 0.496621 -0.59189 0.634849
vn 0.422307 0.258183 -0.868906
vn 0.557327 -0.643355 0.524863
vn 0.577128 -0.646591 0.498842
vn -0.30176 0.365321 -0.880615
vn 0.246432 -0.961474 -0.121817
vn -0.723941 0.601528 0.337748
vn -0.830126 0.542991 0.126694
vn -0.688818 0.692057 0.215838
vn 0.12812 -0.978611 -0.160955
vn 0.396111 -0.53385 0.747061
vn 0.344101 -0.932863 -0.106592
vn -0.816713 0.548811 -0.178289
vn 0.180112 -0.983189 -0.0299729
vn 0.281601 -0.957802 -0.0575915
vn -0.588108 0.603487 -0.538455
vn 0.715526 -0.635171 0.290829
vn 0.357284 0.279043 -0.891338
vn -0.274154 0.821317 0.500279
vn 0.775218 -0.613195 -0.151754
vn -0.535849 0.563198 -0.629026
vn -0.388848 0.905711 -0.168771
vn 0.861852 -0.486852 -0.142079
vn 0.552516 -0.833487 0.00497163
vn 0.185901 -0.52583 0.830026
vn -0.491804 0.737661 -0.462585
vn -0.688015 0.719304 0.0961078
vn -0.888539 0.440403 -0.12862
vn 0.504749 -0.768061 -0.394094
vn 0.501337 -0.613827 0.609818
vn -0.303821 0.860854 -0.408196
vn -0.228901 0.76618 -0.600476
vn -0.634867 0.714989 -0.292805
vn -0.160151 0.102823 -0.981723
vn 0.486938 -0.717304 -0.498364
vn 0.198121 0.287438 -0.937084
vn 0.383298 -0.350342 0.854601
vn -0.668329 0.573169 -0.474145
vn -0.234185 0.227664 -0.94516
vn -0.314627 0.179762 -0.932038
vn 0.475228 -0.856501 -0.201405
vn -0.717603 0.360898 0.595649
vn -0.798849 0.459422 0.388294
vn -0.596933 0.129695 0.791739
vn -0.128274 0.0110796 -0.991677
vn -0.433028 0.64547 -0.62917
vn -0.251374 0.0377736 -0.967153
vn 0.165661 -0.723478 -0.670176
vn 0.332989 -0.0781877 0.939684
vn 0.294587 0.277932 -0.914315
vn 0.281783 -0.533927 0.797195
vn 0.458749 0.666112 0.588085
vn 0.708524 -0.594378 -0.380406
vn 0.763486 0.304416 -0.569579
vn 0.489505 -0.347377 0.799821
vn -0.109193 0.0179883 -0.993858
vn -0.612528 0.776233 0.149235
vn -0.287037 0.79051 0.541022
vn -0.129954 0.739941 0.659999
vn -0.047615 0.638152 0.768436
vn -0.421159 0.421879 -0.802897
vn 0.162396 -0.984783 0.0618817
vn 0.784353 -0.235336 -0.57394
vn 0.424549 0.254864 -0.868794
vn -0.362601 0.159257 -0.918236
vn 0.494611 -0.5488 0.673928
vn -0.596933 0.129695 0.791739
vn -0.776869 -0.330064 0.53622
vn -0.666833 0.435632 -0.604614
vn -0.596933 0.129695 0.791739
vn 0.15879 -0.981712 0.10501
vn -0.776869 -0.330064 0.53622
vn 0.836466 -0.228544 -0.498089
vn 0.772887 -0.618096 0.143542
vn 0.684165 -0.691462 0.231945
vn 0.847427 -0.302808 -0.43609
vn -0.500768 0.776703 -0.382051
vn -0.649699 0.743817 0.156931
vn -0.00103315 0.190435 -0.981699
vn 0.617461 -0.518917 -0.591157
vn 0.0192276 0.189765 -0.981641
vn 0.0679319 0.670088 0.739167
vn 0.183276 -0.608425 -0.772159
vn 0.479638 -0.647061 0.592672
vn -0.645581 0.221114 0.730982
vn -0.326921 0.194427 -0.924835
vn 0.179694 -0.983469 -0.0223307
vn -0.776869 -0.330064 0.53622
vn -0.105492 -0.249059 -0.962726
vn 0.380863 0.706822 0.596109
vn 0.763486 0.304416 -0.569579
vn 0.724669 -0.488545 -0.485982
vn 0.763486 0.304416 -0.569579
vn -0.209438 -0.0431709 -0.976868
vn 0.57215 -0.662973 -0.482815
vn 0.820989 -0.445307 -0.357323
vn 0.461426 -0.886852 0.0240579
g grp1
usemtl mtl1
f 7//7 9//9 63//63 
f 39//39 63//63 9//9 
f 19//19 17//17 59//59 
f 81//81 80//80 1//1 
f 56//56 88//88 74//74 
f 39//39 13//13 122//122 
f 81//81 1//1 3//3 
f 40//40 88//88 56//56 
f 55//55 61//61 13//13 
f 39//39 42//42 55//55 
f 99//99 54//54 19//19 
f 44//44 50//50 53//53 
f 101//101 114//114 111//111 
f 112//112 61//61 55//55 
f 111//111 114//114 61//61 
f 112//112 55//55 113//113 
f 102//102 40//40 56//56 
f 42//42 113//113 55//55 
f 3//3 46//46 81//81 
f 52//52 44//44 53//53 
f 53//53 100//100 52//52 
f 49//49 42//42 39//39 
f 49//49 39//39 9//9 
f 17//17 51//51 3//3 
f 51//51 17//17 54//54 
f 44//44 52//52 48//48 
f 105//105 108//108 82//82 
f 3//3 51//51 46//46 
f 54//54 107//107 51//51 
f 107//107 66//66 51//51 
f 48//48 52//52 125//125 
f 52//52 100//100 109//109 
f 126//126 110//110 106//106 
f 125//125 52//52 109//109 
f 51//51 66//66 46//46 
f 103//103 107//107 99//99 
f 107//107 54//54 99//99 
f 54//54 17//17 19//19 
f 61//61 114//114 134//134 
f 55//55 13//13 39//39 
f 17//17 76//76 59//59 
f 76//76 17//17 18//18 
f 17//17 3//3 18//18 
f 13//13 20//20 21//21 
f 18//18 1//1 23//23 
f 119//119 74//74 88//88 
f 61//61 58//58 13//13 
f 134//134 58//58 61//61 
f 122//122 13//13 21//21 
f 18//18 3//3 1//1 
f 58//58 20//20 13//13 
f 117//117 74//74 119//119 
f 1//1 22//22 23//23 
f 123//123 22//22 1//1 
f 20//20 35//35 21//21 
f 76//76 18//18 15//15 
f 122//122 28//28 89//89 
f 122//122 21//21 28//28 
f 20//20 58//58 8//8 
f 59//59 76//76 14//14 
f 15//15 18//18 24//24 
f 119//119 14//14 72//72 
f 118//118 133//133 8//8 
f 18//18 23//23 24//24 
f 28//28 26//26 89//89 
f 14//14 76//76 15//15 
f 4//4 34//34 60//60 
f 69//69 4//4 60//60 
f 28//28 25//25 68//68 
f 8//8 133//133 73//73 
f 21//21 25//25 28//28 
f 28//28 31//31 26//26 
f 69//69 70//70 4//4 
f 128//128 120//120 29//29 
f 15//15 24//24 71//71 
f 65//65 23//23 47//47 
f 24//24 23//23 65//65 
f 24//24 65//65 71//71 
f 23//23 45//45 47//47 
f 35//35 30//30 25//25 
f 11//11 2//2 32//32 
f 64//64 71//71 10//10 
f 8//8 73//73 11//11 
f 77//77 43//43 94//94 
f 35//35 8//8 30//30 
f 71//71 65//65 10//10 
f 28//28 68//68 31//31 
f 62//62 30//30 8//8 
f 62//62 32//32 12//12 
f 43//43 83//83 94//94 
f 43//43 64//64 84//84 
f 27//27 93//93 5//5 
f 93//93 75//75 5//5 
f 75//75 93//93 38//38 
f 25//25 41//41 68//68 
f 25//25 30//30 41//41 
f 120//120 98//98 29//29 
f 98//98 97//97 16//16 
f 38//38 87//87 36//36 
f 36//36 75//75 38//38 
f 90//90 128//128 29//29 
f 67//67 91//91 79//79 
f 97//97 98//98 120//120 
f 57//57 16//16 97//97 
f 91//91 67//67 130//130 
f 129//129 92//92 131//131 
f 87//87 33//33 36//36 
f 67//67 79//79 37//37 
f 85//85 132//132 127//127 
f 64//64 115//115 34//34 
f 4//4 64//64 34//34 
f 47//47 95//95 65//65 
f 96//96 16//16 57//57 
f 132//132 85//85 78//78 
f 86//86 67//67 37//37 
f 135//135 37//37 79//79 
f 10//10 65//65 95//95 
f 68//68 41//41 31//31 
f 64//64 10//10 115//115 
f 116//116 10//10 95//95 
f 41//41 75//75 36//36 
f 37//37 135//135 62//62 
f 47//47 45//45 95//95 
f 37//37 121//121 86//86 
f 26//26 31//31 41//41 
f 26//26 33//33 104//104 
f 135//135 41//41 62//62 
f 85//85 124//124 78//78 
f 36//36 33//33 26//26 
f 62//62 41//41 30//30 
f 43//43 6//6 64//64 
f 32//32 62//62 11//11 
f 8//8 11//11 62//62 
f 41//41 36//36 26//26 
f 15//15 71//71 6//6 
f 77//77 14//14 6//6 
f 71//71 64//64 6//6 
f 77//77 6//6 43//43 
f 73//73 2//2 11//11 
f 26//26 104//104 89//89 
f 22//22 45//45 23//23 
f 72//72 14//14 77//77 
f 25//25 21//21 35//35 
f 20//20 8//8 35//35 
f 117//117 119//119 72//72 
f 80//80 123//123 1//1 
f 133//133 2//2 73//73 
f 14//14 15//15 6//6 
