#
# Compatibility version : brain5.0i
# File ID : MM165
# Representation ID : BP58378
# Build-up logic : FMA 3.2.1-inference is_a
# Concept ID : FMA62485
# English name : Periamygdaloid area
# Bounds(mm): (19.909100,-105.923000,1535.200000)-(27.398100,-95.381600,1541.200000)
# Volume(cm3): 0.138200
#
v 21.2273 -102.361 1539.92
v 22.1774 -95.4928 1537.64
v 21.0428 -96.4292 1539.25
v 22.2194 -95.5719 1538.54
v 21.3179 -97.2068 1540.44
v 20.9719 -100.068 1540.71
v 22.0773 -102.395 1540.15
v 20.6096 -96.5826 1538.48
v 21.5784 -98.2525 1541.03
v 25.3876 -105.923 1540.29
v 22.7062 -96.3303 1535.81
v 23.0189 -103.825 1539.5
v 21.3849 -102.196 1539.27
v 20.1028 -97.7176 1539.52
v 22.0893 -95.9667 1539.55
v 22.5393 -95.8662 1536.34
v 25.3758 -96.0755 1537.7
v 22.3673 -97.6071 1541.01
v 23.0516 -101.154 1540.51
v 22.2451 -101.611 1537.88
v 22.5271 -102.653 1538.47
v 23.898 -95.865 1536.86
v 20.7073 -101.85 1539.87
v 20.2162 -100.214 1539.68
v 23.0547 -96.9351 1535.34
v 23.3345 -96.3307 1540.13
v 23.6615 -95.6874 1539.26
v 20.9418 -98.8609 1540.83
v 24.3073 -95.761 1538.96
v 26.753 -99.7163 1538.95
v 24.0945 -96.3386 1539.77
v 25.7566 -96.7873 1538.44
v 20.1622 -100.757 1540.29
v 19.9462 -98.6603 1539.62
v 24.827 -95.5399 1537.58
v 22.8884 -95.7168 1539.4
v 22.8428 -100.508 1536.79
v 22.5486 -98.4389 1541.17
v 22.756 -100.115 1540.93
v 23.7722 -102.82 1540.19
v 24.7236 -97.1623 1539.84
v 23.712 -97.1988 1540.52
v 22.9777 -97.9277 1535.54
v 23.4156 -98.3998 1540.96
v 23.4579 -97.1774 1535.44
v 24.8321 -96.1381 1537.05
v 26.6295 -97.9482 1537.82
v 26.6356 -98.1002 1538.33
v 24.7182 -97.741 1536.5
v 26.0903 -101.215 1539.36
v 24.4789 -99.2122 1540.54
v 25.8363 -99.2703 1536.56
v 23.9693 -101.56 1540.23
v 23.2259 -102.16 1537.37
v 23.41 -98.612 1535.51
v 24.8677 -102.3 1537.18
v 24.4271 -101.062 1536.66
v 23.5366 -99.9868 1536.36
v 24.275 -99.2108 1536.37
v 25.6523 -104.229 1539.14
v 26.1143 -102.299 1539.04
v 25.0185 -101.507 1536.8
v 25.9991 -100.411 1536.62
v 25.849 -101.468 1536.98
v 25.7352 -98.3471 1536.69
v 26.9256 -100.505 1538.61
v 27.0716 -99.0482 1538.27
v 27.3267 -100.043 1537.93
v 27.359 -99.8914 1537.39
v 27.1222 -100.003 1537.02
v 26.7758 -100.704 1537.03
v 23.9652 -97.7911 1535.87
v 23.607 -98.038 1535.44
v 24.8074 -104.709 1539.2
v 27.1851 -99.7877 1538.38
v 27.0497 -98.9967 1537.22
v 25.2644 -101.623 1539.84
v 24.6251 -100.59 1540.29
v 25.8015 -99.4812 1539.75
v 24.9335 -100.03 1536.51
v 25.9333 -97.6483 1537.01
v 24.067 -96.8414 1536.27
v 24.8722 -96.1591 1538.91
v 25.9349 -97.0517 1537.39
v 23.2349 -97.4139 1535.2
v 23.3502 -96.4447 1535.94
v 22.037 -97.2056 1540.77
v 23.9918 -104.609 1540.16
v 21.3138 -95.8828 1538.02
v 20.0094 -99.8089 1540.04
v 22.0108 -99.2768 1541.11
v 21.2878 -101.118 1540.48
v 21.7609 -97.5199 1536.93
v 22.261 -96.3572 1536.27
v 25.1737 -95.8448 1538.01
v 21.3446 -100.732 1538.48
v 23.6388 -95.4433 1538.56
v 21.2766 -98.7672 1537.8
v 20.3743 -101.289 1540.19
v 23.377 -97.9752 1535.23
v 20.8617 -98.0937 1540.63
v 20.8717 -96.8728 1537.95
v 24.5721 -95.5819 1537.3
v 20.3008 -99.905 1540.39
v 22.9698 -99.1639 1541.12
v 22.9546 -97.3563 1540.85
v 20.1114 -98.2263 1539.04
v 23.5656 -95.4148 1537.78
v 24.5968 -95.5409 1538.1
v 25.8712 -97.7362 1539.11
v 26.2947 -98.879 1539.25
v 25.4023 -100.138 1540.01
v 23.9411 -102.725 1537.43
v 25.3367 -104.3 1540.1
v 25.4643 -105.841 1540.28
v 23.8385 -98.8326 1535.97
v 23.8581 -101.899 1536.95
v 25.7563 -104.365 1539.67
v 26.5503 -101.567 1538.39
v 26.7066 -99.0897 1536.84
v 26.7179 -99.8006 1536.72
v 27.2288 -99.0738 1537.65
v 23.1487 -99.4063 1536.04
v 27.0798 -100.762 1537.64
v 26.339 -101.838 1537.73
v 25.8995 -102.103 1537.5
v 23.6958 -99.8768 1540.82
v 20.5247 -97.4084 1539.88
v 20.2285 -98.5513 1540.16
v 24.6846 -98.0566 1540.21
v 21.7084 -95.7847 1537.23
v 21.8207 -96.4533 1540.07
v 22.6141 -96.4758 1540.33
v 22.5356 -95.5603 1537.03
v 20.0983 -97.4198 1539.11
v 21.2273 -102.361 1539.92
v 21.2273 -102.361 1539.92
v 20.6096 -96.5826 1538.48
v 25.3876 -105.923 1540.29
v 25.3876 -105.923 1540.29
v 25.3876 -105.923 1540.29
v 22.7062 -96.3303 1535.81
v 22.5393 -95.8662 1536.34
v 20.7073 -101.85 1539.87
v 23.0547 -96.9351 1535.34
v 20.1622 -100.757 1540.29
v 24.827 -95.5399 1537.58
v 23.41 -98.612 1535.51
v 23.41 -98.612 1535.51
v 25.6523 -104.229 1539.14
v 27.1222 -100.003 1537.02
v 24.8074 -104.709 1539.2
v 23.2349 -97.4139 1535.2
v 23.9918 -104.609 1540.16
v 20.0094 -99.8089 1540.04
v 20.3743 -101.289 1540.19
v 20.3743 -101.289 1540.19
v 23.377 -97.9752 1535.23
v 24.5721 -95.5819 1537.3
v 25.4643 -105.841 1540.28
v 25.4643 -105.841 1540.28
v 25.4643 -105.841 1540.28
v 25.7563 -104.365 1539.67
v 23.1487 -99.4063 1536.04
vn -0.648463 -0.72836 -0.221331
vn -0.255926 0.964017 -0.0719198
vn -0.572499 0.729145 0.374958
vn -0.2552 0.946637 0.196854
vn -0.476638 0.519541 0.70915
vn -0.31007 -0.175508 0.934373
vn -0.131235 -0.226198 0.9652
vn -0.824071 0.330872 -0.459816
vn -0.289448 0.207865 0.934351
vn -0.684248 -0.710235 0.165443
vn 0.25384 0.724826 -0.640463
vn -0.59936 -0.739713 -0.305927
vn -0.670916 -0.549186 -0.498264
vn -0.858069 0.321333 0.400579
vn -0.298136 0.832493 0.466979
vn 0.0802243 0.853052 -0.515623
vn 0.757363 0.592686 -0.27409
vn -0.0336618 0.356706 0.93361
vn 0.113857 -0.261373 0.958499
vn -0.653889 -0.40399 -0.639705
vn -0.542341 -0.615354 -0.572018
vn 0.250792 0.747474 -0.615131
vn -0.766192 -0.419156 -0.487091
vn -0.860768 -0.245343 -0.445965
vn 0.402281 0.546338 -0.734632
vn 0.198165 0.647696 0.735677
vn 0.208625 0.83373 0.511244
vn -0.47411 0.0267851 0.880058
vn 0.391033 0.803092 0.449597
vn 0.740145 0.0364382 0.671459
vn 0.440927 0.593791 0.67305
vn 0.771419 0.547159 0.324852
vn -0.49968 -0.0878899 0.86174
vn -0.999628 0.0267192 0.00552582
vn 0.359148 0.933277 -0.00252155
vn -0.0543974 0.882088 0.467934
vn -0.536096 -0.353691 -0.766488
vn 0.0653579 0.103765 0.992452
vn 0.0526342 -0.284088 0.957353
vn 0.107899 -0.0527469 0.992762
vn 0.572967 0.404744 0.712665
vn 0.410321 0.370631 0.833228
vn -0.691655 -0.200491 -0.693842
vn 0.350977 0.120596 0.928586
vn 0.625551 0.320781 -0.711186
vn 0.494839 0.448538 -0.744277
vn 0.862579 0.505229 -0.0264678
vn 0.827591 0.439976 0.348589
vn 0.43306 0.170297 -0.885131
vn 0.727008 -0.103291 0.678816
vn 0.450662 0.0107486 0.89263
vn 0.190032 0.058434 -0.980037
vn 0.256363 -0.147895 0.955199
vn -0.482603 -0.535211 -0.693285
vn -0.0917813 -0.530665 -0.842598
vn 0.169356 -0.547256 -0.819652
vn 0.0363019 -0.218143 -0.975241
vn 0.0856861 -0.39749 -0.913597
vn 0.308591 -0.145968 -0.939928
vn 0.40236 -0.577614 -0.710259
vn 0.888169 -0.050487 0.456735
vn 0.100355 -0.3599 -0.927578
vn 0.184703 -0.205125 -0.96115
vn 0.319727 -0.45908 -0.828867
vn 0.317142 0.232537 -0.919428
vn 0.831321 -0.239652 0.501469
vn 0.872796 0.291674 0.391348
vn 0.971516 -0.120362 0.20413
vn 0.963407 -0.0312227 -0.266218
vn 0.81502 -0.392723 -0.426041
vn 0.56864 -0.436467 -0.697241
vn 0.701866 0.0236836 -0.711916
vn 0.698935 -0.0631635 -0.712391
vn -0.453082 -0.693651 -0.559969
vn 0.887598 0.0231623 0.460036
vn 0.783888 0.355962 -0.508734
vn 0.360146 -0.0685 0.930378
vn 0.328921 -0.193652 0.924289
vn 0.591583 0.0503545 0.80467
vn 0.0691478 -0.107958 -0.991748
vn 0.490692 0.365094 -0.791156
vn 0.583419 0.374719 -0.720561
vn 0.588713 0.611628 0.528516
vn 0.7118 0.498388 -0.494925
vn -0.677374 -0.138256 -0.72253
vn 0.40604 0.63615 -0.656083
vn -0.24033 0.496618 0.834034
vn -0.6604 -0.745753 0.0878849
vn -0.556441 0.830369 0.0293459
vn -0.804479 0.0787931 0.588732
vn -0.137289 -0.134945 0.981296
vn -0.148463 -0.322615 0.934815
vn -0.768761 -0.0865734 -0.63365
vn -0.744239 0.162203 -0.647919
vn 0.650229 0.722981 0.233455
vn -0.728676 -0.290382 -0.62025
vn 0.0767678 0.973415 0.215802
vn -0.749333 -0.197478 -0.632062
vn -0.884685 -0.299132 -0.357565
vn -0.609311 -0.273113 -0.744412
vn -0.57041 0.298541 0.765184
vn -0.806553 0.0579334 -0.588316
vn 0.521046 0.519479 -0.677239
vn -0.622917 0.0166109 0.782111
vn 0.161294 -0.0882823 0.98295
vn 0.190308 0.373784 0.907782
vn -0.859953 -0.0970591 -0.50106
vn 0.0216277 0.99187 -0.125406
vn 0.341473 0.90771 0.24384
vn 0.68311 0.384584 0.620851
vn 0.683826 0.23413 0.69106
vn 0.500615 -0.0920276 0.860765
vn -0.191881 -0.60635 -0.7717
vn 0.320964 0.0833546 0.943416
vn 0.347922 -0.533599 -0.770858
vn 0.608846 -0.282097 -0.741436
vn -0.1558 -0.403896 -0.90144
vn 0.815078 0.0252571 0.578801
vn 0.917909 -0.335866 0.211275
vn 0.491378 0.234716 -0.838723
vn 0.397475 -0.051645 -0.916158
vn 0.952448 0.304511 -0.0107692
vn -0.102674 -0.535524 -0.838255
vn 0.871221 -0.450753 -0.194412
vn 0.770659 -0.52927 -0.354906
vn 0.455602 -0.578647 -0.676457
vn 0.297221 -0.175888 0.938469
vn -0.681476 0.491391 0.542333
vn -0.767041 0.184369 0.614537
vn 0.53883 0.229274 0.810614
vn -0.629275 0.640724 -0.439871
vn -0.358258 0.687028 0.632174
vn -0.0543907 0.657658 0.751351
vn -0.0780206 0.94135 -0.328287
vn -0.936503 0.350211 -0.0177596
vn -0.244596 -0.335567 0.909707
vn -0.657166 -0.627898 0.416985
vn -0.671098 0.702542 0.236775
vn -0.442055 -0.70698 -0.552057
vn 0.420361 -0.486712 -0.765773
vn 0.010634 0.116634 0.993118
vn -0.693797 0.294718 -0.657105
vn -0.641795 0.454267 -0.617851
vn -0.657166 -0.627898 0.416985
vn -0.745991 -0.00710639 -0.665918
vn -0.914002 -0.258956 -0.312318
vn 0.609729 0.483777 -0.627846
vn 0.595342 -0.331386 -0.73195
vn -0.581086 -0.335262 -0.741578
vn 0.912439 -0.340344 -0.227204
vn 0.675994 0.0639903 -0.734123
vn 0.284609 -0.588065 -0.757084
vn 0.609309 0.221392 -0.761399
vn -0.0577373 -0.0348718 0.997723
vn -0.929282 -0.199385 -0.310935
vn -0.232243 -0.313825 0.920639
vn -0.657166 -0.627898 0.416985
vn 0.659802 -0.0820954 -0.746941
vn -0.00403397 0.941912 -0.335836
vn 0.00510952 0.116468 0.993181
vn 0.722145 0.138973 0.677638
vn 0.922117 -0.289262 -0.256957
vn 0.905059 -0.332772 -0.264823
vn -0.596231 -0.317895 -0.737192
g grp1
usemtl mtl1
f 1//1 12//12 88//88 
f 1//1 13//13 12//12 
f 13//13 21//21 12//12 
f 136//136 154//154 7//7 
f 129//129 34//34 90//90 
f 90//90 104//104 129//129 
f 24//24 96//96 23//23 
f 23//23 99//99 24//24 
f 156//156 6//6 33//33 
f 33//33 6//6 104//104 
f 99//99 146//146 24//24 
f 90//90 33//33 104//104 
f 34//34 24//24 155//155 
f 107//107 34//34 135//135 
f 24//24 107//107 98//98 
f 135//135 8//8 102//102 
f 98//98 107//107 102//102 
f 102//102 107//107 135//135 
f 128//128 3//3 135//135 
f 14//14 128//128 135//135 
f 107//107 24//24 34//34 
f 98//98 102//102 93//93 
f 135//135 3//3 138//138 
f 14//14 129//129 128//128 
f 138//138 3//3 89//89 
f 101//101 5//5 128//128 
f 129//129 101//101 128//128 
f 34//34 14//14 135//135 
f 129//129 14//14 34//34 
f 96//96 24//24 98//98 
f 146//146 155//155 24//24 
f 8//8 131//131 102//102 
f 8//8 89//89 131//131 
f 128//128 5//5 3//3 
f 131//131 2//2 134//134 
f 12//12 10//10 88//88 
f 13//13 20//20 21//21 
f 100//100 43//43 85//85 
f 108//108 22//22 134//134 
f 36//36 27//27 97//97 
f 31//31 29//29 27//27 
f 42//42 130//130 41//41 
f 82//82 22//22 46//46 
f 108//108 109//109 35//35 
f 41//41 110//110 83//83 
f 109//109 83//83 95//95 
f 103//103 147//147 17//17 
f 47//47 32//32 48//48 
f 79//79 30//30 111//111 
f 7//7 154//154 40//40 
f 123//123 55//55 58//58 
f 12//12 74//74 139//139 
f 12//12 21//21 74//74 
f 78//78 127//127 19//19 
f 21//21 54//54 74//74 
f 46//46 17//17 84//84 
f 17//17 32//32 47//47 
f 111//111 67//67 110//110 
f 76//76 81//81 84//84 
f 154//154 114//114 40//40 
f 47//47 76//76 84//84 
f 66//66 68//68 75//75 
f 70//70 69//69 124//124 
f 69//69 68//68 124//124 
f 69//69 151//151 76//76 
f 76//76 151//151 120//120 
f 50//50 119//119 66//66 
f 124//124 71//71 70//70 
f 124//124 68//68 119//119 
f 66//66 119//119 68//68 
f 75//75 67//67 30//30 
f 66//66 75//75 30//30 
f 124//124 125//125 71//71 
f 151//151 71//71 121//121 
f 126//126 71//71 125//125 
f 63//63 121//121 71//71 
f 52//52 120//120 121//121 
f 151//151 121//121 120//120 
f 76//76 120//120 81//81 
f 68//68 67//67 75//75 
f 76//76 122//122 69//69 
f 68//68 122//122 67//67 
f 69//69 122//122 68//68 
f 67//67 122//122 47//47 
f 76//76 47//47 122//122 
f 47//47 48//48 67//67 
f 125//125 124//124 119//119 
f 64//64 71//71 126//126 
f 64//64 63//63 71//71 
f 63//63 52//52 121//121 
f 65//65 120//120 52//52 
f 54//54 113//113 74//74 
f 152//152 115//115 140//140 
f 141//141 160//160 114//114 
f 62//62 63//63 64//64 
f 80//80 52//52 63//63 
f 57//57 80//80 63//63 
f 57//57 63//63 62//62 
f 56//56 62//62 64//64 
f 56//56 64//64 126//126 
f 113//113 56//56 152//152 
f 50//50 66//66 30//30 
f 111//111 30//30 67//67 
f 110//110 67//67 48//48 
f 65//65 81//81 120//120 
f 46//46 84//84 81//81 
f 52//52 49//49 65//65 
f 53//53 77//77 78//78 
f 40//40 114//114 77//77 
f 78//78 77//77 112//112 
f 56//56 126//126 152//152 
f 49//49 81//81 65//65 
f 59//59 52//52 80//80 
f 161//161 118//118 114//114 
f 126//126 60//60 152//152 
f 59//59 49//49 52//52 
f 82//82 46//46 49//49 
f 153//153 45//45 73//73 
f 148//148 73//73 116//116 
f 115//115 152//152 60//60 
f 117//117 57//57 62//62 
f 72//72 49//49 59//59 
f 116//116 72//72 59//59 
f 73//73 72//72 116//116 
f 45//45 72//72 73//73 
f 82//82 72//72 45//45 
f 72//72 82//82 49//49 
f 56//56 117//117 62//62 
f 114//114 50//50 77//77 
f 113//113 117//117 56//56 
f 58//58 116//116 59//59 
f 59//59 57//57 58//58 
f 59//59 80//80 57//57 
f 150//150 163//163 162//162 
f 54//54 117//117 113//113 
f 150//150 125//125 119//119 
f 119//119 163//163 150//150 
f 61//61 119//119 50//50 
f 61//61 118//118 119//119 
f 118//118 61//61 50//50 
f 19//19 127//127 39//39 
f 19//19 53//53 78//78 
f 148//148 116//116 58//58 
f 148//148 158//158 73//73 
f 158//158 153//153 73//73 
f 100//100 149//149 43//43 
f 43//43 149//149 164//164 
f 93//93 94//94 43//43 
f 114//114 118//118 50//50 
f 126//126 125//125 60//60 
f 20//20 37//37 54//54 
f 37//37 98//98 43//43 
f 43//43 98//98 93//93 
f 96//96 98//98 37//37 
f 37//37 20//20 96//96 
f 105//105 44//44 38//38 
f 43//43 164//164 37//37 
f 123//123 58//58 37//37 
f 40//40 77//77 53//53 
f 40//40 53//53 19//19 
f 37//37 58//58 117//117 
f 117//117 58//58 57//57 
f 54//54 37//37 117//117 
f 105//105 39//39 127//127 
f 127//127 44//44 105//105 
f 51//51 130//130 44//44 
f 127//127 51//51 44//44 
f 127//127 78//78 51//51 
f 44//44 130//130 42//42 
f 78//78 112//112 51//51 
f 51//51 112//112 79//79 
f 51//51 79//79 130//130 
f 79//79 111//111 130//130 
f 77//77 50//50 112//112 
f 112//112 50//50 79//79 
f 79//79 50//50 30//30 
f 48//48 32//32 110//110 
f 17//17 47//47 84//84 
f 130//130 111//111 110//110 
f 95//95 32//32 17//17 
f 95//95 83//83 32//32 
f 95//95 17//17 35//35 
f 83//83 110//110 32//32 
f 46//46 103//103 17//17 
f 109//109 95//95 35//35 
f 130//130 110//110 41//41 
f 109//109 29//29 83//83 
f 31//31 41//41 83//83 
f 22//22 103//103 46//46 
f 81//81 49//49 46//46 
f 159//159 108//108 35//35 
f 97//97 29//29 109//109 
f 29//29 31//31 83//83 
f 42//42 41//41 31//31 
f 97//97 27//27 29//29 
f 108//108 97//97 109//109 
f 159//159 22//22 108//108 
f 82//82 86//86 22//22 
f 31//31 26//26 42//42 
f 86//86 82//82 45//45 
f 26//26 31//31 27//27 
f 45//45 25//25 86//86 
f 27//27 36//36 26//26 
f 44//44 42//42 106//106 
f 106//106 42//42 26//26 
f 16//16 22//22 86//86 
f 45//45 153//153 25//25 
f 85//85 43//43 145//145 
f 97//97 4//4 36//36 
f 26//26 133//133 106//106 
f 134//134 22//22 16//16 
f 16//16 86//86 11//11 
f 11//11 86//86 25//25 
f 145//145 94//94 142//142 
f 145//145 43//43 94//94 
f 134//134 2//2 108//108 
f 108//108 4//4 97//97 
f 106//106 38//38 44//44 
f 18//18 38//38 106//106 
f 18//18 106//106 133//133 
f 133//133 26//26 36//36 
f 154//154 141//141 114//114 
f 2//2 4//4 108//108 
f 20//20 54//54 21//21 
f 92//92 19//19 39//39 
f 91//91 39//39 105//105 
f 91//91 105//105 38//38 
f 18//18 133//133 87//87 
f 133//133 36//36 15//15 
f 4//4 15//15 36//36 
f 93//93 102//102 94//94 
f 94//94 131//131 143//143 
f 23//23 13//13 1//1 
f 137//137 157//157 144//144 
f 96//96 13//13 23//23 
f 136//136 7//7 92//92 
f 28//28 9//9 101//101 
f 129//129 28//28 101//101 
f 104//104 28//28 129//129 
f 104//104 6//6 28//28 
f 6//6 156//156 92//92 
f 156//156 136//136 92//92 
f 28//28 6//6 91//91 
f 13//13 96//96 20//20 
f 7//7 40//40 19//19 
f 92//92 91//91 6//6 
f 7//7 19//19 92//92 
f 92//92 39//39 91//91 
f 87//87 133//133 132//132 
f 132//132 133//133 15//15 
f 94//94 143//143 142//142 
f 131//131 134//134 16//16 
f 9//9 38//38 18//18 
f 91//91 38//38 9//9 
f 9//9 18//18 87//87 
f 87//87 132//132 5//5 
f 102//102 131//131 94//94 
f 5//5 132//132 3//3 
f 9//9 5//5 101//101 
f 9//9 28//28 91//91 
f 3//3 15//15 4//4 
f 131//131 89//89 2//2 
f 89//89 3//3 4//4 
f 132//132 15//15 3//3 
f 5//5 9//9 87//87 
f 89//89 4//4 2//2 
