#
# Compatibility version : brain5.0i
# File ID : MM179
# Representation ID : BP58076
# Build-up logic : FMA 3.2.1-inference part_of
# Concept ID : FMA72833
# English name : Left amygdala
# Bounds(mm): (14.532400,-110.059000,1528.740000)-(31.153700,-91.926800,1540.620000)
# Volume(cm3): 1.339500
#
v 24.9286 -93.896 1537.04
v 25.6451 -99.8719 1539.95
v 15.092 -101.401 1535.93
v 16.7767 -100.988 1529.62
v 19.1997 -106.552 1529.25
v 19.792 -104.966 1528.84
v 27.0627 -99.1784 1532.8
v 22.2166 -97.1849 1538.69
v 18.3363 -101.257 1529.54
v 18.6847 -98.7943 1532.09
v 26.2701 -101.888 1531.55
v 17.0637 -98.373 1533.77
v 19.6104 -102.376 1540.27
v 23.4008 -99.901 1532.83
v 26.384 -94.0014 1537.47
v 16.0462 -99.7821 1531.39
v 21.6507 -97.6494 1533.98
v 15.3713 -102.053 1530.18
v 15.966 -103.37 1537.67
v 16.8826 -102.604 1529.01
v 20.2478 -106.143 1539.08
v 19.9739 -100.777 1540.03
v 24.3822 -109.038 1537.18
v 26.2819 -107.497 1538.45
v 21.5227 -109.075 1534.94
v 27.3497 -93.6703 1535.25
v 26.9982 -91.9268 1535.65
v 17.7132 -102.225 1539.46
v 23.5734 -105.772 1539.96
v 22.3256 -101.289 1540.46
v 24.4082 -96.343 1534.28
v 25.8649 -92.7539 1535.37
v 29.0661 -98.9773 1537.07
v 27.1586 -95.827 1537.98
v 26.6691 -109.257 1535.33
v 24.0482 -109.938 1533.77
v 26.0667 -105.174 1539.84
v 24.0599 -109.798 1530.44
v 30.6523 -105.333 1531.7
v 15.2195 -99.9189 1533.32
v 16.9406 -100.915 1538.36
v 31.0738 -103.052 1532.08
v 28.6058 -108.046 1531.31
v 30.9393 -105.168 1533.26
v 16.726 -105.742 1530.04
v 30.3443 -101.71 1531.23
v 27.334 -103.516 1539.73
v 22.5371 -102.288 1531.08
v 14.6369 -101.893 1532.49
v 30.1522 -100.207 1532.19
v 19.5361 -107.729 1536.96
v 27.3554 -92.9253 1536.2
v 26.0015 -107.829 1529.36
v 28.7019 -97.3427 1534.61
v 27.9865 -107.284 1530.02
v 21.5382 -109.156 1530.55
v 16.1543 -99.9164 1536.94
v 28.1598 -104.276 1530.3
v 23.4821 -107.833 1538.76
v 30.1896 -106.157 1535.43
v 30.7877 -100.991 1533.07
v 26.4326 -109.765 1532.49
v 23.914 -98.0734 1539.6
v 30.9338 -102.103 1534.67
v 27.3316 -96.869 1533.76
v 21.3691 -103.561 1540.37
v 29.7333 -101.873 1537.67
v 15.324 -104.828 1534.45
v 20.3081 -103.292 1529.48
v 16.717 -106.199 1536.45
v 16.2686 -106.682 1532.65
v 20.1866 -96.6731 1535.57
v 18.8192 -97.6784 1536.66
v 16.3687 -103.841 1529.47
v 30.8249 -103.845 1535.43
v 18.3318 -107.881 1530.61
v 23.4293 -108.313 1529.19
v 29.2717 -107.67 1533.5
v 29.1899 -105.566 1537.75
v 14.744 -102.86 1534.71
v 15.2375 -100.658 1531.24
v 23.3644 -94.7483 1535.76
v 24.2752 -105.674 1529.38
v 15.2425 -104.338 1531.5
v 15.931 -99.2882 1535.42
v 17.5369 -104.304 1539.05
v 27.6371 -100.519 1539.46
v 17.8618 -106.01 1538.18
v 26.5505 -93.5865 1534.62
v 25.8879 -109.416 1530.39
v 28.377 -107.607 1536.84
v 24.5729 -103.169 1540.52
v 30.1241 -104.951 1530.85
v 20.2164 -99.6462 1531.78
v 27.9006 -95.8216 1536.49
v 29.1413 -103.314 1538.52
v 17.6241 -107.809 1533.28
v 24.9286 -93.896 1537.04
v 16.8826 -102.604 1529.01
v 27.3497 -93.6703 1535.25
v 26.9982 -91.9268 1535.65
v 26.9982 -91.9268 1535.65
v 26.9982 -91.9268 1535.65
v 26.9982 -91.9268 1535.65
v 26.9982 -91.9268 1535.65
v 25.8649 -92.7539 1535.37
v 24.0599 -109.798 1530.44
v 16.726 -105.742 1530.04
v 30.3443 -101.71 1531.23
v 30.3443 -101.71 1531.23
v 30.1522 -100.207 1532.19
v 27.3554 -92.9253 1536.2
v 27.3554 -92.9253 1536.2
v 26.0015 -107.829 1529.36
v 27.9865 -107.284 1530.02
v 21.5382 -109.156 1530.55
v 27.3316 -96.869 1533.76
v 20.1866 -96.6731 1535.57
v 18.3318 -107.881 1530.61
v 23.3644 -94.7483 1535.76
v 26.5505 -93.5865 1534.62
v 30.1241 -104.951 1530.85
vn -0.577592 0.800915 0.157867
vn 0.206682 0.223304 0.952585
vn -0.920823 0.215124 0.32528
vn -0.301373 0.564132 -0.768719
vn -0.28139 -0.416071 -0.864699
vn 0.0134873 0.0339108 -0.999334
vn -0.0675176 0.430359 -0.900129
vn -0.326016 0.571092 0.753371
vn 0.207127 0.473633 -0.85602
vn -0.00539644 0.798418 -0.602079
vn -0.00236484 0.483403 -0.875395
vn -0.474679 0.867621 -0.148033
vn -0.252622 -0.0145428 0.967456
vn -0.0139073 0.476606 -0.879007
vn 0.116232 0.517902 0.847507
vn -0.453826 0.776132 -0.43779
vn 0.0220932 0.628192 -0.777745
vn -0.795228 0.0822255 -0.600709
vn -0.838633 -0.150704 0.523434
vn 0.0758899 0.298379 -0.951425
vn -0.261117 -0.528974 0.807468
vn -0.292034 0.357466 0.887093
vn -0.0198154 -0.900582 0.434234
vn 0.344438 -0.598593 0.723221
vn -0.306781 -0.941769 0.137682
vn 0.967371 0.245117 -0.0641133
vn -0.608822 0.771068 0.186519
vn -0.551682 0.103503 0.827607
vn 0.00497161 -0.392439 0.919765
vn -0.0359952 0.139595 0.989554
vn -0.175453 0.412872 -0.89373
vn -0.321895 0.473477 -0.81988
vn 0.864184 0.353428 0.358156
vn 0.616917 0.344057 0.70784
vn 0.36062 -0.887206 0.287782
vn -0.077071 -0.991589 0.103977
vn 0.281292 -0.325696 0.902661
vn -0.00125488 -0.995019 -0.0996741
vn 0.866977 -0.375474 -0.327672
vn -0.827251 0.559156 -0.0547806
vn -0.614386 0.386477 0.68787
vn 0.972868 0.0246116 -0.230046
vn 0.661471 -0.638734 -0.393033
vn 0.947151 -0.320592 0.0112333
vn -0.777192 -0.48439 -0.401671
vn -0.0482059 0.480796 -0.875506
vn 0.430929 -0.147411 0.890264
vn 0.219944 0.538514 -0.813405
vn -0.990918 0.0907413 -0.0992356
vn -0.0198875 0.465766 -0.884685
vn -0.359386 -0.823777 0.438443
vn 0.440919 0.488304 0.753094
vn 0.176517 0.0934775 -0.979849
vn 0.855548 0.487623 -0.17396
vn 0.540222 -0.525765 -0.657063
vn -0.241372 -0.63167 -0.736703
vn -0.699787 0.506231 0.504013
vn 0.137509 0.253305 -0.957563
vn -0.0851392 -0.68165 0.726708
vn 0.844453 -0.460169 0.274124
vn 0.928454 0.363451 -0.0766627
vn 0.3608 -0.931134 -0.0530352
vn -0.0502346 0.386569 0.920891
vn 0.964055 0.178608 0.196715
vn -0.0934688 0.334918 -0.9376
vn -0.140997 -0.213156 0.966791
vn 0.842764 0.152241 0.516306
vn -0.903712 -0.39885 0.155636
vn 0.3124 0.430257 -0.846927
vn -0.709221 -0.605787 0.360593
vn -0.774249 -0.626662 -0.0885061
vn -0.191128 0.802901 -0.564642
vn -0.521725 0.776765 0.352759
vn -0.5464 -0.234307 -0.804082
vn 0.945565 -0.0986681 0.310116
vn -0.505623 -0.852297 -0.133919
vn -0.0194023 -0.392799 -0.91942
vn 0.71831 -0.694929 0.0332201
vn 0.687703 -0.352177 0.634851
vn -0.976541 -0.154962 0.149517
vn -0.782668 0.463333 -0.415636
vn -0.547476 0.825307 0.138343
vn 0.135555 0.300688 -0.94404
vn -0.914535 -0.309539 -0.260405
vn -0.726418 0.657255 0.200827
vn -0.505976 -0.328678 0.797471
vn 0.567877 0.189211 0.801071
vn -0.479917 -0.619544 0.621164
vn -0.308309 0.406793 -0.859921
vn 0.331093 -0.719471 -0.610523
vn 0.601011 -0.680998 0.418363
vn 0.11472 -0.0667736 0.991151
vn 0.762367 -0.228083 -0.605619
vn 0.333612 0.576719 -0.74572
vn 0.934608 0.296544 0.196394
vn 0.727626 -0.0666216 0.682731
vn -0.501427 -0.85959 0.0983659
vn -0.274066 0.646051 0.712394
vn -0.48663 -0.00389299 -0.873599
vn 0.598094 0.32256 -0.733647
vn -0.206431 0.555555 -0.805447
vn -0.163712 0.676849 0.717687
vn 0.372617 0.546402 0.750067
vn 0.952893 0.235862 -0.190692
vn 0.61079 0.292002 -0.735983
vn -0.600081 0.775875 0.194731
vn -0.0492024 -0.653112 -0.755661
vn -0.397892 -0.421377 -0.814938
vn 0.295387 0.0916145 -0.950975
vn 0.870299 0.215834 -0.442714
vn 0.777866 0.53428 -0.330861
vn 0.965208 0.202911 -0.164924
vn 0.874845 0.209008 0.436992
vn 0.277143 -0.536174 -0.797314
vn 0.292764 0.0737186 -0.953339
vn -0.311933 -0.950099 -0.00300095
vn 0.586351 0.463279 -0.664504
vn -0.522726 0.843624 0.122701
vn -0.332906 -0.559237 -0.759228
vn -0.355316 0.516103 -0.779351
vn 0.608024 0.312776 -0.729711
vn 0.2928 0.082781 -0.952584
g grp1
usemtl mtl1
f 6//6 5//5 74//74 
f 6//6 20//20 9//9 
f 41//41 8//8 73//73 
f 4//4 10//10 9//9 
f 45//45 71//71 84//84 
f 70//70 86//86 19//19 
f 68//68 70//70 19//19 
f 71//71 70//70 68//68 
f 74//74 99//99 6//6 
f 41//41 73//73 57//57 
f 19//19 28//28 41//41 
f 19//19 86//86 28//28 
f 70//70 88//88 86//86 
f 108//108 74//74 5//5 
f 76//76 97//97 71//71 
f 71//71 97//97 70//70 
f 28//28 22//22 41//41 
f 41//41 22//22 8//8 
f 86//86 13//13 28//28 
f 51//51 88//88 70//70 
f 5//5 119//119 108//108 
f 6//6 9//9 69//69 
f 17//17 10//10 72//72 
f 9//9 94//94 69//69 
f 12//12 72//72 10//10 
f 119//119 5//5 56//56 
f 86//86 21//21 66//66 
f 86//86 66//66 13//13 
f 13//13 22//22 28//28 
f 51//51 21//21 88//88 
f 97//97 76//76 25//25 
f 88//88 21//21 86//86 
f 97//97 25//25 51//51 
f 94//94 48//48 69//69 
f 73//73 1//1 82//82 
f 94//94 17//17 48//48 
f 22//22 13//13 30//30 
f 73//73 82//82 118//118 
f 66//66 30//30 13//13 
f 17//17 120//120 31//31 
f 8//8 98//98 73//73 
f 83//83 69//69 48//48 
f 6//6 69//69 83//83 
f 63//63 8//8 22//22 
f 14//14 31//31 7//7 
f 14//14 7//7 11//11 
f 14//14 11//11 48//48 
f 21//21 29//29 66//66 
f 120//120 32//32 89//89 
f 31//31 89//89 65//65 
f 106//106 1//1 27//27 
f 82//82 1//1 106//106 
f 15//15 98//98 8//8 
f 8//8 63//63 15//15 
f 21//21 59//59 29//29 
f 6//6 83//83 77//77 
f 89//89 32//32 101//101 
f 66//66 92//92 30//30 
f 116//116 38//38 36//36 
f 66//66 29//29 92//92 
f 30//30 92//92 2//2 
f 30//30 2//2 63//63 
f 2//2 34//34 15//15 
f 98//98 15//15 102//102 
f 15//15 52//52 103//103 
f 112//112 26//26 104//104 
f 29//29 37//37 92//92 
f 25//25 23//23 51//51 
f 7//7 31//31 65//65 
f 77//77 83//83 53//53 
f 11//11 58//58 83//83 
f 77//77 90//90 107//107 
f 112//112 95//95 26//26 
f 34//34 95//95 113//113 
f 117//117 100//100 54//54 
f 59//59 24//24 29//29 
f 33//33 95//95 34//34 
f 38//38 62//62 36//36 
f 36//36 23//23 25//25 
f 92//92 47//47 2//2 
f 23//23 24//24 59//59 
f 37//37 29//29 24//24 
f 37//37 47//47 92//92 
f 2//2 47//47 87//87 
f 2//2 87//87 34//34 
f 114//114 55//55 90//90 
f 62//62 35//35 36//36 
f 53//53 83//83 58//58 
f 53//53 58//58 115//115 
f 87//87 33//33 34//34 
f 11//11 7//7 58//58 
f 65//65 50//50 7//7 
f 117//117 54//54 111//111 
f 33//33 54//54 95//95 
f 50//50 46//46 7//7 
f 96//96 87//87 47//47 
f 35//35 91//91 24//24 
f 90//90 55//55 43//43 
f 90//90 43//43 62//62 
f 62//62 78//78 35//35 
f 62//62 43//43 78//78 
f 67//67 87//87 96//96 
f 67//67 33//33 87//87 
f 91//91 35//35 78//78 
f 79//79 75//75 96//96 
f 75//75 67//67 96//96 
f 61//61 111//111 54//54 
f 75//75 64//64 67//67 
f 61//61 64//64 42//42 
f 44//44 42//42 75//75 
f 42//42 64//64 75//75 
f 60//60 75//75 79//79 
f 39//39 78//78 43//43 
f 78//78 60//60 91//91 
f 78//78 39//39 44//44 
f 44//44 75//75 60//60 
f 93//93 42//42 39//39 
f 55//55 93//93 43//43 
f 43//43 93//93 39//39 
f 79//79 91//91 60//60 
f 109//109 122//122 58//58 
f 110//110 42//42 93//93 
f 44//44 60//60 78//78 
f 42//42 44//44 39//39 
f 64//64 33//33 67//67 
f 61//61 42//42 110//110 
f 111//111 61//61 110//110 
f 61//61 33//33 64//64 
f 61//61 54//54 33//33 
f 58//58 122//122 115//115 
f 58//58 7//7 46//46 
f 79//79 47//47 24//24 
f 24//24 47//47 37//37 
f 79//79 96//96 47//47 
f 91//91 79//79 24//24 
f 35//35 24//24 23//23 
f 36//36 35//35 23//23 
f 38//38 90//90 62//62 
f 95//95 54//54 26//26 
f 77//77 114//114 90//90 
f 121//121 100//100 117//117 
f 52//52 15//15 34//34 
f 59//59 51//51 23//23 
f 121//121 105//105 100//100 
f 63//63 2//2 15//15 
f 48//48 11//11 83//83 
f 56//56 77//77 107//107 
f 51//51 59//59 21//21 
f 116//116 36//36 25//25 
f 120//120 89//89 31//31 
f 5//5 6//6 77//77 
f 5//5 77//77 56//56 
f 30//30 63//63 22//22 
f 76//76 116//116 25//25 
f 14//14 17//17 31//31 
f 14//14 48//48 17//17 
f 10//10 17//17 94//94 
f 97//97 51//51 70//70 
f 72//72 120//120 17//17 
f 45//45 76//76 71//71 
f 118//118 12//12 73//73 
f 73//73 12//12 85//85 
f 4//4 16//16 10//10 
f 57//57 73//73 85//85 
f 41//41 57//57 3//3 
f 4//4 81//81 16//16 
f 40//40 85//85 12//12 
f 16//16 81//81 40//40 
f 40//40 3//3 85//85 
f 18//18 49//49 81//81 
f 49//49 40//40 81//81 
f 49//49 3//3 40//40 
f 84//84 68//68 80//80 
f 84//84 80//80 49//49 
f 49//49 18//18 84//84 
f 74//74 18//18 99//99 
f 74//74 45//45 84//84 
f 71//71 68//68 84//84 
f 80//80 19//19 3//3 
f 3//3 19//19 41//41 
f 80//80 68//68 19//19 
f 99//99 18//18 4//4 
f 4//4 18//18 81//81 
f 80//80 3//3 49//49 
f 74//74 84//84 18//18 
f 16//16 40//40 12//12 
f 57//57 85//85 3//3 
f 16//16 12//12 10//10 
f 20//20 4//4 9//9 
f 9//9 10//10 94//94 
