#
# Compatibility version : brain5.0i
# File ID : MM179M
# Representation ID : BP58075
# Build-up logic : FMA 3.2.1-inference part_of
# Concept ID : FMA72832
# English name : Right amygdala
# Bounds(mm): (-30.987900,-109.821800,1528.939300)-(-14.739600,-91.926800,1540.427000)
# Volume(cm3): 1.289900
#
v -19.8028 -104.879 1528.94
v -19.232 -106.568 1529.35
v -16.5262 -103.938 1529.54
v -16.9705 -102.61 1529.11
v -18.4203 -101.341 1529.66
v -17.1385 -100.814 1538.27
v -22.1453 -97.2583 1538.59
v -18.9632 -97.6707 1536.62
v -16.7805 -100.969 1529.8
v -18.6756 -98.8732 1532.12
v -16.7975 -105.762 1530.17
v -16.3476 -106.579 1532.67
v -15.3233 -104.275 1531.6
v -16.8087 -106.126 1536.37
v -17.7177 -104.297 1538.99
v -16.0374 -103.345 1537.53
v -15.4166 -104.799 1534.47
v -16.2665 -99.8959 1536.87
v -17.7778 -102.244 1539.38
v -17.991 -106.021 1538.12
v -18.3318 -107.881 1530.61
v -17.7829 -107.749 1533.46
v -20.0637 -100.7 1539.92
v -19.6492 -102.386 1540.19
v -19.6696 -107.671 1536.93
v -20.4409 -103.193 1529.6
v -21.6863 -97.7773 1533.86
v -20.1866 -96.6731 1535.57
v -20.2376 -99.8308 1531.68
v -17.1465 -98.4331 1533.83
v -21.5382 -109.156 1530.55
v -20.3103 -106.09 1539.04
v -21.3634 -103.611 1540.28
v -21.4139 -108.982 1534.72
v -22.5656 -102.116 1531.16
v -24.7464 -94.051 1536.96
v -23.3027 -94.742 1535.71
v -22.3596 -101.292 1540.39
v -24.4991 -96.4643 1534.22
v -24.1825 -105.487 1529.5
v -23.8016 -98.1783 1539.54
v -23.5796 -99.8285 1532.81
v -27.0783 -99.3601 1532.71
v -26.0549 -101.951 1531.5
v -23.5872 -105.729 1539.87
v -25.8649 -92.7539 1535.37
v -26.5505 -93.5865 1534.62
v -27.3316 -96.869 1533.76
v -26.9982 -91.9268 1535.65
v -26.2107 -94.3124 1537.54
v -23.3596 -107.717 1538.67
v -23.3448 -108.179 1529.3
v -24.5364 -103.173 1540.43
v -24.0967 -109.7 1530.59
v -24.0536 -109.822 1533.72
v -25.6363 -99.8107 1539.83
v -27.1879 -96.049 1537.94
v -27.3554 -92.9253 1536.2
v -27.3497 -93.6703 1535.25
v -25.9497 -105.136 1539.8
v -24.2353 -108.939 1537.03
v -25.9854 -107.665 1529.46
v -28.0217 -104.237 1530.38
v -25.9215 -109.238 1530.41
v -27.9056 -95.8136 1536.44
v -28.7019 -97.3427 1534.61
v -26.2477 -107.349 1538.39
v -29.0477 -99.0209 1536.92
v -26.4298 -109.618 1532.49
v -27.2574 -103.524 1539.63
v -27.7031 -100.53 1539.27
v -27.9391 -107.205 1530.1
v -26.6276 -109.124 1535.33
v -30.1522 -100.207 1532.19
v -30.3443 -101.71 1531.23
v -29.1004 -103.268 1538.42
v -28.3603 -107.53 1536.7
v -28.5616 -107.922 1531.35
v -29.187 -107.603 1533.55
v -29.6902 -101.85 1537.55
v -29.0931 -105.517 1537.68
v -30.6981 -103.851 1535.47
v -30.6491 -100.914 1533.18
v -30.8098 -102.039 1534.74
v -30.9879 -103.122 1532.23
v -30.8317 -105.177 1533.33
v -30.0956 -106.12 1535.42
v -30.5254 -105.412 1531.8
v -29.9978 -104.949 1530.9
v -16.0395 -99.32 1535.4
v -16.1508 -99.7799 1531.51
v -15.2054 -101.358 1535.86
v -15.3127 -100.709 1531.28
v -15.3107 -99.9776 1533.33
v -15.468 -102.115 1530.26
v -14.7396 -101.891 1532.55
v -14.8456 -102.912 1534.65
v -16.9705 -102.61 1529.11
v -16.7975 -105.762 1530.17
v -18.3318 -107.881 1530.61
v -20.1866 -96.6731 1535.57
v -21.5382 -109.156 1530.55
v -23.3027 -94.742 1535.71
v -25.8649 -92.7539 1535.37
v -26.5505 -93.5865 1534.62
v -27.3316 -96.869 1533.76
v -26.9982 -91.9268 1535.65
v -26.9982 -91.9268 1535.65
v -26.9982 -91.9268 1535.65
v -26.9982 -91.9268 1535.65
v -24.0967 -109.7 1530.59
v -27.3554 -92.9253 1536.2
v -27.3554 -92.9253 1536.2
v -27.3497 -93.6703 1535.25
v -25.9854 -107.665 1529.46
v -28.7019 -97.3427 1534.61
v -27.9391 -107.205 1530.1
v -30.1522 -100.207 1532.19
v -30.1522 -100.207 1532.19
v -30.3443 -101.71 1531.23
v -30.3443 -101.71 1531.23
v -29.9978 -104.949 1530.9
vn -0.0163347 0.041303 -0.999013
vn 0.274451 -0.397912 -0.87541
vn 0.543014 -0.236404 -0.80576
vn -0.0731867 0.319109 -0.944888
vn -0.193633 0.478856 -0.856273
vn 0.613277 0.390374 0.686658
vn 0.333416 0.574438 0.747566
vn 0.524515 0.768011 0.367481
vn 0.296885 0.566014 -0.769082
vn 0.0126131 0.792709 -0.609469
vn 0.790636 -0.472207 -0.389764
vn 0.778114 -0.623923 -0.072513
vn 0.914301 -0.310976 -0.259514
vn 0.70805 -0.606146 0.362288
vn 0.50951 -0.328686 0.795214
vn 0.837543 -0.146619 0.526331
vn 0.899813 -0.405837 0.160104
vn 0.697835 0.503719 0.509209
vn 0.560649 0.107616 0.82103
vn 0.485365 -0.618614 0.61785
vn 0.522788 -0.846311 -0.102226
vn 0.507076 -0.853305 0.121424
vn 0.298274 0.365607 0.881683
vn 0.258028 -0.0122078 0.96606
vn 0.357297 -0.826837 0.434372
vn -0.294445 0.431162 -0.852879
vn -0.0143007 0.619713 -0.784698
vn 0.201573 0.792082 -0.576172
vn -0.308047 0.579358 -0.75462
vn 0.483973 0.863111 -0.144256
vn 0.204271 -0.611752 -0.76422
vn 0.258403 -0.531294 0.806817
vn 0.141303 -0.21687 0.96592
vn 0.306739 -0.940521 0.146051
vn -0.20825 0.533381 -0.819839
vn 0.451475 0.75386 0.477352
vn 0.544407 0.817235 0.18907
vn 0.0347949 0.139422 0.989622
vn 0.161101 0.407654 -0.898813
vn -0.136843 0.29762 -0.944826
vn 0.0565069 0.38991 0.919118
vn 0.0112357 0.476413 -0.87915
vn 0.0616237 0.431588 -0.899963
vn -0.0134384 0.478317 -0.878084
vn -0.00390154 -0.400665 0.916216
vn 0.313472 0.479958 -0.819375
vn 0.295979 0.403732 -0.865677
vn 0.087751 0.338331 -0.936927
vn 0.609295 0.767816 0.198038
vn -0.084948 0.508909 0.856619
vn 0.0840152 -0.690403 0.718529
vn 0.00759527 -0.380993 -0.924547
vn -0.117193 -0.0642149 0.991031
vn -0.0258849 -0.994236 -0.104043
vn 0.0625 -0.992351 0.106456
vn -0.219036 0.222668 0.94997
vn -0.609019 0.334774 0.719043
vn -0.352839 0.482164 0.801887
vn -0.966937 0.246555 -0.0651326
vn -0.279831 -0.325452 0.903203
vn 0.0249639 -0.902278 0.430432
vn -0.17327 0.100201 -0.979764
vn -0.138371 0.249778 -0.958365
vn -0.327299 -0.710241 -0.623244
vn -0.934221 0.289725 0.208065
vn -0.572143 0.526065 -0.629211
vn -0.338792 -0.605948 0.719755
vn -0.866031 0.345339 0.361567
vn -0.366952 -0.928449 -0.0576955
vn -0.435778 -0.143725 0.888505
vn -0.579322 0.189735 0.792709
vn -0.53547 -0.51367 -0.670385
vn -0.353323 -0.888655 0.292327
vn 0.0205555 0.467318 -0.88385
vn 0.0548431 0.476223 -0.877613
vn -0.72785 -0.0689913 0.682257
vn -0.59779 -0.682184 0.421038
vn -0.660051 -0.637617 -0.397212
vn -0.713387 -0.699864 0.0356265
vn -0.845443 0.151964 0.511989
vn -0.684535 -0.354997 0.636701
vn -0.942813 -0.101709 0.317425
vn -0.939571 0.340253 -0.0378728
vn -0.963111 0.179604 0.2004
vn -0.979366 0.0112342 -0.201781
vn -0.945141 -0.326088 0.019362
vn -0.842138 -0.460031 0.28138
vn -0.865916 -0.381775 -0.323167
vn -0.772708 -0.239168 -0.587981
vn 0.725129 0.659809 0.197079
vn 0.449555 0.781711 -0.432236
vn 0.917449 0.216722 0.333645
vn 0.783463 0.460807 -0.416945
vn 0.826181 0.561108 -0.0508191
vn 0.793142 0.0699437 -0.605007
vn 0.99149 0.0867613 -0.097054
vn 0.976417 -0.15322 0.152099
vn 0.475793 0.00244108 -0.879554
vn 0.407458 -0.408021 -0.817005
vn 0.331237 -0.524 -0.78467
vn 0.538919 0.827278 0.158672
vn 0.290276 -0.956924 0.00602132
vn 0.341467 0.505185 -0.792583
vn 0.593221 0.775599 0.215719
vn -0.608024 0.312776 -0.729711
vn -0.586351 0.463279 -0.664504
vn 0.206431 0.555555 -0.805447
vn -0.0513145 0.609224 0.791336
vn -0.952893 0.235862 -0.190692
vn -0.61079 0.292002 -0.735983
vn 0.0262497 -0.65553 -0.754713
vn -0.964466 0.205057 -0.166603
vn -0.870309 0.202715 0.448852
vn -0.598094 0.32256 -0.733647
vn -0.264992 -0.50765 -0.819799
vn -0.912332 0.399945 0.0877138
vn -0.288313 0.082138 -0.954007
vn -0.539848 0.685773 -0.48814
vn -0.902027 0.396765 -0.170071
vn -0.276917 0.0667504 -0.958573
vn -0.913743 0.171796 -0.368185
vn -0.279413 0.0746254 -0.957267
g grp1
usemtl mtl1
f 3//3 2//2 1//1 
f 5//5 4//4 1//1 
f 8//8 7//7 6//6 
f 5//5 10//10 9//9 
f 13//13 12//12 11//11 
f 16//16 15//15 14//14 
f 16//16 14//14 17//17 
f 17//17 14//14 12//12 
f 1//1 98//98 3//3 
f 18//18 8//8 6//6 
f 6//6 19//19 16//16 
f 19//19 15//15 16//16 
f 15//15 20//20 14//14 
f 2//2 3//3 99//99 
f 12//12 22//22 21//21 
f 14//14 22//22 12//12 
f 6//6 23//23 19//19 
f 7//7 23//23 6//6 
f 19//19 24//24 15//15 
f 14//14 20//20 25//25 
f 99//99 100//100 2//2 
f 26//26 5//5 1//1 
f 28//28 10//10 27//27 
f 26//26 29//29 5//5 
f 10//10 28//28 30//30 
f 31//31 2//2 100//100 
f 33//33 32//32 15//15 
f 24//24 33//33 15//15 
f 19//19 23//23 24//24 
f 20//20 32//32 25//25 
f 34//34 21//21 22//22 
f 15//15 32//32 20//20 
f 25//25 34//34 22//22 
f 26//26 35//35 29//29 
f 37//37 36//36 8//8 
f 35//35 27//27 29//29 
f 38//38 24//24 23//23 
f 101//101 37//37 8//8 
f 24//24 38//38 33//33 
f 39//39 103//103 27//27 
f 8//8 36//36 7//7 
f 35//35 26//26 40//40 
f 40//40 26//26 1//1 
f 23//23 7//7 41//41 
f 43//43 39//39 42//42 
f 44//44 43//43 42//42 
f 35//35 44//44 42//42 
f 33//33 45//45 32//32 
f 47//47 46//46 103//103 
f 48//48 47//47 39//39 
f 49//49 36//36 104//104 
f 104//104 36//36 37//37 
f 7//7 36//36 50//50 
f 50//50 41//41 7//7 
f 45//45 51//51 32//32 
f 52//52 40//40 1//1 
f 107//107 46//46 47//47 
f 38//38 53//53 33//33 
f 55//55 54//54 102//102 
f 53//53 45//45 33//33 
f 56//56 53//53 38//38 
f 41//41 56//56 38//38 
f 50//50 57//57 56//56 
f 108//108 50//50 36//36 
f 108//108 58//58 50//50 
f 109//109 59//59 112//112 
f 53//53 60//60 45//45 
f 25//25 61//61 34//34 
f 48//48 39//39 43//43 
f 62//62 40//40 52//52 
f 40//40 63//63 44//44 
f 111//111 64//64 52//52 
f 59//59 65//65 112//112 
f 113//113 65//65 57//57 
f 66//66 114//114 106//106 
f 45//45 67//67 51//51 
f 57//57 65//65 68//68 
f 55//55 69//69 54//54 
f 34//34 61//61 55//55 
f 56//56 70//70 53//53 
f 51//51 67//67 61//61 
f 67//67 45//45 60//60 
f 53//53 70//70 60//60 
f 71//71 70//70 56//56 
f 57//57 71//71 56//56 
f 64//64 72//72 115//115 
f 55//55 73//73 69//69 
f 63//63 40//40 62//62 
f 117//117 63//63 62//62 
f 57//57 68//68 71//71 
f 63//63 43//43 44//44 
f 43//43 74//74 48//48 
f 118//118 66//66 106//106 
f 65//65 116//116 68//68 
f 43//43 75//75 74//74 
f 70//70 71//71 76//76 
f 67//67 77//77 73//73 
f 78//78 72//72 64//64 
f 69//69 78//78 64//64 
f 73//73 79//79 69//69 
f 79//79 78//78 69//69 
f 76//76 71//71 80//80 
f 71//71 68//68 80//80 
f 79//79 73//73 77//77 
f 76//76 82//82 81//81 
f 76//76 80//80 82//82 
f 116//116 119//119 83//83 
f 80//80 84//84 82//82 
f 85//85 84//84 83//83 
f 82//82 85//85 86//86 
f 82//82 84//84 85//85 
f 81//81 82//82 87//87 
f 78//78 79//79 88//88 
f 77//77 87//87 79//79 
f 86//86 88//88 79//79 
f 87//87 82//82 86//86 
f 88//88 85//85 89//89 
f 78//78 89//89 72//72 
f 88//88 89//89 78//78 
f 87//87 77//77 81//81 
f 63//63 122//122 120//120 
f 89//89 85//85 121//121 
f 79//79 87//87 86//86 
f 88//88 86//86 85//85 
f 80//80 68//68 84//84 
f 121//121 85//85 83//83 
f 121//121 83//83 119//119 
f 84//84 68//68 83//83 
f 68//68 116//116 83//83 
f 117//117 122//122 63//63 
f 75//75 43//43 63//63 
f 67//67 70//70 81//81 
f 60//60 70//70 67//67 
f 70//70 76//76 81//81 
f 67//67 81//81 77//77 
f 61//61 67//67 73//73 
f 61//61 73//73 55//55 
f 69//69 64//64 54//54 
f 59//59 116//116 65//65 
f 64//64 115//115 52//52 
f 106//106 114//114 105//105 
f 57//57 50//50 58//58 
f 61//61 25//25 51//51 
f 114//114 110//110 105//105 
f 50//50 56//56 41//41 
f 40//40 44//44 35//35 
f 111//111 52//52 31//31 
f 32//32 51//51 25//25 
f 34//34 55//55 102//102 
f 39//39 47//47 103//103 
f 52//52 1//1 2//2 
f 31//31 52//52 2//2 
f 23//23 41//41 38//38 
f 34//34 102//102 21//21 
f 39//39 27//27 42//42 
f 27//27 35//35 42//42 
f 29//29 27//27 10//10 
f 14//14 25//25 22//22 
f 27//27 103//103 28//28 
f 12//12 21//21 11//11 
f 8//8 30//30 101//101 
f 90//90 30//30 8//8 
f 10//10 91//91 9//9 
f 90//90 8//8 18//18 
f 92//92 18//18 6//6 
f 91//91 93//93 9//9 
f 30//30 90//90 94//94 
f 94//94 93//93 91//91 
f 90//90 92//92 94//94 
f 93//93 96//96 95//95 
f 93//93 94//94 96//96 
f 94//94 92//92 96//96 
f 97//97 17//17 13//13 
f 96//96 97//97 13//13 
f 13//13 95//95 96//96 
f 98//98 95//95 3//3 
f 13//13 11//11 3//3 
f 13//13 17//17 12//12 
f 92//92 16//16 97//97 
f 6//6 16//16 92//92 
f 16//16 17//17 97//97 
f 9//9 95//95 98//98 
f 93//93 95//95 9//9 
f 96//96 92//92 97//97 
f 95//95 13//13 3//3 
f 30//30 94//94 91//91 
f 92//92 90//90 18//18 
f 10//10 30//30 91//91 
f 5//5 9//9 4//4 
f 29//29 10//10 5//5 
