<?xml version="1.0" encoding="UTF-8"?>
<!-- Generator: visioncortex VTracer 0.6.12 -->
<svg version="1.1" xmlns="http://www.w3.org/2000/svg" viewBox="0 0 2048 2048">
<path d="M0 0 C16.58 14.32 23.65 34.45 29.38 54.94 C29.58 55.67 29.79 56.41 30.01 57.17 C38.55 87.48 45.53 118.21 52.38 148.94 C52.64 150.14 52.91 151.34 53.19 152.58 C53.95 155.98 54.7 159.39 55.45 162.79 C55.68 163.81 55.9 164.83 56.14 165.89 C56.34 166.83 56.55 167.76 56.76 168.73 C56.94 169.55 57.12 170.36 57.31 171.2 C57.69 173.31 57.69 173.31 57.69 176.31 C65.24 170.52 72.2 164.24 79.14 157.75 C82.94 154.22 86.82 150.77 90.69 147.31 C92.35 145.81 94.02 144.31 95.69 142.81 C98.16 140.58 100.64 138.36 103.12 136.13 C109.17 130.7 115.17 125.22 121.16 119.72 C123.66 117.42 126.18 115.11 128.69 112.81 C129.69 111.9 130.69 110.98 131.69 110.06 C133.69 108.23 135.69 106.4 137.69 104.56 C138.18 104.11 138.68 103.65 139.19 103.19 C140.19 102.27 141.18 101.36 142.18 100.45 C144.73 98.11 147.28 95.77 149.83 93.42 C154.69 88.95 159.58 84.51 164.58 80.17 C167.23 77.84 169.83 75.45 172.44 73.06 C172.69 72.83 172.69 72.83 173.99 71.64 C176.54 69.3 179.08 66.95 181.6 64.58 C214.97 33.46 214.97 33.46 237.04 34 C246.15 35.08 254.46 39.3 260.37 46.31 C277.15 69.75 272.51 104.52 269.69 131.38 C269.58 132.44 269.47 133.5 269.36 134.59 C264.96 177.96 259.09 221.2 252.69 264.31 C253.57 264.73 254.46 265.16 255.37 265.59 C288.78 281.55 321.55 298.65 351.69 320.31 C353.18 321.37 354.67 322.43 356.16 323.48 C410.6 362.29 441.65 403.74 457.39 469.41 C469.52 519.75 492.09 558.27 536.87 585.84 C541.11 588.39 545.39 590.86 549.69 593.31 C550.65 593.86 551.62 594.42 552.62 594.98 C564.79 601.9 577.06 608.63 589.39 615.28 C597.97 619.91 606.51 624.62 615.04 629.34 C623.36 633.94 631.7 638.49 640.06 643 C649.73 648.22 659.31 653.58 668.86 659.01 C674.85 662.41 680.86 665.77 686.88 669.12 C699.35 676.1 711.77 683.18 724.17 690.3 C726.52 691.65 728.88 692.99 731.23 694.34 C777.4 720.69 777.4 720.69 783.69 737.31 C789.72 761.2 775.32 787.35 763.69 807.31 C756.12 819.61 747.98 831.26 738.69 842.31 C738.16 842.96 737.62 843.6 737.08 844.26 C708.36 879 674.06 899.09 629.69 907.31 C628.81 907.48 627.92 907.65 627.02 907.82 C593.86 913.82 556.91 912.07 523.69 907.31 C523.1 907.23 523.1 907.23 520.14 906.81 C469.21 899.3 419.7 883.56 372.06 864.38 C371.14 864 370.21 863.63 369.26 863.25 C366.61 862.19 363.97 861.11 361.34 860.04 C360.55 859.72 359.76 859.4 358.95 859.08 C351.98 856.2 346.29 853.25 342.69 846.31 C341.17 840.54 341.56 836.71 344.27 831.37 C346.8 827.69 349.55 825.88 353.69 824.31 C362.58 822.92 369.26 825.79 377.12 829.62 C379.53 830.74 381.93 831.85 384.34 832.96 C384.95 833.24 385.56 833.52 386.19 833.81 C438.44 857.88 496.36 874.4 553.69 879.31 C555.07 879.44 556.45 879.58 557.84 879.71 C603.11 883.46 653.82 878.08 690.5 848.88 C710.04 832.19 710.04 832.19 711 822 C710.57 816.93 708.59 814.01 704.88 810.7 C702.7 808.96 700.49 807.29 698.25 805.62 C696.63 804.39 695 803.15 693.38 801.91 C692.59 801.3 691.79 800.69 690.97 800.07 C672.74 786.03 660.54 772.29 657.32 748.64 C657.02 745.82 656.74 743.01 656.54 740.19 C656.26 739.57 655.98 738.95 655.69 738.31 C653.7 737.62 651.69 736.96 649.69 736.31 C646.82 735.12 644 733.82 641.18 732.52 C640.35 732.15 639.53 731.77 638.68 731.39 C636.9 730.58 635.12 729.77 633.34 728.96 C628.6 726.79 623.85 724.64 619.1 722.48 C618.13 722.05 617.17 721.61 616.18 721.16 C447.99 644.87 447.99 644.87 368.07 666.18 C330.21 676.19 291.42 668.44 257.88 649 C248.85 643.64 240.16 637.72 231.48 631.82 C212.59 619.05 212.59 619.05 203 615.5 C202.5 615.31 202.5 615.31 199.99 614.36 C170.71 605.1 142.33 614.98 116.25 628.5 C105.41 634.24 95 640.68 84.69 647.31 C84.09 647.7 83.5 648.08 82.88 648.47 C64.1 660.6 45.79 673.78 28.95 688.49 C25.94 691.11 22.86 693.63 19.75 696.12 C16.1 699.09 12.72 702.15 9.46 705.54 C7.73 707.27 5.94 708.85 4.08 710.43 C-0.79 714.66 -5.33 719.18 -9.88 723.75 C-10.28 724.15 -10.28 724.15 -12.33 726.2 C-17.2 731.07 -21.83 736.08 -26.31 741.31 C-27.24 742.36 -28.16 743.41 -29.09 744.45 C-41.68 758.78 -53.16 774.16 -63.31 790.31 C-63.71 790.95 -64.11 791.58 -64.52 792.23 C-92.73 837.37 -92.73 837.37 -90.31 860.31 C-88.75 866.44 -86.02 872.35 -80.81 876.12 C-71.07 880.75 -61.03 877.53 -51.31 874.31 C-46.26 872.51 -41.25 870.59 -36.24 868.68 C-12.4 859.61 -12.4 859.61 -1.31 859.31 C-1.75 859.99 -2.18 860.67 -2.63 861.37 C-3.89 863.34 -5.15 865.31 -6.39 867.28 C-7.51 869.04 -8.62 870.79 -9.76 872.53 C-21.48 891.06 -28.99 911.78 -33.62 933.12 C-33.77 933.8 -33.92 934.48 -34.07 935.18 C-36.86 949.18 -37.69 963.2 -37.62 977.44 C-37.62 978.24 -37.62 979.05 -37.62 979.87 C-37.57 993.21 -36.78 1006.18 -34.31 1019.31 C-34.15 1020.22 -33.98 1021.14 -33.81 1022.08 C-25.12 1068.63 -5.99 1114.5 22.69 1152.31 C23.12 1152.89 23.56 1153.47 24.01 1154.07 C29.65 1161.52 35.58 1168.59 41.98 1175.4 C44.04 1177.61 46.02 1179.84 47.99 1182.13 C51.85 1186.56 55.96 1190.73 60.12 1194.88 C60.84 1195.59 61.55 1196.31 62.28 1197.04 C66.92 1201.67 71.72 1206.04 76.69 1210.31 C77.84 1211.33 79 1212.36 80.15 1213.38 C89.33 1221.49 98.86 1229.02 108.69 1236.31 C109.39 1236.84 110.1 1237.36 110.82 1237.91 C139.46 1259.2 139.46 1259.2 151.69 1265.31 C151.09 1261.02 150.44 1256.74 149.74 1252.47 C147.8 1240.6 146.21 1228.7 144.67 1216.77 C144.09 1212.29 143.47 1207.82 142.77 1203.35 C138.89 1177.81 138.96 1150.72 143.69 1125.31 C143.85 1124.39 144.01 1123.48 144.18 1122.53 C149.45 1093.02 160.95 1064.56 178.69 1040.31 C179.09 1039.75 179.5 1039.19 179.92 1038.62 C185.97 1030.33 192.62 1022.73 199.69 1015.31 C200.45 1014.48 201.22 1013.65 202.01 1012.8 C217.78 996.22 238.02 983.83 258.69 974.31 C259.01 974.16 259.01 974.16 260.64 973.4 C273.52 967.5 287 963.84 300.69 960.31 C301.94 959.98 303.19 959.65 304.48 959.31 C316.31 956.49 328.6 955.5 340.69 954.31 C341.71 954.21 342.74 954.11 343.8 954.01 C352.71 953.22 361.56 953.2 370.5 953.25 C371.98 953.26 373.46 953.26 374.95 953.26 C378.53 953.27 382.11 953.29 385.69 953.31 C383.05 955.95 380.7 956.32 377.12 957.38 C348.74 966.39 327.69 986.59 313.27 1012.21 C305.68 1027.08 300.74 1043.75 298.69 1060.31 C298.63 1060.76 298.63 1060.76 298.35 1063 C293.09 1111.98 315.26 1155.87 338.88 1197.14 C375.51 1261.38 375.51 1261.38 367.69 1295.31 C362.02 1315.59 349.43 1330.59 331.41 1341.25 C310.69 1352.25 287.4 1354.58 264.31 1355.5 C263.86 1355.52 263.86 1355.52 261.54 1355.62 C218.47 1357.41 174.66 1357.94 131.69 1354.31 C130.09 1354.18 128.49 1354.05 126.9 1353.92 C48.61 1347.44 -29.14 1332.06 -142.31 1286.31 C-143.23 1285.89 -144.15 1285.46 -145.1 1285.02 C-192.61 1262.91 -237.03 1235.6 -278.31 1203.31 C-279.45 1202.43 -280.59 1201.55 -281.73 1200.67 C-290.15 1194.14 -298.28 1187.31 -306.31 1180.31 C-307.07 1179.65 -307.83 1179 -308.62 1178.32 C-313.91 1173.72 -319.12 1169.02 -324.31 1164.31 C-325.21 1163.51 -326.11 1162.71 -327.03 1161.88 C-334.64 1155.01 -341.93 1147.8 -349.19 1140.56 C-349.69 1140.07 -350.18 1139.57 -350.7 1139.06 C-355.92 1133.86 -361.05 1128.63 -365.84 1123.03 C-367.9 1120.63 -370.04 1118.32 -372.19 1116 C-376.28 1111.52 -380.16 1106.91 -383.97 1102.19 C-386.06 1099.62 -388.19 1097.09 -390.35 1094.58 C-395.75 1088.26 -400.93 1081.81 -405.92 1075.16 C-406.89 1073.88 -407.85 1072.6 -408.82 1071.32 C-416.45 1061.26 -423.68 1050.95 -430.69 1040.44 C-431.06 1039.88 -431.43 1039.32 -431.82 1038.75 C-483.26 961.57 -517.03 871.71 -519.31 778.31 C-519.33 777.44 -519.36 776.57 -519.38 775.67 C-521.28 685.13 -492.43 596.96 -445.31 520.31 C-444.74 519.38 -444.16 518.44 -443.57 517.48 C-431.78 498.41 -418.97 480.08 -405.31 462.31 C-404.85 461.71 -404.38 461.1 -403.9 460.48 C-398.1 452.95 -392.1 445.62 -385.93 438.39 C-383.52 435.58 -381.19 432.7 -378.88 429.81 C-374.54 424.48 -369.91 419.45 -365.21 414.43 C-362.72 411.77 -360.29 409.05 -357.88 406.31 C-353.73 401.67 -349.34 397.3 -344.91 392.93 C-342.15 390.19 -339.48 387.45 -337 384.44 C-334.52 381.44 -331.74 379.04 -328.78 376.53 C-325.5 373.58 -322.41 370.45 -319.31 367.31 C-315.09 363.05 -310.87 358.89 -306.29 355.01 C-303.8 352.88 -301.41 350.66 -299 348.44 C-293.6 343.52 -288.01 338.88 -282.31 334.31 C-281.19 333.4 -280.07 332.49 -278.95 331.57 C-271.83 325.79 -264.57 320.2 -257.19 314.75 C-256.38 314.15 -255.58 313.56 -254.75 312.94 C-248.68 308.5 -248.68 308.5 -245.67 306.99 C-242.56 304.78 -242.29 303.19 -241.43 299.51 C-241.13 298.32 -240.84 297.13 -240.54 295.91 C-240.39 295.27 -240.24 294.64 -240.09 293.98 C-239.29 290.56 -238.41 287.17 -237.54 283.77 C-237.36 283.06 -237.18 282.36 -236.99 281.63 C-217.36 205.79 -173.94 135.65 -126.31 74.31 C-125.73 73.56 -125.15 72.81 -124.55 72.04 C-120.48 66.79 -116.4 61.55 -112.31 56.31 C-111.8 55.66 -111.3 55.01 -110.77 54.34 C-108.04 50.83 -105.29 47.33 -102.53 43.85 C-101.4 42.42 -100.28 41 -99.16 39.57 C-82.51 18.7 -60.61 -4.91 -32.86 -9.46 C-20.9 -10.51 -9.59 -7.25 0 0 Z " fill="#3E6B5C" transform="translate(891.3125,350.6875)"/>
<path d="M0 0 C14.1 9.48 27.88 18.57 43.81 24.75 C44.9 25.17 45.98 25.6 47.09 26.04 C55.08 29.12 62.97 31.79 71.38 33.5 C72.44 33.72 73.51 33.94 74.62 34.17 C97.6 38.17 120.9 34.96 143.12 28.66 C155.71 25.12 168.05 24.09 181.06 24.12 C181.44 24.13 181.44 24.13 183.38 24.13 C197.66 24.18 211.38 25.53 225.38 28.5 C225.91 28.61 225.91 28.61 228.59 29.17 C281.45 40.47 331.31 64.36 380.22 86.66 C381.9 87.43 383.58 88.19 385.26 88.96 C386.08 89.33 386.9 89.7 387.74 90.09 C392.19 92.1 396.66 94.05 401.17 95.94 C402.13 96.34 403.09 96.74 404.07 97.15 C405.91 97.91 407.75 98.67 409.59 99.42 C414.67 101.53 418.8 103.35 421.38 108.5 C421.68 110.61 421.99 112.71 422.27 114.82 C425.67 139.54 438.24 152.95 457.38 167.5 C458.59 168.42 459.81 169.33 461.03 170.25 C461.32 170.47 461.32 170.47 462.8 171.59 C464.4 172.8 466.02 174.01 467.63 175.21 C470.88 177.92 473.48 180.7 475.38 184.5 C475.87 190.99 474.4 194.96 470.36 200.03 C468.04 202.53 465.72 205.02 463.38 207.5 C463.1 207.8 463.1 207.8 461.72 209.35 C438.76 234.06 402.7 243.28 370.38 246.5 C369.3 246.61 368.22 246.72 367.11 246.84 C334.23 249.74 300.62 246.02 268.38 239.5 C267.32 239.29 266.27 239.08 265.18 238.86 C245.19 234.8 225.77 228.75 206.38 222.5 C205.71 222.29 205.05 222.07 204.37 221.85 C182.69 214.87 161.4 206.65 140.81 196.89 C124.82 189.33 124.82 189.33 115.3 192.11 C111.55 193.78 109.67 196.22 107.88 199.75 C105.63 205.65 106.23 209.78 108.69 215.62 C115.77 223.2 127.9 226.5 137.38 230.25 C138.02 230.51 138.67 230.76 139.33 231.03 C192.61 252.15 248.15 268.91 305.38 274.5 C305.83 274.55 305.83 274.55 308.14 274.79 C319.6 275.85 331.12 275.74 342.62 275.75 C343.74 275.75 344.86 275.75 346.02 275.75 C361.99 275.74 377.63 275.51 393.38 272.5 C394.35 272.32 395.33 272.14 396.34 271.95 C408.61 269.6 420.55 266.53 432.38 262.5 C425.61 284.29 405.68 301 386.27 311.52 C343.44 333.78 297.86 330.33 251.34 326.37 C176.84 320.04 176.84 320.04 140.56 320.25 C139.55 320.25 138.54 320.26 137.5 320.26 C122.4 320.31 107.37 320.52 92.38 322.5 C91.89 322.56 91.89 322.56 89.42 322.89 C42.94 329.32 0.59 347.16 -33.62 379.5 C-34.43 380.26 -35.24 381.01 -36.07 381.79 C-43.01 388.47 -48.93 395.76 -54.62 403.5 C-55.04 404.07 -55.46 404.64 -55.89 405.22 C-77.37 434.91 -89.06 469.42 -93.62 505.5 C-93.72 506.15 -93.81 506.81 -93.91 507.48 C-97.06 531.11 -94.76 555.87 -91.25 579.29 C-90.55 583.92 -89.93 588.57 -89.32 593.21 C-88.88 596.48 -88.44 599.74 -88 603 C-87.9 603.77 -87.79 604.55 -87.68 605.34 C-87.39 607.55 -87.08 609.76 -86.77 611.97 C-86.6 613.23 -86.43 614.49 -86.25 615.79 C-85.79 618.53 -85.25 621.11 -84.56 623.78 C-83.77 626.91 -83.43 629.31 -83.62 632.5 C-90.72 629.22 -97 625.05 -103.44 620.62 C-103.98 620.25 -104.53 619.88 -105.09 619.49 C-119.09 609.9 -132.92 600.13 -145.73 588.99 C-148.4 586.69 -151.12 584.5 -153.88 582.31 C-169.86 569.28 -185.39 554.33 -198.62 538.5 C-199.42 537.6 -200.21 536.7 -201.02 535.77 C-240.35 490.72 -266.03 431.7 -273.62 372.5 C-273.72 371.79 -273.82 371.08 -273.92 370.35 C-274.92 361.87 -274.87 353.34 -274.88 344.81 C-274.88 343.99 -274.88 343.17 -274.88 342.33 C-274.83 304.91 -266.43 254.3 -238.62 226.5 C-251.58 227.19 -263.7 232.49 -275.69 237.06 C-303.71 247.73 -303.71 247.73 -314.31 244.31 C-320.89 240.71 -324.7 235.48 -327.38 228.56 C-331.51 194.44 -301.7 155.45 -282.17 130.26 C-280.66 128.33 -279.15 126.42 -277.62 124.5 C-277.22 123.99 -277.22 123.99 -275.2 121.43 C-270.49 115.57 -265.52 110.01 -260.4 104.52 C-258.35 102.31 -256.37 100.05 -254.41 97.77 C-250.06 92.77 -245.38 88.11 -240.69 83.44 C-239.83 82.58 -238.98 81.72 -238.1 80.83 C-233.1 75.85 -227.98 71.1 -222.62 66.5 C-221.02 65.05 -219.41 63.59 -217.81 62.12 C-212.56 57.39 -207.14 52.92 -201.62 48.5 C-201.11 48.09 -200.59 47.67 -200.06 47.24 C-167.75 21.27 -130.88 -5.43 -91.31 -18.81 C-90.6 -19.06 -89.88 -19.3 -89.14 -19.55 C-55.26 -30.53 -27.94 -18.88 0 0 Z " fill="#A8C3B4" transform="translate(1127.625,984.5)"/>
<path d="M0 0 C-0.42 5.65 -0.99 11.22 -1.97 16.8 C-7.15 46.98 -7.72 79.86 -2 110 C-1.85 110.83 -1.7 111.66 -1.55 112.51 C-0.53 118.05 0.68 123.53 2 129 C2.17 129.72 2.33 130.44 2.51 131.17 C5.56 144.11 10.6 156.03 15.82 168.22 C17.46 172.09 19.01 176 20.5 179.94 C20.94 181.1 21.39 182.27 21.84 183.46 C29.3 206.27 24.41 227.55 13.97 248.4 C9.35 257.31 3.98 265.78 -1.33 274.3 C-34.74 328.24 -58.1 387.85 -66 451 C-66.12 451.88 -66.23 452.77 -66.35 453.68 C-71.58 494.78 -68.99 538.47 -61 579 C-60.8 580.04 -60.59 581.09 -60.38 582.16 C-48.64 640.78 -24.34 696.3 7 747 C7.61 748 8.23 748.99 8.86 750.02 C16.23 761.95 24 773.5 32.35 784.76 C34.06 787.08 35.75 789.41 37.43 791.74 C45.24 802.5 53.44 812.84 62 823 C62.99 824.19 63.98 825.37 64.97 826.56 C70.09 832.67 75.34 838.64 80.73 844.51 C82.73 846.7 84.69 848.93 86.62 851.19 C89.53 854.54 92.62 857.67 95.81 860.75 C97.7 862.7 99.46 864.69 101.22 866.75 C105.05 871.15 109.21 875.11 113.5 879.06 C118.22 883.44 122.9 887.84 127.42 892.44 C130.47 895.45 133.74 898.21 137 901 C138.08 901.93 139.16 902.86 140.23 903.79 C150.99 913.07 161.92 922.07 173.23 930.66 C174.43 931.57 175.62 932.47 176.82 933.39 C192.45 945.31 208.43 956.7 225.23 966.92 C226.87 967.92 228.51 968.95 230.14 969.97 C263.41 990.78 298.5 1007.68 335 1022 C335.45 1022.18 335.45 1022.18 337.74 1023.08 C366.6 1034.37 396.6 1042.17 427 1048 C427 1048.66 427 1049.32 427 1050 C416.35 1050.1 405.76 1049.83 395.12 1049.25 C394.34 1049.21 393.55 1049.16 392.74 1049.12 C313.44 1044.7 234.43 1030.65 101 980 C100.08 979.57 99.16 979.15 98.21 978.71 C50.7 956.6 6.29 929.29 -35 897 C-36.14 896.12 -37.28 895.24 -38.42 894.36 C-46.84 887.83 -54.97 881 -63 874 C-63.76 873.34 -64.52 872.68 -65.3 872 C-70.6 867.4 -75.81 862.71 -81 858 C-81.9 857.2 -82.79 856.39 -83.72 855.57 C-91.33 848.69 -98.62 841.49 -105.88 834.25 C-106.37 833.75 -106.87 833.26 -107.38 832.75 C-112.6 827.55 -117.73 822.31 -122.53 816.72 C-124.58 814.32 -126.73 812.01 -128.88 809.69 C-132.96 805.2 -136.85 800.6 -140.66 795.88 C-142.75 793.31 -144.88 790.78 -147.04 788.26 C-152.44 781.95 -157.62 775.49 -162.61 768.85 C-163.57 767.57 -164.54 766.29 -165.51 765.01 C-173.14 754.94 -180.37 744.63 -187.38 734.12 C-187.75 733.57 -188.12 733.01 -188.5 732.43 C-239.94 655.26 -273.72 565.4 -276 472 C-276.02 471.13 -276.04 470.25 -276.07 469.36 C-277.97 378.82 -249.12 290.64 -202 214 C-201.43 213.07 -200.85 212.13 -200.26 211.17 C-188.47 192.1 -175.66 173.77 -162 156 C-161.77 155.7 -161.77 155.7 -160.59 154.17 C-154.79 146.64 -148.79 139.31 -142.61 132.08 C-140.21 129.26 -137.88 126.39 -135.56 123.5 C-131.22 118.17 -126.6 113.14 -121.9 108.12 C-119.41 105.45 -116.98 102.74 -114.56 100 C-110.41 95.36 -106.02 90.99 -101.6 86.62 C-98.83 83.88 -96.16 81.14 -93.69 78.12 C-91.21 75.13 -88.43 72.73 -85.47 70.21 C-82.18 67.27 -79.1 64.14 -76 61 C-71.78 56.74 -67.56 52.57 -62.98 48.7 C-60.49 46.56 -58.1 44.34 -55.69 42.12 C-50.29 37.2 -44.7 32.57 -39 28 C-37.88 27.09 -36.76 26.17 -35.64 25.26 C-4.53 0 -4.53 0 0 0 Z " fill="#C97B4A" transform="translate(648,657)"/>
<path d="M0 0 C9.18 9.89 12.11 26.12 15.57 38.7 C15.67 39.03 15.67 39.03 16.14 40.73 C24.18 69.76 30.95 99.09 37.61 128.46 C37.86 129.59 38.12 130.72 38.38 131.88 C39.12 135.15 39.85 138.42 40.57 141.7 C40.86 142.96 41.14 144.22 41.43 145.53 C41.56 146.15 41.56 146.15 42.26 149.33 C42.51 150.48 42.76 151.63 43.02 152.81 C43.57 155.7 43.57 155.7 43.57 158.7 C51.12 152.9 58.09 146.62 65.03 140.13 C68.83 136.6 72.71 133.16 76.57 129.7 C78.24 128.2 79.91 126.7 81.57 125.2 C84.05 122.97 86.52 120.74 89 118.52 C95.05 113.08 101.06 107.6 107.04 102.1 C109.55 99.8 112.06 97.5 114.57 95.2 C115.57 94.28 116.57 93.36 117.57 92.45 C119.57 90.61 121.57 88.78 123.57 86.95 C124.07 86.49 124.56 86.04 125.08 85.57 C126.07 84.66 127.07 83.74 128.07 82.83 C130.62 80.49 133.17 78.15 135.71 75.8 C140.58 71.33 145.47 66.89 150.46 62.55 C153.12 60.22 155.72 57.83 158.32 55.45 C158.58 55.21 158.58 55.21 159.88 54.02 C162.43 51.68 164.96 49.33 167.48 46.96 C200.85 15.84 200.85 15.84 222.93 16.38 C232.04 17.46 240.35 21.68 246.26 28.7 C263.04 52.13 258.39 86.9 255.57 113.76 C255.52 114.29 255.52 114.29 255.25 116.97 C251.54 153.53 246.76 190.01 241.58 226.39 C241.33 228.16 241.08 229.93 240.83 231.7 C240.5 234.09 240.15 236.46 239.8 238.84 C239.75 239.19 239.75 239.19 239.51 240.94 C239.27 242.54 238.93 244.12 238.57 245.7 C236.57 246.7 236.57 246.7 234.72 246.1 C233.95 245.76 233.18 245.41 232.39 245.06 C231.5 244.68 230.61 244.29 229.7 243.89 C228.71 243.45 227.72 243.02 226.7 242.57 C170.99 218.78 112.55 204.42 52.57 196.7 C52.72 197.38 52.86 198.06 53 198.77 C60.42 234.89 67.24 271.86 46.59 304.87 C36.72 319.16 22.99 328.15 5.95 331.38 C-8.59 332.73 -19.83 329.24 -31.31 320.21 C-42.36 310.21 -48.79 295.4 -55.17 282.25 C-76.67 238.46 -76.67 238.46 -88.43 232.7 C-93.18 231.86 -97.26 232.18 -101.68 234.13 C-117.83 249.18 -120.45 276.75 -121.43 297.7 C-122.37 328.23 -119.27 357.71 -113 387.62 C-110.2 401.17 -109.44 414.77 -116.82 427 C-120.46 432.24 -124.29 435.65 -130.43 437.7 C-135.09 438.24 -138.5 438.17 -142.74 436.01 C-153.38 426.85 -155.48 412.4 -158.05 399.26 C-158.2 398.51 -158.35 397.76 -158.5 397 C-168.4 347.38 -168.49 297.55 -160.43 247.7 C-160.25 246.58 -160.07 245.46 -159.88 244.31 C-147.14 166.54 -113.98 81.4 -60.43 22.7 C-60.01 22.24 -60.01 22.24 -57.91 19.93 C-45.61 7.01 -18.62 -12.9 0 0 Z " fill="#C97B4A" transform="translate(905.42578125,368.3046875)"/>
<path d="M0 0 C1.48 0.01 2.96 0.01 4.45 0.01 C8.03 0.02 11.61 0.04 15.19 0.06 C12.55 2.7 10.2 3.07 6.62 4.12 C-21.76 13.14 -42.81 33.34 -57.23 58.96 C-64.82 73.83 -69.76 90.5 -71.81 107.06 C-71.92 107.95 -72.03 108.83 -72.15 109.75 C-77.41 158.73 -55.24 202.62 -31.62 243.89 C5.01 308.13 5.01 308.13 -2.81 342.06 C-8.48 362.34 -21.07 377.34 -39.09 388 C-60.69 399.47 -84.79 401.36 -108.81 402.25 C-110.78 402.33 -112.75 402.41 -114.73 402.49 C-129.76 403.09 -144.77 403.32 -159.81 403.06 C-160.14 402.4 -160.47 401.74 -160.81 401.06 C-160.36 400.78 -160.36 400.78 -158.06 399.38 C-153.3 395.98 -150.69 392.57 -148.81 387.06 C-147.41 376.9 -150.05 368.5 -155.83 360.14 C-163.52 350.38 -172.65 343.2 -183 336.44 C-184.03 335.74 -185.07 335.05 -186.13 334.34 C-191.36 330.86 -196.6 327.57 -202.13 324.58 C-217.39 316.17 -217.39 316.17 -219.93 310.05 C-221.04 306.09 -221.36 302.12 -221.6 298.03 C-221.93 293.42 -222.63 288.87 -223.27 284.3 C-223.82 280.29 -224.32 276.29 -224.8 272.28 C-225.44 266.92 -226.16 261.59 -226.95 256.25 C-230.99 228.37 -231.99 199.87 -226.81 172.06 C-226.73 171.6 -226.73 171.6 -226.32 169.28 C-221.05 139.77 -209.55 111.31 -191.81 87.06 C-191.41 86.5 -191 85.94 -190.58 85.37 C-184.53 77.08 -177.88 69.48 -170.81 62.06 C-170.05 61.23 -169.28 60.4 -168.49 59.55 C-152.72 42.97 -132.48 30.58 -111.81 21.06 C-111.49 20.91 -111.49 20.91 -109.86 20.15 C-96.98 14.25 -83.5 10.59 -69.81 7.06 C-68.56 6.73 -67.31 6.4 -66.02 6.06 C-54.19 3.24 -41.9 2.25 -29.81 1.06 C-28.79 0.96 -27.76 0.86 -26.7 0.76 C-17.79 -0.03 -8.94 -0.05 0 0 Z " fill="#C97B4A" transform="translate(1261.8125,1303.9375)"/>
<path d="M0 0 C7.27 5.97 12.12 12.55 13.07 22.01 C13.51 32.15 11.87 39.39 5.56 47.44 C0.28 53.15 -7.02 56.67 -14.76 57.43 C-24.75 57.7 -32.25 55.01 -39.56 48.11 C-46.24 40.78 -48.84 33.22 -48.62 23.34 C-47.7 13.83 -43.57 6.37 -36.31 0.19 C-24.75 -7.17 -11.49 -8.26 0 0 Z " fill="#F7F3EE" transform="translate(1230.3125,850.8125)"/>
</svg>
